<?xml version="1.0" encoding="utf-8"?>
<!-- Generator: Adobe Illustrator 24.1.1, SVG Export Plug-In . SVG Version: 6.00 Build 0)  -->
<svg version="1.1" id="Layer_1" xmlns="http://www.w3.org/2000/svg" xmlns:xlink="http://www.w3.org/1999/xlink" x="0px" y="0px"
	 viewBox="0 0 55.3 55.3" style="enable-background:new 0 0 55.3 55.3;" xml:space="preserve">
<style type="text/css">
	.st0{fill:#D11F36;}
	.st1{fill:#FFFFFF;}
	.st2{fill:#010101;}
	.st3{fill:#0C733B;}
	.st4{fill:#067B3F;}
	.st5{fill:#CD2028;}
	.st6{fill:#0B6D38;}
	.st7{fill:#E12226;}
	.st8{fill:#D92327;}
	.st9{fill:#D72027;}
	.st10{fill:#DD4044;}
	.st11{fill:#F7F6EF;}
	.st12{fill:#0F753C;}
	.st13{fill:#E41E26;}
	.st14{opacity:0.15;fill:#010101;}
	.st15{fill:#E82127;}
	.st16{fill:#16A151;}
	.st17{fill:#269D48;}
	.st18{fill:#BE282F;}
	.st19{fill:#036334;}
	.st20{fill:#ED1F33;}
	.st21{fill:#EC1D26;}
	.st22{fill:#186131;}
	.st23{fill:#BB902E;}
</style>
<g>
	<path class="st0" d="M-238.5,18.6c-3.8-10.8-14.1-18.1-25.6-18.1c-1.4,0-2.9,0.1-4.3,0.3c-5.5,0.9-10.5,3.4-14.4,7.1l11.9,10.6
		H-238.5z"/>
	<path class="st1" d="M-260.7,27.6l-10.2,9.1h32.4c0,0,0,0,0,0c1-2.9,1.5-5.9,1.5-9c0-3.1-0.5-6.2-1.5-9.1c0,0,0,0,0,0h-32.4
		L-260.7,27.6z"/>
	<path class="st2" d="M-282.8,47.3c3.9,3.7,8.9,6.2,14.4,7.1c1,0.2,1.9,0.3,2.9,0.3c0.5,0,0.9,0,1.4,0s0.9,0,1.4,0
		c11-0.6,20.5-7.6,24.2-18h-32.4L-282.8,47.3z"/>
	<path class="st3" d="M-282.8,47.3l11.9-10.6l10.2-9.1l-10.2-9.1l-11.9-10.6c-3.1,2.9-5.4,6.5-6.9,10.6c-1,2.9-1.5,6-1.5,9.1
		c0,3.1,0.5,6.1,1.5,9C-288.2,40.8-285.8,44.4-282.8,47.3z"/>
</g>
<g>
	<path class="st2" d="M-295.9,18.6C-299.7,7.7-310,0.5-321.5,0.5c-1.4,0-2.9,0.1-4.3,0.3c-5.5,0.9-10.5,3.4-14.4,7.1l11.9,10.6
		H-295.9z"/>
	<path class="st1" d="M-318.1,27.6l-10.2,9.1h32.4c0,0,0,0,0,0c1-2.9,1.5-5.9,1.5-9c0-3.1-0.5-6.2-1.5-9.1c0,0,0,0,0,0h-32.4
		L-318.1,27.6z"/>
	<path class="st4" d="M-340.2,47.3c3.9,3.7,8.9,6.2,14.4,7.1c1,0.2,1.9,0.3,2.9,0.3c0.5,0,0.9,0,1.4,0s0.9,0,1.4,0
		c11-0.6,20.5-7.6,24.2-18h-32.4L-340.2,47.3z"/>
	<path class="st5" d="M-340.2,47.3l11.9-10.6l10.2-9.1l-10.2-9.1l-11.9-10.6c-3.1,2.9-5.4,6.5-6.9,10.6c-1,2.9-1.5,6-1.5,9.1
		c0,3.1,0.5,6.1,1.5,9C-345.7,40.8-343.3,44.4-340.2,47.3z"/>
</g>
<g>
	<circle class="st6" cx="-91.7" cy="103.3" r="27.2"/>
	<g>
		<path class="st1" d="M-74.3,94.9c-0.2,0-0.4,0-0.6,0c0.7,4.4,0.5,8.4,0.5,8.6c-0.3,1.5-2.2,1.9-2.7,1.8c-0.4-0.1-0.4-0.3-0.3-0.4
			c0.8-0.5,2.2-1.3,2.2-1.9c0.3-2.1-0.6-8.1-0.6-8.1c-0.1-0.1-0.2-0.2-0.2-0.7c0-0.8,0.3-1.3,0.4-1.2
			C-75.1,93.7-74.2,94.9-74.3,94.9z"/>
		<path class="st1" d="M-84.5,103c-0.4,1.5-1.7,2.2-2.4,2.3c-0.5,0-1.1-0.5-0.7-0.6c0.9-0.4,2.5-1.4,2.5-2c0.2-2.1-0.4-7-0.5-7.1
			c-0.1-0.1-0.2-0.5-0.2-1c0-0.8,0.4-1.5,0.5-1.4c0.5,0.7,0.9,2,0.8,2c-0.2,0-0.3,0-0.4,0C-84.2,99.5-84.3,102.5-84.5,103z"/>
		<path class="st1" d="M-82.4,102.2c0,0.2-0.2,1-0.7,1.3c-0.1,0.1-0.1-0.6-0.1-1c0.1-1.7-0.8-7-0.9-7c-0.1-0.1-0.2-0.8-0.2-1.3
			c0-0.6,0.4-1.1,0.5-1c0.5,0.7,1.1,2,1.1,2c-0.2,0-0.4,0-0.5,0C-82.5,99.5-82.3,101.7-82.4,102.2z"/>
		<path class="st1" d="M-75.4,102.9c-0.1,0.1-0.9-1.2-1-1.5c-0.1-0.1-0.1-0.3-0.2-0.5c0,0.7,0.1,1.1,0,1.2c0,0.2-0.3,0.9-0.8,1.1
			c-0.1,0.1-0.1-0.6-0.1-1c0.1-0.7,0-1.8-0.1-2.8c-0.3-0.5-0.7-1-1-1.4c0.2,2.7,0.1,4.4,0,4.7c-0.1,0.5-0.7,1-1.1,1
			c-0.7,0-1.1-0.9-1.5-0.9c-0.4,0-0.6,2.1-1.4,2.2c-0.3,0-1.5-1.1-1.5-2c0-0.9,0.5-1.5,0.6-1.3c0.1,1.2,0,2.2,0.6,2.2
			c0.4,0,1.4-2.5,1.8-2.5c0.5,0,0.9,1.2,1.3,1.2c0.3,0,0.6-0.5,0.6-0.6c0.1-1.4-0.1-3.8-0.3-5.4c-0.6-0.9-1.1-1.5-1.2-1.5
			c-0.1,0-0.4-0.2-0.6-0.7c-0.2-0.5-0.1-1.5,0-1.4c0.7,0.4,1.3,1.2,1.3,1.2c-0.1,0-0.1,0.1-0.2,0.1c0.1,0.2,0.3,0.4,0.4,0.6
			c-0.1-0.3-0.1-0.9-0.1-1.3c0-0.7,0.3-0.9,0.4-0.8c0.5,0.7,1.1,2.1,1,2.1c-0.2,0-0.3,0-0.4,0c0.1,0.6,0.1,1.1,0.2,1.6
			c0.4,0.5,0.7,1,1,1.4c-0.2-1.5-0.4-2.8-0.4-2.8c-0.1-0.1-0.2-0.6-0.2-1.1c0-0.8,0.4-1.2,0.5-1.1c0.5,0.7,1,2.3,0.9,2.3
			c-0.2,0-0.3,0-0.4,0c0.2,1.7,0.4,3,0.5,4c0.6,0.9,1,1.4,1.1,1.6C-75.5,101.3-75,102.5-75.4,102.9z"/>
		<path class="st1" d="M-77.7,104.8c-0.2,0.1-0.7,0.3-0.8,0.1c-0.1-0.2,0.4-0.5,0.4-0.6c0.1-0.5-0.3-0.1-0.3-0.5
			c0-0.2,0.3-0.3,0.4-0.3c0.1,0,0.4,0.1,0.5,0.3c0,0.1-0.1,0.1-0.1,0.2c0,0.1,0,0.2,0,0.2c0,0.1,0.5,0,0.5,0.1
			C-77.1,104.7-77.4,104.7-77.7,104.8z"/>
		<path class="st1" d="M-76.5,96.4c0-0.3,0-0.7-0.1-1c-0.1-0.4-0.4-0.5-0.4-0.8c0-0.5,0.4-0.3,0.4-0.3c0.2,0.2,0.3,0.3,0.4,0.7
			C-76.1,95.3-76.1,96-76.5,96.4z"/>
		<path class="st1" d="M-80,101.8c0-0.2,0.1-0.5,0-0.9c-0.1-0.4-0.3-0.5-0.4-0.8c0-0.5,0.4-0.3,0.4-0.3c0.2,0.2,0.3,0.4,0.3,0.7
			C-79.6,100.9-79.6,101.4-80,101.8z"/>
		<path class="st1" d="M-79.7,99c0,0-0.5,0.5-0.9,0.8c-0.4,0.3-0.8,0.5-1,0.6c-0.1-0.2-0.2-0.5-0.1-0.6c0.2-0.2,0.6-0.4,0.9-0.7
			c0.5-0.3,0.9-0.6,1-0.7C-79.7,98.4-79.7,98.8-79.7,99z"/>
		<path class="st1" d="M-80.2,97c0,0.1-0.3,0.1-0.5,0.1c0,0.6,0,1.1-0.1,1.4c0,0.1-0.7-0.5-1.2-0.9c-0.3-0.3-0.1-0.9,0.1-0.9
			c0.5-0.1,0.4,0.4,0.6,0.4c0.3,0-0.1-0.8,0.4-0.9C-80.6,96.1-80.2,96.2-80.2,97z"/>
		<path class="st1" d="M-85.3,102.4c-0.1,0.1-0.8-1.5-0.9-1.8c-0.2-0.5-0.6-1.2-1.1-1.9c0.2,2.2,0.2,3.4,0.2,3.7
			c0,0.2-0.3,1.1-0.8,1.4c-0.1,0.1-0.1-0.9-0.1-1.2c0.1-0.8-0.2-3.7-0.3-5.6c-0.7-1-1.2-1.8-1.2-1.8c-0.1,0-0.7-0.7-0.9-1.2
			c-0.2-0.5,0-1.2,0.1-1.1c0.9,0.4,1.6,1.5,1.5,1.5c-0.1,0.1-0.2,0.1-0.3,0.1c0.2,0.3,0.4,0.5,0.6,0.8c0-0.1,0-0.2,0-0.2
			c-0.1-0.1-0.3-0.8-0.3-1.4c0-0.6,0.3-0.9,0.4-0.8c0.5,0.7,1.3,2.2,1.2,2.2c-0.2,0-0.3,0-0.4,0c0.1,0.6,0.2,1.1,0.2,1.6
			c1.4,2.1,1.9,3.2,2.1,3.5C-85.3,100.7-85,102-85.3,102.4z"/>
		<path class="st1" d="M-86.7,95.3c0.1-0.2,0.1-0.6,0-1c-0.1-0.4-0.4-0.4-0.4-0.7c-0.1-0.5,0.4-0.4,0.4-0.3c0.2,0.2,0.3,0.3,0.4,0.7
			C-86.2,94.3-86.3,94.9-86.7,95.3z"/>
		<path class="st1" d="M-85.9,96.4c-0.1,0.3-0.2,0.5-0.6,0.5c-0.4,0-0.7-0.3-0.7-0.6c0-0.2,0-0.4,0.2-0.4c0,0,0.2,0,0.2,0.3
			c0,0.2,0.1,0.1,0.2,0.1c0,0,0-0.2,0-0.3c0-0.1,0.2-0.1,0.2,0c0,0.1,0,0.2,0,0.3c0.1,0,0.2,0,0.2-0.1c0-0.3,0.2-0.3,0.2-0.3
			C-85.9,95.9-85.8,96.2-85.9,96.4z"/>
		<path class="st1" d="M-92.5,98.4c-0.1,0.3-0.2,0.5-0.6,0.5c-0.4,0-0.7-0.3-0.7-0.6c0-0.2,0-0.4,0.2-0.4c0,0,0.2,0,0.2,0.3
			c0,0.2,0.1,0.1,0.2,0.1c0,0,0-0.2,0-0.3c0-0.1,0.2-0.1,0.2,0c0,0.1,0,0.2,0,0.3c0.1,0,0.2,0,0.2-0.1c0-0.3,0.2-0.3,0.2-0.3
			C-92.5,97.9-92.4,98.2-92.5,98.4z"/>
		<path class="st1" d="M-89.8,96.5c-0.1,0.2-0.3,0.5-0.6,0.5c-0.3,0,0.2-0.6-0.2-0.6c-0.1,0-0.2,0.2-0.3,0.3
			c-0.2,0.3-0.4,0.8-0.9,0.8c-0.7,0-1.1-0.6-1.5-0.6c-0.4,0-0.2,0.8-1,0.8c-1.6,0-0.9-2.3-1.3-2.3c-0.3,0-0.5,2-1.1,2
			c-1.4-0.1-1.3-3.3-0.8-3.3c0.2,0,0.2,1.3,0.5,2.1c0.3,0.7,0.6-0.1,0.6-0.1c0.3-1.7,1.1-2.3,1.3-2.3c0.4,0,0.3,0.9,0.4,2.2
			c0,0.2,0.2,0.7,0.7,0.7c0.4,0,0.7-0.6,0.7-0.8c0-1.9-0.3-1.4-0.3-2.2c0-0.6,0.5-1,0.5-0.9c0.6,0,0.5,2.6,0.5,2.9
			c0,0.6,0.5,0.9,0.7,0.9c0.3,0,0.5-0.5,0.5-0.6c0-0.7-0.3-1-0.5-1.5c0-0.1-0.2-0.3-0.2-0.7c0-0.4,0.5-0.7,0.7-0.7
			c0.4,0,0.9,1.1,0.8,1.2c-0.1,0.1-0.3,0.1-0.5,0.1c0.4,1.1,0.1,1.8,0.9,1.8c0.4,0,0.5-0.4,0.7-0.3C-89.4,96-89.7,96.4-89.8,96.5z"
			/>
		<path class="st1" d="M-88.7,104.2c-0.7,0.1-1.2,0.6-1.3,0.4c-0.1-0.2-0.1-0.3,0-0.7c-0.2,0-0.5,0-0.5-0.1c0-0.3,0.5-0.7,0.7-0.7
			c0.4,0,0,0.9,0.3,0.9c0.3,0,0.3-0.4,0.9-0.4C-88.4,103.7-88.4,104.1-88.7,104.2z"/>
		<path class="st1" d="M-99.7,102.2c0-0.2,0-0.4-0.1-0.7c-0.1-0.3-0.4-0.4-0.4-0.6c-0.1-0.4,0.3-0.3,0.4-0.3
			c0.2,0.1,0.3,0.2,0.4,0.5C-99.4,101.4-99.4,101.8-99.7,102.2z"/>
		<path class="st1" d="M-107.7,94.7c0-0.2,0-0.4-0.1-0.8c-0.1-0.3-0.4-0.4-0.4-0.6c0-0.4,0.4-0.3,0.4-0.3c0.2,0.1,0.3,0.3,0.4,0.6
			C-107.4,93.9-107.4,94.4-107.7,94.7z"/>
		<path class="st1" d="M-103.7,93.6c-0.1,0.3-0.2,0.5-0.6,0.5c-0.4,0-0.7-0.3-0.7-0.6c0-0.2,0-0.4,0.2-0.4c0,0,0.2,0,0.2,0.3
			c0,0.2,0.1,0.1,0.2,0.1c0,0,0-0.2,0-0.3c0-0.1,0.2-0.1,0.2,0c0,0.1,0,0.2,0,0.3c0.1,0,0.2,0,0.2-0.1c0-0.3,0.2-0.3,0.2-0.3
			C-103.7,93.1-103.6,93.4-103.7,93.6z"/>
		<path class="st1" d="M-94.1,93.3c0,0.2,0,0.4-0.1,0.5c0,0.1-0.1,0.5-0.5,0.6c0-0.2-0.1-0.4,0-0.7c0-0.2,0.2-0.6,0.2-0.6
			c0.1-0.2,0.3-0.4,0.3-0.3C-94.1,92.8-94,93-94.1,93.3z"/>
		<path class="st1" d="M-98.9,97.3c-0.3,0-0.5-0.2-0.6-0.5c0-0.5,0.3-0.8,0.5-0.8c0.1,0,0,0.4,0,0.7c0.1,0,0.2,0,0.2,0
			c0.1,0,0.1-0.1,0.2-0.1c0.1,0,0.2,0,0.2,0C-98.2,96.9-98.5,97.3-98.9,97.3z"/>
		<path class="st1" d="M-96.8,94.2c-0.3,0-0.3-0.2-0.3-0.5c0.1-0.8,0.7-1.1,0.7-0.9c0,0.4-0.3,0.4-0.4,0.9c0.1,0,0.1,0,0.1,0
			c0.1,0,0.3,0,0.3,0C-96.3,93.9-96.6,94.2-96.8,94.2z"/>
		<path class="st1" d="M-91.7,100.6c0,0-0.1-0.3,0-0.3c0.8,0,2.2-0.4,2.3-1.6c0-0.5-0.3-1.4-1.2-1.3c-0.7,0.1-1.1,0.7-1.1,1
			c0,0.1,0.1,1-0.1,1c-1.5,0.1-2.3,0.9-2.7,1.4c0,0,0,0-0.1,0.1c-0.2-1-0.2-1.9-0.3-2c-0.3-0.6-0.8-1.6-1-1.5
			c-0.2,0.1-0.4,0.5-0.3,0.8c0.2,1,1.1,2.4,0.7,3.8c-0.2,0.8-1.9,2.1-2.5,2c-0.2,0-0.4-0.3-0.5-0.6c0.3-0.3,3.2-1.8,1.8-4.3
			c0.1,0,0.2,0,0.3,0c0.1,0,0.1-0.8-0.8-1.4c-0.1-0.1-0.7,0.1-0.7,0.8c0,0.5,0.5,0.9,0.5,1c0.6,0.9,0.7,1.2-1.3,2.6
			c0-0.5,0-0.9,0-0.9c-0.3,0.5-0.4,0.9-0.6,1.3c0,0,0,0-0.1,0c-0.3,0.2-3.5,2.2-3.1,2.4c0.4,0.2,2-0.5,3-1.1c0.2,1,1.1,1.2,1.6,1.2
			c0.7,0,2-0.8,2.8-2.4c0.4,0.5,1.5,2,3.3,2c0.5,0,0.5-0.7,0.4-0.7c-0.2-0.2-0.5-0.3-0.8-0.4c-0.3-0.3-0.6-0.9,0.2-1.1
			c0.7-0.2,2.1,0,2.6-0.4c0.6-0.5,0.8-1.1,0.9-1.4C-88.7,100.7-90,100.7-91.7,100.6z M-91,98.6c0,0,0.1-0.1,0.2,0
			c0.1,0,0.2,0.1,0.3,0.2c0,0,0.1,0.1,0.1,0.3c-0.1,0-0.2,0-0.3,0c-0.1,0-0.2-0.2-0.2-0.2C-91,98.8-91,98.6-91,98.6z M-92.2,101.9
			c-0.1,0.3-0.7,0.1-0.8,0.5c-0.1,0.2-0.2,0.6,0.1,0.9c-0.7-0.3-1.3-0.7-1.5-1.4c0-0.2-0.1-0.4-0.1-0.6c0.4,0.3,1.6,0.3,2.2,0.3
			C-92.3,101.6-92.1,101.7-92.2,101.9z"/>
		<path class="st1" d="M-98.2,94.4c0.1,0.1-1.2,1.5-1.6,1.8c0,0-0.8,0-1.2,0c0.8-0.7,2-1.5,2.1-1.8c0.1-0.2-0.4-0.4-0.4-0.7
			c0-0.2,0.3-0.4,0.6-0.5c0.1-0.1,0.5,0,0.6,0.2c0,0.1,0,0.5-0.2,0.6c-0.1,0-0.2-0.5-0.5-0.3c-0.1,0.1,0.1,0.4,0.4,0.4
			C-98.4,94.1-98.3,94.3-98.2,94.4z"/>
		<path class="st1" d="M-102.6,97c-0.1,0.7-0.8,1-1.2,1c-0.6,0-0.6-0.5-1-0.5c-0.1,0-0.2,0.1-0.3,0.1c0.1,1.2,0.2,2.2,0.2,2.9
			c0,0.2-0.3,0.8-0.7,1.1c-0.1,0.1-0.1-0.8,0-1.1c0-0.5,0-1.4-0.1-2.3c-0.1,0.1-0.3,0.1-0.4,0.1c-1.5,0-0.4-2.6-0.9-2.6
			c-0.5-0.1-0.4,2.4-1,2.4c-1.3,0-1.2-3.2-0.7-3.2c0.2,0,0.2,1.4,0.4,1.9c0.3,0.5,0.5-0.1,0.5-0.3c0.2-1.4,0.4-2,1-2
			c0.3,0,0.4,0.7,0.4,1.8c0,0.2-0.1,0.9,0.4,0.9c0,0,0.1,0,0.1,0c-0.1-1-0.2-1.8-0.3-1.9c-0.1-0.2-0.4-1.1-0.3-1.6
			c0-0.6,0.5-0.7,0.8-0.2c0.2,1.2,0.3,2.3,0.5,3.4c0.1-0.1,0.2-0.2,0.2-0.3c0.1-0.7-0.3-0.9-0.3-1.5c-0.1-0.9,0.3-1,0.3-1
			c0.8,0.2,0.6,1.7,0.6,2c0,0.4,0.7,0.8,0.8,0.8c0.3,0,0.3-0.3,0.3-0.4c0-0.6-0.4-0.9-0.6-1.2c0-0.1-0.2-0.4-0.2-0.7
			c0-0.3,0.3-0.6,0.5-0.6c0.4,0,0.9,1,0.8,1.1c0,0-0.2,0-0.3,0C-102.7,96-102.6,96.6-102.6,97z"/>
		<path class="st1" d="M-108.5,105c-0.3,0-0.6-0.6-0.6-0.8c-0.1-0.9,0.4-1.9,0.6-1.9c0.2,0-0.1,1.2-0.1,1.8c0.1,0,0.2,0,0.3,0
			c0.1,0,0.2-0.3,0.2-0.3c0.1,0,0.2,0.3,0.2,0.3C-107.9,104.3-108.1,105-108.5,105z"/>
		<path class="st1" d="M-106.3,99.6c-0.3,0.2-1,0.4-1.3,0.6c-0.4,0.2-0.9,0.5-1.2,0.6c0.4-0.8,0.7-1.1,1-1.3c0.2-0.2,0.7-0.4,1-0.5
			C-106.2,98.9-105.8,99.3-106.3,99.6z"/>
		<path class="st1" d="M-98.7,98.3c0,0.3-0.3,1.1-0.6,0.2c-0.2-0.4-0.5-0.1-0.7,0.4c-0.1,0.4-0.7,0.6-0.7,0c0-0.8-0.5-0.4-0.6-0.4
			c0,0,0,0,0,0c-0.1-0.9-0.2-2-0.4-3.3c0.1,0,0.2,0,0.4,0c0.1,0-0.4-1.4-0.8-2c-0.1-0.1-0.6,0-0.6,0.8c0,0.5,0.2,1.4,0.3,1.5
			c0,0,0.3,1.8,0.4,3.6c-0.1,0-0.2,0.1-0.2,0c0,0-0.7-0.8-1.2-0.8c-0.5,0-1,0.8-1,1.4c0,0.6,0.2,0.9,0.7,0.9c0.9,0,0.9-0.7,0.9-0.3
			c0,1-1.4,2-2.2,1.9c-1.4-0.1-0.7-2.2-1.2-2.2c-0.3,0-1.1,3.1,1.3,3.2c1,0,2.6-1.1,2.7-3.3c0-0.1,0.1-0.2,0.2-0.3c0,0.5,0,1,0,1.4
			c0,1.3-1.8,2.7-3.1,2.7c-2.1,0.1-1.4-2.4-1.9-2.4c-0.4,0-1.1,3.6,2,3.4c1.4-0.1,3.3-1.2,3.7-2.7c0.1-0.3,0.2-1.2,0.1-2.7
			c0.2,0.1,0.3,0.6,0.6,0.6c0.3,0,0.7-0.6,1-0.6c0.2,0,0.3,0.3,0.5,0.3c0.6,0,0.8-0.8,0.8-1.8C-98.5,98.1-98.7,98.1-98.7,98.3z
			 M-103.4,99.9c-0.2,0-0.3-0.1-0.3-0.2c0-0.2,0.1-0.3,0.3-0.3c0.2,0,0.3,0.2,0.3,0.3C-103.1,99.8-103.2,99.9-103.4,99.9z"/>
		<path class="st1" d="M-79.6,114.6c-0.3,0-0.5,0.2-0.5,0.2c-0.1,0.1-1-0.1-2.7-0.1c0.1-0.1,0.4-0.6,0.1-0.6c-0.3,0-0.1-0.4-0.2-0.4
			c-0.3,0-0.5,0.3-0.5,0.5c0,0.2,0.1,0.4,0.2,0.5c-0.2,0-0.4,0-0.6,0c-5.4,0-15.4,0-16.4-0.2c-0.4-0.1-4.4-0.2-4.3-0.1
			c0.3,0.5,1.4,1.1,2.3,1.2c0.4,0,12.2,0.1,19,0.1c0,0.3-0.1,0.4-0.1,0.5c0,0.4,0.2,0.8,0.4,0.8c0.2,0,0.2-0.3,0.2-0.3
			c1,0.1,2.8,0,2.8,0c0.1,0.2,0.2,0.3,0.4,0.3c0.7,0,0.7-0.8,0.7-1.1C-78.7,115.8-78.8,114.8-79.6,114.6z M-80.7,116.4
			c-0.1,0-0.1-0.2-0.5-0.2c-0.3,0-0.4,0.2-0.5,0.2c-0.3,0-0.6,0-0.9,0c0,0-0.1,0-0.1-0.2c0-0.1,0.1-0.2,0.1-0.4c1,0,1.9,0,2.5,0
			c0,0.2,0,0.4,0.1,0.6C-79.9,116.4-80.2,116.5-80.7,116.4z"/>
	</g>
</g>
<g>
	<path class="st7" d="M-121.9,103.3c0,3-0.5,5.9-1.4,8.6h-28v18.6c-14-1.1-25.1-12.8-25.1-27.2s11.1-26.1,25.1-27.2v18.6h28
		C-122.4,97.4-121.9,100.3-121.9,103.3z"/>
	<g>
		<g>
			<g>
				<path class="st8" d="M-154.4,92.9c-0.3-0.3-2.1-1.8-3.7-3.4c-0.7-0.8-1.4-1.5-1.8-2c-0.5-0.6-0.8-1-0.8-1.1l0,0l0,0
					c-0.2,0.1-0.6,0.3-0.9,0.4l0,0l0,0c0,0,0.2,0.4,0.7,1c0.4,0.6,1.2,1.5,2.3,2.6c0.9,0.9,1.9,1.8,3,2.7l0,0L-154.4,92.9
					L-154.4,92.9z M-155.5,93.2c-1.1-0.9-2.1-1.8-3-2.7c-1.1-1.1-1.9-2-2.3-2.6c-0.4-0.6-0.7-0.9-0.7-1c0.2-0.1,0.7-0.3,0.8-0.4
					c0.1,0.1,0.4,0.5,0.8,1.1c0.4,0.5,1.1,1.3,1.8,2c1.5,1.5,3.2,3,3.6,3.3L-155.5,93.2z"/>
				<path class="st1" d="M-154.4,92.9l-1.1,0.3c-1.1-0.9-2.1-1.8-3-2.7c-1.1-1.1-1.9-2-2.3-2.6c-0.4-0.6-0.7-0.9-0.7-1
					c0.2-0.1,0.7-0.3,0.8-0.4c0.1,0.1,0.4,0.5,0.8,1.1c0.4,0.5,1.1,1.3,1.8,2C-156.6,91.1-154.8,92.6-154.4,92.9z"/>
				<path class="st8" d="M-152.6,94.3c-0.1-0.1-0.3-0.2-0.5-0.4c-0.4-0.3-0.8-0.6-1.2-1.1l0,0l-1.4,0.4l0,0c0,0,0.2,0.2,0.5,0.4
					c0.3,0.2,0.7,0.5,1.1,0.7c0.1,0.1,0.4,0.2,0.7,0.3c0.2,0.1,0.4,0.1,0.5,0.1c0.1,0,0.1,0,0.2,0c0,0,0.1,0,0.1,0c0,0,0,0,0.1-0.1
					C-152.4,94.5-152.5,94.5-152.6,94.3z M-152.5,94.6c0,0-0.1,0.1-0.1,0.1c-0.1,0-0.4,0-0.7-0.1c-0.3-0.1-0.6-0.2-0.7-0.3
					c-0.4-0.2-0.8-0.5-1.1-0.7c-0.2-0.2-0.4-0.3-0.5-0.4l1.1-0.3l0.1,0c0.4,0.4,0.8,0.8,1.2,1.1c0.2,0.1,0.3,0.3,0.5,0.4
					C-152.5,94.5-152.5,94.5-152.5,94.6z"/>
				<path class="st1" d="M-152.5,94.6c0,0-0.1,0.1-0.1,0.1c-0.1,0-0.4,0-0.7-0.1c-0.3-0.1-0.6-0.2-0.7-0.3c-0.4-0.2-0.8-0.5-1.1-0.7
					c-0.2-0.2-0.4-0.3-0.5-0.4l1.1-0.3l0.1,0c0.4,0.4,0.8,0.8,1.2,1.1c0.2,0.1,0.3,0.3,0.5,0.4C-152.5,94.5-152.5,94.5-152.5,94.6z"
					/>
				<path class="st9" d="M-153.1,94.1c-0.3-0.3-0.8-0.6-1.2-1.1l0,0l-1.1,0.3l0,0c0,0,0.2,0.2,0.5,0.4c0.2,0.2,0.6,0.4,0.9,0.6
					c0,0,0,0,0.1,0c0.2,0.1,0.4,0.2,0.7,0.3c0.1,0,0.3,0.1,0.4,0.1h0c0.1,0,0.2,0,0.3-0.1C-152.5,94.5-152.7,94.3-153.1,94.1z
					 M-152.6,94.5c0,0.1-0.1,0.1-0.2,0.1c-0.3,0-0.8-0.2-1.1-0.4c0,0-0.1,0-0.1,0c-0.3-0.1-0.7-0.4-0.9-0.6
					c-0.2-0.2-0.4-0.3-0.4-0.4l1-0.3c0.4,0.4,0.8,0.8,1.2,1.1c0.2,0.1,0.3,0.2,0.4,0.3C-152.6,94.5-152.6,94.5-152.6,94.5
					C-152.6,94.5-152.6,94.5-152.6,94.5z"/>
				<g>
					<g>
						<path class="st9" d="M-160.6,86.4C-160.6,86.4-160.6,86.4-160.6,86.4c-0.1-0.2-0.8-1.4-1.6-2.5c-0.5-0.7-0.9-1.3-1.2-1.7
							c-0.2-0.2-0.3-0.4-0.5-0.5c-0.1-0.1-0.3-0.2-0.3-0.2c0,0-0.1,0-0.1,0.1c0,0.1,0,0.5,0.2,1c0.2,0.4,0.4,1,0.8,1.6
							c0.6,1.2,1.3,2.4,1.5,2.8c0,0,0,0,0,0l0,0l0.1-0.1l0.8-0.4L-160.6,86.4L-160.6,86.4z M-161.7,86.9c-0.2-0.4-0.9-1.5-1.5-2.8
							c-0.7-1.5-1.1-2.4-1-2.6c0,0,0,0,0-0.1c0,0,0,0,0,0c0.1,0,0.3,0.1,0.7,0.7c0.3,0.4,0.7,1,1.2,1.7c0.8,1.2,1.5,2.3,1.6,2.5
							L-161.7,86.9z"/>
						<path class="st1" d="M-160.6,86.4l-1.1,0.5c-0.2-0.4-0.9-1.5-1.5-2.8c-0.7-1.5-1.1-2.4-1-2.6c0,0,0,0,0-0.1c0,0,0,0,0,0
							c0.1,0,0.3,0.1,0.7,0.7c0.3,0.4,0.7,1,1.2,1.7C-161.4,85-160.7,86.2-160.6,86.4z"/>
					</g>
					<g>
						<path class="st9" d="M-161.3,85.4L-161.3,85.4C-161.3,85.4-161.3,85.4-161.3,85.4c-0.4-0.6-0.8-1.3-1.2-1.9
							c-0.4-0.6-0.7-1-0.9-1.3c-0.1-0.2-0.3-0.3-0.3-0.4c-0.1-0.1-0.2-0.1-0.2-0.1c0,0,0,0,0,0.1c0,0.1,0.1,0.4,0.3,0.9
							c0.2,0.4,0.4,0.9,0.8,1.6c0.3,0.6,0.6,1.1,0.9,1.6l0,0l0.6,1.1l0.9-0.4L-161.3,85.4z M-164.1,81.7
							C-164.1,81.7-164.1,81.7-164.1,81.7c0,0,0.1,0,0.2,0.1c0.1,0.1,0.2,0.2,0.3,0.4c0,0,0.1,0.1,0.1,0.1l-0.4,0.2
							C-164.1,82-164.1,81.8-164.1,81.7z M-163.1,84.2c-0.4-0.8-0.6-1.3-0.8-1.7l0.4-0.2c0.2,0.3,0.5,0.7,0.8,1.2
							c0.4,0.6,0.8,1.3,1.2,1.9l-0.8,0.4C-162.5,85.3-162.8,84.7-163.1,84.2z M-161.6,86.8l-0.6-1l0,0l0.8-0.4l0,0l0.6,1
							L-161.6,86.8z"/>
						<g>
							<path class="st9" d="M-161.4,85.5l-0.7,0.3l0.5,0.9l0.7-0.3L-161.4,85.5z M-162,85.8l0.7-0.3l0.5,0.9l-0.6,0.3L-162,85.8z"/>
							<path class="st9" d="M-161.4,85.7l-0.5,0.2l0.4,0.7l0.5-0.2L-161.4,85.7z M-161.4,85.8l0.3,0.6l-0.3-0.2L-161.4,85.8z
								 M-161.5,86.5l-0.3-0.6l0.4,0.2L-161.5,86.5z M-161.8,85.9l0.4-0.2l0,0.4L-161.8,85.9z M-161.5,86.5l0-0.4l0.4,0.2
								L-161.5,86.5z"/>
						</g>
						<path class="st9" d="M-163.7,82c0,0.1-0.1,0.1-0.1,0.1c-0.1,0-0.1-0.1-0.1-0.1c0-0.1,0.1-0.1,0.1-0.1
							C-163.8,81.9-163.7,82-163.7,82z"/>
					</g>
				</g>
				<path class="st8" d="M-157.3,90.8c-0.1-0.1-0.2-0.2-0.3-0.3c-0.1,0-0.1,0-0.2,0c0-0.1,0-0.2,0-0.2c0,0,0,0,0,0c0,0,0,0,0,0
					c0,0.1-0.1,0.1-0.1,0.1c0,0,0,0,0,0c-0.1,0-0.2-0.1-0.3-0.1c0,0,0-0.1,0-0.2l0,0c0,0.1,0,0.2,0,0.2c0,0.1,0.2,0.2,0.3,0.2
					c0,0,0,0,0,0c0,0,0.1,0,0.1-0.1c0,0,0,0.1,0,0.1c0,0-0.1,0-0.1,0l0,0c0,0,0.1,0,0.1,0c0,0,0,0,0,0l0,0
					C-157.6,90.5-157.4,90.6-157.3,90.8c-0.1,0-0.1,0-0.1,0.1L-157.3,90.8c0,0,0.1,0,0.2,0.1l0,0C-157.1,90.8-157.2,90.8-157.3,90.8
					z"/>
				<path class="st8" d="M-156.9,91.6C-156.9,91.6-157,91.6-156.9,91.6c-0.1-0.1-0.1-0.1,0-0.1c0,0,0.1-0.1,0.1-0.1
					c0-0.1-0.1-0.1-0.2-0.1c-0.1,0-0.1,0-0.1-0.1c0,0,0-0.1,0-0.1c-0.1,0.1-0.2,0.1-0.2,0l0,0c0.1,0,0.2,0,0.2-0.1l0,0l0,0
					c0,0,0,0,0,0c0,0.1,0,0.1,0,0.1c0,0,0.1,0,0.1,0.1c0.1,0,0.2,0.1,0.2,0.1c0,0.1,0,0.1-0.1,0.2C-156.9,91.5-157,91.5-156.9,91.6
					C-156.9,91.6-156.9,91.6-156.9,91.6C-156.8,91.6-156.8,91.6-156.9,91.6L-156.9,91.6L-156.9,91.6L-156.9,91.6L-156.9,91.6
					C-156.9,91.6-156.9,91.6-156.9,91.6z"/>
				<path class="st8" d="M-156.3,92.1L-156.3,92.1c0.1-0.1,0.1-0.3,0-0.4c-0.1-0.1-0.2-0.2-0.5-0.1l0,0c0.1,0,0.2-0.1,0.3,0
					c0.1,0,0.2,0.1,0.2,0.1c0,0.1,0.1,0.1,0.1,0.2C-156.2,92-156.3,92.1-156.3,92.1z"/>
				<path class="st8" d="M-155.9,92.5L-155.9,92.5c-0.1,0-0.2-0.1-0.3-0.2c0,0,0-0.1,0-0.1c0,0-0.1,0.1-0.1,0.1c0,0-0.1,0-0.1,0
					c0,0,0-0.1,0-0.1h0c0,0,0,0,0,0.1c0,0,0,0,0.1,0c0,0,0.1-0.1,0.1-0.1c0,0,0,0,0,0c0,0,0.1-0.1,0.1-0.1c0,0,0,0,0,0l0,0l0,0
					c0,0,0,0,0,0c0,0,0,0.1-0.1,0.1c0,0,0,0.1,0,0.1C-156.1,92.4-156,92.5-155.9,92.5L-155.9,92.5c0,0,0.1-0.1,0.1-0.1
					c0.1,0,0.1-0.1,0.1-0.1c0,0,0.1,0,0.1,0.1l0,0c0,0,0-0.1-0.1-0.1c0,0,0,0,0,0c0,0,0,0-0.1,0.1
					C-155.8,92.5-155.9,92.5-155.9,92.5z"/>
				<path class="st8" d="M-155.2,93.1c0-0.1,0-0.2,0-0.3l0,0c-0.1,0.1-0.2,0.1-0.3,0.1c0,0,0,0-0.1,0c-0.1,0-0.2-0.1-0.2-0.2
					c0-0.1,0-0.2,0.1-0.3l0,0c-0.1,0.1-0.1,0.2-0.1,0.3c0,0.1,0.1,0.1,0.2,0.1c0,0,0,0,0.1,0c0.1,0,0.2-0.1,0.4-0.2c0,0,0,0,0,0
					c0,0,0,0,0,0l0,0c0,0,0,0,0,0l0,0l0,0c0,0,0,0,0,0c0,0,0,0,0,0.1C-155.2,92.9-155.2,93-155.2,93.1L-155.2,93.1z"/>
				<path class="st8" d="M-153.2,94.3c-0.1,0-0.1,0-0.1,0c0,0-0.1,0-0.1-0.1c0,0,0-0.1,0-0.1c0-0.1,0.1-0.2-0.1-0.3
					c-0.1-0.1-0.2,0-0.3,0.1c-0.1,0.1-0.2,0.1-0.3,0.1l0,0l0,0l0,0c0,0,0.1,0,0.1-0.1c0,0,0,0,0,0c0,0,0,0,0-0.1c0,0,0,0,0-0.1
					c0,0-0.1-0.1-0.1-0.2c0,0-0.1,0.1-0.1,0.1c0,0,0,0,0,0c-0.1,0-0.1,0-0.1-0.1c0,0,0,0,0-0.1c-0.1,0-0.1,0.1-0.1,0.2
					c0,0,0,0.1,0,0.1c0,0.1,0,0.1-0.1,0.1c0,0,0,0,0,0c0,0-0.1,0-0.1-0.1c0,0,0-0.1,0-0.1c0,0,0-0.1,0-0.1c0,0-0.1,0-0.1,0
					c-0.1,0-0.2,0-0.2-0.1c0,0,0,0,0,0c0-0.1,0.1-0.1,0.2-0.1c0.1,0,0.1,0,0.1,0c0,0,0.1,0,0.1,0c0.1,0,0.1-0.1,0.1-0.1c0,0,0,0,0,0
					c0,0,0,0,0,0c0,0,0,0.1-0.1,0.1c0,0-0.1,0-0.1,0c0,0-0.1-0.1-0.1,0c-0.1,0-0.2,0.1-0.2,0.1c0,0,0,0,0,0c0,0.1,0.1,0.1,0.2,0.1
					c0.1,0,0.1,0,0.1,0c0,0,0,0.1,0,0.1c0,0,0,0.1,0,0.1c0,0,0.1,0.1,0.1,0.1c0,0,0,0,0,0c0,0,0,0,0,0c0,0,0,0,0-0.1
					c0,0,0-0.1,0-0.1c0-0.1,0.1-0.2,0.2-0.2l0,0l0,0c0,0,0,0,0,0c0,0.1-0.1,0.1,0,0.1c0,0,0,0,0.1,0c0,0,0,0,0,0
					c0.1,0,0.1,0,0.1-0.1c0,0,0,0,0,0c0,0,0,0,0,0c0,0.1,0,0.2,0.1,0.2c0,0,0,0,0,0.1c0,0,0,0.1,0,0.1c0,0,0,0,0,0
					c0,0.1,0,0.1-0.1,0.1c0.1,0,0.1-0.1,0.2-0.1c0.1-0.1,0.2-0.1,0.3-0.1c0.2,0.1,0.1,0.2,0.1,0.3c0,0,0,0.1,0,0.1c0,0,0,0,0,0.1
					c0.1,0,0.2,0,0.2,0l0,0C-153.1,94.3-153.1,94.3-153.2,94.3z"/>
			</g>
			<g>
				<path class="st8" d="M-164.1,92.9l1.2,0.3l0,0c1.1-0.9,2.1-1.8,3-2.7c1.1-1.1,1.9-2.1,2.3-2.6c0.5-0.6,0.7-1,0.7-1l0,0l0,0
					c-0.2-0.1-0.7-0.3-0.9-0.4l0,0l0,0c0,0.1-0.4,0.5-0.8,1.1c-0.4,0.5-1.1,1.3-1.8,2C-161.9,91.1-163.7,92.6-164.1,92.9
					L-164.1,92.9z M-164,92.9c0.4-0.3,2.1-1.8,3.6-3.3c0.7-0.8,1.4-1.5,1.8-2c0.5-0.6,0.8-1,0.8-1.1c0.2,0.1,0.6,0.3,0.8,0.4
					c0,0.1-0.3,0.4-0.7,1c-0.4,0.6-1.2,1.5-2.3,2.6c-0.9,0.9-1.9,1.8-3,2.7L-164,92.9z"/>
				<path class="st1" d="M-164,92.9l1.1,0.3c1.1-0.9,2.1-1.8,3-2.7c1.1-1.1,1.9-2,2.3-2.6c0.4-0.6,0.7-0.9,0.7-1
					c-0.2-0.1-0.7-0.3-0.8-0.4c-0.1,0.1-0.4,0.5-0.8,1.1c-0.4,0.5-1.1,1.3-1.8,2C-161.9,91.1-163.6,92.6-164,92.9z"/>
				<path class="st8" d="M-166,94.6C-166,94.6-165.9,94.7-166,94.6c0.1,0.1,0.1,0.1,0.1,0.1c0,0,0.1,0,0.2,0c0.1,0,0.3,0,0.5-0.1
					c0.3-0.1,0.6-0.2,0.7-0.3c0.4-0.2,0.8-0.5,1.1-0.7c0.3-0.2,0.5-0.4,0.5-0.4l0,0l-1.4-0.4l0,0c-0.4,0.4-0.8,0.8-1.2,1.1
					c-0.2,0.2-0.3,0.3-0.5,0.4C-166,94.5-166,94.5-166,94.6z M-165.8,94.4c0.1-0.1,0.3-0.2,0.5-0.4c0.4-0.3,0.8-0.6,1.2-1.1l0.1,0
					l1.1,0.3c-0.1,0.1-0.2,0.2-0.5,0.4c-0.3,0.2-0.7,0.5-1.1,0.7c-0.1,0.1-0.4,0.2-0.7,0.3c-0.3,0.1-0.5,0.1-0.7,0.1
					c-0.1,0-0.1-0.1-0.1-0.1C-166,94.5-165.9,94.5-165.8,94.4z"/>
				<path class="st1" d="M-165.9,94.6c0,0,0.1,0.1,0.1,0.1c0.1,0,0.4,0,0.7-0.1c0.3-0.1,0.6-0.2,0.7-0.3c0.4-0.2,0.8-0.5,1.1-0.7
					c0.2-0.2,0.4-0.3,0.5-0.4l-1.1-0.3l-0.1,0c-0.4,0.4-0.8,0.8-1.2,1.1c-0.2,0.1-0.3,0.3-0.5,0.4C-165.9,94.5-166,94.5-165.9,94.6z
					"/>
				<path class="st9" d="M-165.9,94.6c0.1,0.1,0.1,0.1,0.3,0.1h0c0.1,0,0.2,0,0.4-0.1c0.3-0.1,0.5-0.2,0.7-0.3c0,0,0.1,0,0.1,0
					c0.3-0.2,0.7-0.4,0.9-0.6c0.3-0.2,0.4-0.4,0.5-0.4l0,0l-1.1-0.3l0,0c-0.4,0.4-0.8,0.8-1.2,1.1
					C-165.7,94.3-165.9,94.5-165.9,94.6z M-165.8,94.5c0,0,0-0.1,0.1-0.1c0.1-0.1,0.2-0.2,0.4-0.3c0.3-0.3,0.8-0.6,1.2-1.1l1,0.3
					c-0.1,0.1-0.2,0.2-0.4,0.4c-0.2,0.2-0.6,0.4-0.9,0.6c0,0,0,0-0.1,0c-0.2,0.1-0.7,0.4-1.1,0.4C-165.7,94.6-165.8,94.6-165.8,94.5
					C-165.8,94.5-165.8,94.5-165.8,94.5z"/>
				<g>
					<g>
						<path class="st9" d="M-157.8,86.4l0.1,0.1l0.8,0.4l0.1,0.1l0,0c0,0,0,0,0,0c0.2-0.4,0.9-1.5,1.5-2.8c0.3-0.7,0.6-1.2,0.8-1.6
							c0.2-0.5,0.3-0.9,0.2-1c0,0,0-0.1-0.1-0.1c-0.1,0-0.2,0-0.3,0.2c-0.1,0.1-0.3,0.3-0.5,0.5c-0.3,0.4-0.7,1-1.2,1.7
							C-157,85-157.7,86.2-157.8,86.4C-157.8,86.4-157.8,86.4-157.8,86.4L-157.8,86.4z M-157.8,86.4c0.1-0.2,0.8-1.4,1.6-2.5
							c0.5-0.7,0.9-1.3,1.2-1.7c0.4-0.6,0.6-0.7,0.7-0.7c0,0,0,0,0,0c0,0,0,0,0,0.1c0.1,0.2-0.3,1.1-1,2.6c-0.6,1.2-1.3,2.4-1.5,2.8
							L-157.8,86.4z"/>
						<path class="st1" d="M-157.8,86.4l1.1,0.5c0.2-0.4,0.9-1.5,1.5-2.8c0.7-1.5,1.1-2.4,1-2.6c0,0,0,0,0-0.1c0,0,0,0,0,0
							c-0.1,0-0.3,0.1-0.7,0.7c-0.3,0.4-0.7,1-1.2,1.7C-157,85-157.7,86.2-157.8,86.4z"/>
					</g>
					<g>
						<path class="st9" d="M-157.7,86.5l0.9,0.4l0.6-1.1l0,0c0.3-0.5,0.6-1,0.9-1.6c0.3-0.6,0.6-1.2,0.8-1.6
							c0.2-0.5,0.3-0.8,0.3-0.9c0,0,0,0,0-0.1c0,0-0.1,0-0.2,0.1c-0.1,0.1-0.2,0.2-0.3,0.4c-0.2,0.3-0.6,0.8-0.9,1.3
							c-0.4,0.6-0.8,1.3-1.2,1.9c0,0,0,0,0,0l0,0L-157.7,86.5z M-154.6,82.4l-0.4-0.2c0,0,0.1-0.1,0.1-0.1c0.1-0.2,0.3-0.3,0.3-0.4
							c0.1-0.1,0.2-0.1,0.2-0.1c0,0,0,0,0,0C-154.3,81.8-154.4,82-154.6,82.4z M-156.2,85.8l-0.8-0.4c0.4-0.6,0.8-1.3,1.2-1.9
							c0.3-0.5,0.6-0.9,0.8-1.2l0.4,0.2c-0.2,0.4-0.4,0.9-0.8,1.7C-155.7,84.7-156,85.3-156.2,85.8z M-157.7,86.4l0.6-1l0,0l0.8,0.4
							l0,0l-0.6,1L-157.7,86.4z"/>
						<g>
							<path class="st9" d="M-157.6,86.4l0.7,0.3l0.5-0.9l-0.7-0.3L-157.6,86.4z M-156.9,86.7l-0.6-0.3l0.5-0.9l0.7,0.3L-156.9,86.7
								z"/>
							<path class="st9" d="M-157.4,86.4l0.5,0.2l0.4-0.7l-0.5-0.2L-157.4,86.4z M-157,86.1l-0.3,0.2l0.3-0.6L-157,86.1z
								 M-156.9,86.1l0.4-0.2l-0.3,0.6L-156.9,86.1z M-156.9,86.1l0-0.4l0.4,0.2L-156.9,86.1z M-157.3,86.4l0.4-0.2l0,0.4
								L-157.3,86.4z"/>
						</g>
						<path class="st9" d="M-154.7,82c0,0.1,0.1,0.1,0.1,0.1c0.1,0,0.1-0.1,0.1-0.1c0-0.1-0.1-0.1-0.1-0.1
							C-154.7,81.9-154.7,82-154.7,82z"/>
					</g>
				</g>
				<path class="st8" d="M-161.2,90.8c0.1-0.1,0.2-0.2,0.3-0.3c0.1,0,0.1,0,0.2,0c0-0.1,0-0.2,0-0.2c0,0,0,0,0,0c0,0,0,0,0,0
					c0,0.1,0.1,0.1,0.1,0.1c0,0,0,0,0,0c0.1,0,0.2-0.1,0.3-0.1c0,0,0-0.1,0-0.2l0,0c0,0.1,0,0.2,0,0.2c0,0.1-0.2,0.2-0.3,0.2
					c0,0,0,0,0,0c0,0-0.1,0-0.1-0.1c0,0,0,0.1,0,0.1c0,0,0.1,0,0.1,0l0,0c0,0-0.1,0-0.1,0c0,0,0,0,0,0l0,0
					C-160.8,90.5-161,90.6-161.2,90.8c0.1,0,0.1,0,0.1,0.1L-161.2,90.8c0,0-0.1,0-0.2,0.1l0,0C-161.3,90.8-161.3,90.8-161.2,90.8z"
					/>
				<path class="st8" d="M-161.5,91.6C-161.5,91.6-161.5,91.6-161.5,91.6c0.1-0.1,0.1-0.1,0-0.1c0,0-0.1-0.1-0.1-0.1
					c0-0.1,0.1-0.1,0.2-0.1c0.1,0,0.1,0,0.1-0.1c0,0,0-0.1,0-0.1c0.1,0.1,0.2,0.1,0.2,0l0,0c-0.1,0-0.2,0-0.2-0.1l0,0l0,0
					c0,0,0,0,0,0c0,0.1,0,0.1,0,0.1c0,0-0.1,0-0.1,0.1c-0.1,0-0.2,0.1-0.2,0.1c0,0.1,0,0.1,0.1,0.2
					C-161.5,91.5-161.5,91.5-161.5,91.6C-161.5,91.6-161.5,91.6-161.5,91.6C-161.6,91.6-161.6,91.6-161.5,91.6L-161.5,91.6
					L-161.5,91.6L-161.5,91.6L-161.5,91.6C-161.6,91.6-161.6,91.6-161.5,91.6z"/>
				<path class="st8" d="M-162.1,92.1L-162.1,92.1c-0.1-0.1-0.1-0.3,0-0.4c0.1-0.1,0.2-0.2,0.5-0.1l0,0c-0.1,0-0.2-0.1-0.3,0
					c-0.1,0-0.2,0.1-0.2,0.1c0,0.1-0.1,0.1-0.1,0.2C-162.2,92-162.2,92.1-162.1,92.1z"/>
				<path class="st8" d="M-162.5,92.5L-162.5,92.5c0.1,0,0.2-0.1,0.3-0.2c0,0,0-0.1,0-0.1c0,0,0.1,0.1,0.1,0.1c0,0,0.1,0,0.1,0
					c0,0,0-0.1,0-0.1h0c0,0,0,0,0,0.1c0,0,0,0-0.1,0c0,0-0.1-0.1-0.1-0.1c0,0,0,0,0,0c0,0-0.1-0.1-0.1-0.1c0,0,0,0,0,0l0,0l0,0
					c0,0,0,0,0,0c0,0,0,0.1,0.1,0.1c0,0,0,0.1,0,0.1C-162.3,92.4-162.4,92.5-162.5,92.5L-162.5,92.5c0,0-0.1-0.1-0.1-0.1
					c-0.1,0-0.1-0.1-0.1-0.1c0,0-0.1,0-0.1,0.1l0,0c0,0,0-0.1,0.1-0.1c0,0,0,0,0,0c0,0,0,0,0.1,0.1
					C-162.6,92.5-162.6,92.5-162.5,92.5z"/>
				<path class="st8" d="M-163.3,93.1c0-0.1,0-0.2,0-0.3l0,0c0.1,0.1,0.2,0.1,0.3,0.1c0,0,0,0,0.1,0c0.1,0,0.2-0.1,0.2-0.2
					c0-0.1,0-0.2-0.1-0.3l0,0c0.1,0.1,0.1,0.2,0.1,0.3c0,0.1-0.1,0.1-0.2,0.1c0,0,0,0-0.1,0c-0.1,0-0.2-0.1-0.4-0.2c0,0,0,0,0,0
					c0,0,0,0,0,0l0,0c0,0,0,0,0,0l0,0l0,0c0,0,0,0,0,0c0,0,0,0,0,0.1C-163.3,92.9-163.3,93-163.3,93.1L-163.3,93.1z"/>
				<path class="st8" d="M-165.3,94.3c0.1,0,0.1,0,0.1,0c0,0,0.1,0,0.1-0.1c0,0,0-0.1,0-0.1c0-0.1-0.1-0.2,0.1-0.3
					c0.1-0.1,0.2,0,0.3,0.1c0.1,0.1,0.2,0.1,0.3,0.1l0,0l0,0l0,0c0,0-0.1,0-0.1-0.1c0,0,0,0,0,0c0,0,0,0,0-0.1c0,0,0,0,0-0.1
					c0,0,0.1-0.1,0.1-0.2c0,0,0.1,0.1,0.1,0.1c0,0,0,0,0,0c0.1,0,0.1,0,0.1-0.1c0,0,0,0,0-0.1c0.1,0,0.1,0.1,0.1,0.2
					c0,0,0,0.1,0,0.1c0,0.1,0,0.1,0.1,0.1c0,0,0,0,0,0c0,0,0.1,0,0.1-0.1c0,0,0-0.1,0-0.1c0,0,0-0.1,0-0.1c0,0,0.1,0,0.1,0
					c0.1,0,0.2,0,0.2-0.1c0,0,0,0,0,0c0-0.1-0.1-0.1-0.2-0.1c-0.1,0-0.1,0-0.1,0c0,0-0.1,0-0.1,0c-0.1,0-0.1-0.1-0.1-0.1
					c0,0,0,0,0,0c0,0,0,0,0,0c0,0,0,0.1,0.1,0.1c0,0,0.1,0,0.1,0c0,0,0.1-0.1,0.1,0c0.1,0,0.2,0.1,0.2,0.1c0,0,0,0,0,0
					c0,0.1-0.1,0.1-0.2,0.1c-0.1,0-0.1,0-0.1,0c0,0,0,0.1,0,0.1c0,0,0,0.1,0,0.1c0,0-0.1,0.1-0.1,0.1c0,0,0,0,0,0c0,0,0,0,0,0
					c0,0,0,0,0-0.1c0,0,0-0.1,0-0.1c0-0.1-0.1-0.2-0.2-0.2l0,0l0,0c0,0,0,0,0,0c0,0.1,0.1,0.1,0,0.1c0,0,0,0-0.1,0c0,0,0,0,0,0
					c-0.1,0-0.1,0-0.1-0.1c0,0,0,0,0,0c0,0,0,0,0,0c0,0.1,0,0.2-0.1,0.2c0,0,0,0,0,0.1c0,0,0,0.1,0,0.1c0,0,0,0,0,0
					c0,0.1,0,0.1,0.1,0.1c-0.1,0-0.1-0.1-0.2-0.1c-0.1-0.1-0.2-0.1-0.3-0.1c-0.2,0.1-0.1,0.2-0.1,0.3c0,0,0,0.1,0,0.1c0,0,0,0,0,0.1
					c-0.1,0-0.2,0-0.2,0l0,0C-165.3,94.3-165.3,94.3-165.3,94.3z"/>
			</g>
		</g>
		<g>
			<g>
				<path class="st8" d="M-158.8,84.4v-0.8h-0.1V83h0v-0.3h-0.8V83h0v0.5h-0.1v0.8h-0.1v0.4h1v-0.4H-158.8z M-159.6,82.7h0.7V83
					h-0.7V82.7z M-158.9,83v0.5h-0.7V83H-158.9z M-159.6,83.6h0.8v0.4h-0.8V83.6z M-159.6,84h0.8v0.4h-0.8V84z M-158.7,84.8h-1v-0.4
					h1V84.8z"/>
				<g>
					<rect x="-159.6" y="83.6" class="st1" width="0.8" height="0.4"/>
					<rect x="-159.6" y="84" class="st1" width="0.8" height="0.4"/>
					<g>
						<rect x="-159.6" y="82.7" class="st1" width="0.7" height="0.3"/>
						<rect x="-159.5" y="83" class="st1" width="0.7" height="0.5"/>
						<rect x="-159.7" y="84.4" class="st1" width="1" height="0.4"/>
					</g>
				</g>
			</g>
			<g>
				<path class="st8" d="M-158.3,81.9C-158.3,81.9-158.3,81.9-158.3,81.9c-0.1-0.1-0.2-0.2-0.3-0.3c-0.1-0.1-0.3-0.1-0.4-0.2
					c0-0.1-0.1-0.2-0.3-0.2c-0.1,0-0.3,0.1-0.3,0.2c-0.2,0-0.3,0.1-0.4,0.2c-0.1,0.1-0.2,0.2-0.2,0.3c0,0,0,0,0,0
					c-0.1,0-0.3,0.1-0.3,0.2c0,0.1,0.1,0.2,0.3,0.2c0,0,0,0,0.1,0c0,0.1,0.1,0.2,0.2,0.2c0.2,0.1,0.4,0.2,0.7,0.2s0.5-0.1,0.7-0.2
					c0.1-0.1,0.2-0.1,0.2-0.2c0,0,0,0,0.1,0c0.1,0,0.3-0.1,0.3-0.2C-158,82-158.1,81.9-158.3,81.9z M-159.4,81.4
					c0-0.1,0.1-0.2,0.2-0.2s0.2,0.1,0.2,0.2c0,0,0,0,0,0c0,0,0,0,0,0c0,0.1-0.1,0.2-0.2,0.2S-159.4,81.5-159.4,81.4
					C-159.4,81.4-159.4,81.4-159.4,81.4C-159.4,81.4-159.4,81.4-159.4,81.4z M-160.1,82.3C-160.2,82.3-160.2,82.3-160.1,82.3
					c-0.2,0-0.3-0.1-0.3-0.2c0-0.1,0.1-0.2,0.2-0.2c0,0,0,0,0,0c0,0,0,0,0,0c0.1,0,0.2,0.1,0.2,0.2C-159.9,82.2-160,82.3-160.1,82.3
					C-160.1,82.3-160.1,82.3-160.1,82.3z M-160.1,82.3c0.1,0,0.2-0.1,0.2-0.2c0-0.1-0.1-0.2-0.2-0.2c0-0.1,0.1-0.2,0.2-0.2
					c0.1,0.1,0.2,0.3,0.2,0.4c0,0.2-0.2,0.4-0.2,0.5C-160,82.4-160,82.4-160.1,82.3z M-159.9,82.5c0-0.1,0.2-0.3,0.2-0.5
					c0-0.1-0.1-0.3-0.2-0.4c0,0,0.1,0,0.1-0.1c0.2,0.2,0.2,0.3,0.2,0.5c0,0.2-0.2,0.5-0.2,0.6C-159.8,82.6-159.9,82.5-159.9,82.5z
					 M-159.2,82.7c-0.2,0-0.4,0-0.5-0.1c0-0.1,0.2-0.4,0.2-0.6c0-0.2-0.1-0.4-0.2-0.5c0.1,0,0.2-0.1,0.3-0.1c0,0.1,0.1,0.2,0.3,0.2
					c0.1,0,0.2-0.1,0.3-0.2c0.1,0,0.2,0.1,0.3,0.1c-0.1,0.1-0.2,0.3-0.2,0.5c0,0.2,0.2,0.5,0.2,0.6C-158.8,82.7-159,82.7-159.2,82.7
					z M-158.6,82.6c0-0.1-0.2-0.4-0.2-0.6c0-0.1,0.1-0.3,0.2-0.5c0,0,0.1,0,0.1,0.1c-0.1,0.1-0.2,0.3-0.2,0.4c0,0.2,0.2,0.4,0.2,0.5
					C-158.6,82.5-158.6,82.6-158.6,82.6z M-158.5,82.5c0-0.1-0.2-0.3-0.2-0.5c0-0.1,0.1-0.3,0.2-0.4c0.1,0.1,0.1,0.1,0.2,0.2
					c-0.1,0-0.2,0.1-0.2,0.2c0,0.1,0.1,0.2,0.2,0.2C-158.4,82.4-158.4,82.4-158.5,82.5z M-158.3,82.3
					C-158.3,82.3-158.3,82.3-158.3,82.3C-158.3,82.3-158.3,82.3-158.3,82.3c-0.2,0-0.2-0.1-0.2-0.2c0-0.1,0.1-0.2,0.2-0.2
					c0,0,0,0,0,0c0,0,0,0,0,0c0.1,0,0.2,0.1,0.2,0.2C-158,82.2-158.1,82.3-158.3,82.3z"/>
				<path class="st8" d="M-159.2,81.9c-0.1,0-0.3,0.1-0.3,0.2c0,0.1,0.1,0.2,0.3,0.2s0.3-0.1,0.3-0.2C-159,82-159.1,81.9-159.2,81.9
					z M-159.2,82.3c-0.1,0-0.2-0.1-0.2-0.2s0.1-0.2,0.2-0.2s0.2,0.1,0.2,0.2S-159.1,82.3-159.2,82.3z"/>
				<path class="st1" d="M-158.3,82.3c0,0.1-0.1,0.1-0.1,0.2c0-0.1-0.2-0.3-0.2-0.5c0-0.1,0.1-0.3,0.2-0.4c0.1,0.1,0.1,0.1,0.2,0.2
					c-0.1,0-0.2,0.1-0.2,0.2C-158.5,82.2-158.4,82.3-158.3,82.3z"/>
				<path class="st1" d="M-158.5,82.5c0,0-0.1,0.1-0.1,0.1c0-0.1-0.2-0.4-0.2-0.6c0-0.1,0.1-0.3,0.2-0.5c0,0,0.1,0,0.1,0.1
					c-0.1,0.1-0.2,0.3-0.2,0.4C-158.7,82.2-158.6,82.4-158.5,82.5z"/>
				<path class="st1" d="M-158.7,81.5c-0.1,0-0.2-0.1-0.3-0.1c0,0.1-0.1,0.2-0.3,0.2c-0.1,0-0.2-0.1-0.3-0.2c-0.1,0-0.2,0.1-0.3,0.1
					c0.1,0.1,0.2,0.3,0.2,0.5c0,0.2-0.2,0.5-0.2,0.6c0.2,0.1,0.3,0.1,0.5,0.1c0.2,0,0.4,0,0.5-0.1c0-0.1-0.2-0.4-0.2-0.6
					C-158.9,81.8-158.8,81.7-158.7,81.5z M-159.2,82.3c-0.1,0-0.3-0.1-0.3-0.2c0-0.1,0.1-0.2,0.3-0.2s0.3,0.1,0.3,0.2
					C-159,82.2-159.1,82.3-159.2,82.3z"/>
				<path class="st1" d="M-159.7,82c0,0.2-0.2,0.4-0.2,0.5c-0.1-0.1-0.1-0.1-0.1-0.2c0.1,0,0.2-0.1,0.2-0.2c0-0.1-0.1-0.2-0.2-0.2
					c0-0.1,0.1-0.2,0.2-0.2C-159.8,81.7-159.7,81.9-159.7,82z"/>
				<path class="st1" d="M-159.6,82c0,0.2-0.2,0.5-0.2,0.6c0,0-0.1,0-0.1-0.1c0-0.1,0.2-0.3,0.2-0.5c0-0.1-0.1-0.3-0.2-0.4
					c0,0,0.1,0,0.1-0.1C-159.6,81.7-159.6,81.9-159.6,82z"/>
				<path class="st1" d="M-159,81.4C-159,81.4-159,81.4-159,81.4c0,0.1-0.1,0.2-0.2,0.2s-0.2-0.1-0.2-0.2c0,0,0,0,0,0c0,0,0,0,0,0
					c0-0.1,0.1-0.2,0.2-0.2S-159,81.3-159,81.4C-159,81.4-159,81.4-159,81.4z"/>
				<path class="st1" d="M-159,82.1c0,0.1-0.1,0.2-0.2,0.2s-0.2-0.1-0.2-0.2s0.1-0.2,0.2-0.2S-159,82-159,82.1z"/>
				<g>
					<path class="st1" d="M-159.9,82.1c0,0.1-0.1,0.2-0.2,0.2c0,0,0,0,0,0c0,0,0,0,0,0c-0.1,0-0.2-0.1-0.2-0.2
						c0-0.1,0.1-0.2,0.2-0.2c0,0,0,0,0,0c0,0,0,0,0,0C-160,81.9-159.9,82-159.9,82.1z"/>
					<path class="st1" d="M-158,82.1c0,0.1-0.1,0.2-0.2,0.2c0,0,0,0,0,0c0,0,0,0,0,0c-0.1,0-0.2-0.1-0.2-0.2c0-0.1,0.1-0.2,0.2-0.2
						c0,0,0,0,0,0c0,0,0,0,0,0C-158.1,81.9-158,82-158,82.1z"/>
				</g>
			</g>
		</g>
		<path class="st8" d="M-158,89l0-3.8l0,0l0,0c0,0-0.2,0-0.4-0.1c-0.1,0-0.1-0.1-0.2-0.2c0,0,0-0.1,0-0.1h0v0h-1.2v0h0
			c0,0,0,0.2-0.2,0.3c-0.2,0.1-0.4,0.1-0.4,0.1l0,0l0,3.3c0,0,0,0.2,0,0.2c0,0,0,0.1-0.1,0.1h-0.4l0,0c0,0,0,0,0,0
			c-0.2,0-1.5,0-2.7,0.1c0,0,0,0,0,0l0,0l-0.5,0.1l0,0c-0.4,0.1-0.8,0.1-1,0.2c-0.2,0.1-0.3,0.2-0.3,0.3c0,0.2,0.2,0.3,0.6,0.5
			c0.2,0.1,0.3,0.1,0.4,0.2c0.1,0,0.1,0.1,0.2,0.1c0,0,0,0,0,0l0,0l0.5,0.1c0,0,0,0,0,0c0.1,0,0.1,0,0.2,0c0.5,0.1,1.2,0.3,2.6,0.4
			c0,0,0,0,0,0l0.4,0c0.1,0,0.1,0,0.2,0c0.4,0,0.7,0,1-0.1c0.3-0.1,0.5-0.2,0.7-0.4c0.1-0.1,0.2-0.3,0.3-0.5
			c0.1-0.1,0.1-0.3,0.2-0.4C-158,89.2-158,89-158,89z M-164.8,90c-0.4-0.2-0.6-0.3-0.6-0.5c0-0.1,0.1-0.2,0.3-0.2
			c0.2-0.1,0.5-0.1,0.9-0.2c0,0,0,0,0,0c0,0,0,0,0,0c0,0.1-0.1,0.3-0.1,0.5c0,0.1,0,0.3,0,0.4c0,0,0,0,0,0c0,0,0,0.1,0,0.1
			C-164.3,90.2-164.5,90.1-164.8,90z M-164.1,90.3c0-0.1-0.1-0.3-0.1-0.6c0-0.3,0.1-0.6,0.1-0.6l0.4-0.1c0,0.1-0.1,0.4-0.1,0.7
			c0,0.1,0,0.3,0,0.5c0,0.1,0,0.2,0,0.2c0,0,0,0,0,0L-164.1,90.3z M-163.5,90.4c-0.1,0-0.1,0-0.2,0c0-0.1-0.1-0.5-0.1-0.7
			c0-0.2,0-0.5,0.1-0.7c1.3-0.1,2.6-0.1,2.7-0.1c0,0.2-0.1,0.6-0.1,1c0,0.4,0.1,0.8,0.1,1C-162.3,90.7-163,90.6-163.5,90.4z
			 M-160.9,90.9c0-0.1-0.1-0.6-0.1-1c0-0.4,0.1-0.9,0.1-1h0.3c0,0.1-0.1,0.6-0.1,1c0,0.2,0,0.5,0,0.7c0,0.1,0,0.2,0,0.3
			c0,0,0,0.1,0,0.1H-160.9z M-158.1,89.5c-0.1,0.2-0.2,0.6-0.5,0.9c-0.4,0.4-1.1,0.6-1.9,0.6l0,0c0-0.1-0.1-0.7-0.1-1
			c0-0.4,0.1-0.9,0.1-1c0,0,0.1-0.1,0.1-0.2c0,0,0-0.2,0-0.2l0,0l0-3.3c0.1,0,0.2,0,0.4-0.1c0.1-0.1,0.1-0.1,0.2-0.2
			c0,0,0-0.1,0-0.1h1.1c0,0,0,0.1,0,0.1c0,0.1,0.1,0.1,0.2,0.2c0.2,0.1,0.3,0.1,0.4,0.1l0,3.8C-158.1,89-158.1,89.2-158.1,89.5z"/>
		<g>
			<path class="st1" d="M-158.1,89.5c-0.1,0.2-0.2,0.6-0.5,0.9c-0.4,0.4-1.1,0.6-1.9,0.6l0,0c0-0.1-0.1-0.7-0.1-1
				c0-0.4,0.1-0.9,0.1-1c0,0,0.1-0.1,0.1-0.2c0,0,0-0.2,0-0.2l0,0l0-3.3c0.1,0,0.2,0,0.4-0.1c0.1-0.1,0.1-0.1,0.2-0.2
				c0,0,0-0.1,0-0.1h1.1c0,0,0,0.1,0,0.1c0,0.1,0.1,0.1,0.2,0.2c0.2,0.1,0.3,0.1,0.4,0.1l0,3.8C-158.1,89-158.1,89.2-158.1,89.5z"/>
			<path class="st1" d="M-160.9,90.9c-1.4-0.1-2-0.3-2.6-0.4c-0.1,0-0.1,0-0.2,0c0-0.1-0.1-0.5-0.1-0.7c0-0.2,0-0.5,0.1-0.7
				c1.3-0.1,2.6-0.1,2.7-0.1c0,0.2-0.1,0.6-0.1,1C-161,90.2-161,90.7-160.9,90.9z"/>
			<path class="st1" d="M-160.6,90.8C-160.6,90.9-160.6,90.9-160.6,90.8l-0.3,0.1c0-0.1-0.1-0.6-0.1-1c0-0.4,0.1-0.9,0.1-1h0.3
				c0,0.1-0.1,0.6-0.1,1c0,0.2,0,0.5,0,0.7C-160.6,90.7-160.6,90.8-160.6,90.8z"/>
			<path class="st1" d="M-163.7,90.4C-163.7,90.4-163.7,90.4-163.7,90.4l-0.4-0.1c0-0.1-0.1-0.3-0.1-0.6c0-0.3,0.1-0.6,0.1-0.6
				l0.4-0.1c0,0.1-0.1,0.4-0.1,0.7c0,0.1,0,0.3,0,0.5C-163.7,90.2-163.7,90.3-163.7,90.4z"/>
			<path class="st1" d="M-164.2,89.2c0,0.1-0.1,0.3-0.1,0.5c0,0.1,0,0.3,0,0.4c0,0,0,0,0,0c0,0,0,0.1,0,0.1c-0.1,0-0.3-0.1-0.6-0.2
				c-0.4-0.2-0.6-0.3-0.6-0.5c0-0.1,0.1-0.2,0.3-0.2C-164.9,89.2-164.6,89.1-164.2,89.2C-164.2,89.1-164.2,89.1-164.2,89.2
				C-164.2,89.1-164.2,89.2-164.2,89.2z"/>
		</g>
		<g>
			<g>
				<path class="st8" d="M-159.9,85.1c-0.1,0-0.3,0.1-0.3,0.2c0,0.1,0.1,0.2,0.3,0.2c0.1,0,0.3-0.1,0.3-0.2
					C-159.6,85.2-159.7,85.1-159.9,85.1z M-159.9,85.5c-0.1,0-0.2-0.1-0.2-0.2c0-0.1,0.1-0.2,0.2-0.2s0.2,0.1,0.2,0.2
					C-159.6,85.4-159.7,85.5-159.9,85.5z"/>
				<path class="st8" d="M-158.6,85.1c-0.1,0-0.3,0.1-0.3,0.2c0,0.1,0.1,0.2,0.3,0.2c0.1,0,0.3-0.1,0.3-0.2
					C-158.3,85.2-158.4,85.1-158.6,85.1z M-158.6,85.5c-0.1,0-0.2-0.1-0.2-0.2c0-0.1,0.1-0.2,0.2-0.2c0.1,0,0.2,0.1,0.2,0.2
					C-158.3,85.4-158.4,85.5-158.6,85.5z"/>
			</g>
			<path class="st8" d="M-158.6,84.8L-158.6,84.8l-0.3,0.3c-0.1-0.1-0.2-0.1-0.3-0.1s-0.2,0-0.3,0.1l-0.3-0.3l0,0l0.3,0.3
				c0,0-0.1,0.1-0.1,0.2c0,0.2,0.2,0.3,0.3,0.3s0.3-0.1,0.3-0.3c0-0.1,0-0.1-0.1-0.2L-158.6,84.8z M-158.9,85.3
				c0,0.1-0.1,0.3-0.3,0.3c-0.2,0-0.3-0.1-0.3-0.3c0-0.1,0.1-0.3,0.3-0.3C-159,85-158.9,85.1-158.9,85.3z"/>
		</g>
		<rect x="-160.4" y="85.5" class="st8" width="2.3" height="0"/>
		<path class="st8" d="M-159.2,85.8L-159.2,85.8c-0.5,0-1.1-0.1-1.2-0.1l0,0C-160.4,85.7-159.7,85.8-159.2,85.8L-159.2,85.8
			c0.4,0,1.1-0.1,1.2-0.1l0,0C-158.1,85.8-158.8,85.8-159.2,85.8z"/>
		<path class="st8" d="M-159.2,86.2L-159.2,86.2c-0.5,0-1.1-0.1-1.2-0.1l0,0C-160.4,86.1-159.7,86.2-159.2,86.2L-159.2,86.2
			c0.4,0,1.1-0.1,1.2-0.1l0,0C-158.1,86.1-158.8,86.2-159.2,86.2z"/>
		<path class="st8" d="M-159.2,86.5C-159.2,86.5-159.2,86.5-159.2,86.5c-0.5,0-1.2-0.1-1.2-0.1l0,0
			C-160.4,86.4-159.7,86.5-159.2,86.5C-159.2,86.5-159.2,86.5-159.2,86.5c0.4,0,1.2-0.1,1.2-0.1l0,0
			C-158.1,86.5-158.8,86.5-159.2,86.5z"/>
		<path class="st8" d="M-159.2,86.9C-159.2,86.9-159.2,86.9-159.2,86.9c-0.5,0-1.2-0.1-1.2-0.1l0,0
			C-160.4,86.8-159.7,86.8-159.2,86.9C-159.2,86.8-159.2,86.8-159.2,86.9c0.4,0,1.2-0.1,1.2-0.1l0,0
			C-158.1,86.8-158.8,86.9-159.2,86.9z"/>
		<path class="st8" d="M-159.2,87.2C-159.2,87.2-159.2,87.2-159.2,87.2c-0.5,0-1.2-0.1-1.2-0.1l0,0
			C-160.4,87.1-159.7,87.2-159.2,87.2C-159.2,87.2-159.2,87.2-159.2,87.2c0.4,0,1.2-0.1,1.2-0.1l0,0
			C-158.1,87.1-158.8,87.2-159.2,87.2z"/>
		<g>
			<g>
				<path class="st9" d="M-159.4,85.9c-0.1,0-0.1,0-0.1,0.1c0,0.1,0.1,0.1,0.1,0.1c0.1,0,0.1,0,0.1-0.1
					C-159.3,86-159.3,85.9-159.4,85.9z M-159.4,86.1C-159.4,86.1-159.4,86.1-159.4,86.1C-159.5,86.1-159.5,86.1-159.4,86.1
					c-0.1-0.1-0.1-0.1,0-0.1c0,0,0,0,0,0s0,0,0,0C-159.4,86-159.3,86-159.4,86.1C-159.3,86.1-159.4,86.1-159.4,86.1
					C-159.4,86.1-159.4,86.1-159.4,86.1z"/>
				<path class="st9" d="M-159.8,85.9c-0.1,0-0.1,0-0.1,0.1c0,0.1,0.1,0.1,0.1,0.1c0.1,0,0.1,0,0.1-0.1
					C-159.7,85.9-159.8,85.9-159.8,85.9z M-159.8,86C-159.8,86-159.8,86-159.8,86C-159.9,86-159.9,86-159.8,86
					c-0.1-0.1-0.1-0.1,0-0.1c0,0,0,0,0,0s0,0,0,0C-159.8,85.9-159.7,85.9-159.8,86C-159.7,86-159.8,86-159.8,86
					C-159.8,86-159.8,86-159.8,86z"/>
				<path class="st9" d="M-160.3,85.8c-0.1,0-0.1,0-0.1,0.1c0,0.1,0.1,0.1,0.1,0.1s0.1,0,0.1-0.1C-160.1,85.9-160.2,85.8-160.3,85.8
					z M-160.3,86C-160.3,86-160.3,86-160.3,86C-160.3,86-160.4,86-160.3,86c-0.1-0.1-0.1-0.1,0-0.1c0,0,0,0,0,0s0,0,0,0
					C-160.2,85.9-160.2,85.9-160.3,86C-160.2,86-160.2,86-160.3,86C-160.3,86-160.3,86-160.3,86z"/>
			</g>
			<g>
				<path class="st9" d="M-159.1,86c0,0.1,0.1,0.1,0.1,0.1s0.1,0,0.1-0.1c0-0.1-0.1-0.1-0.1-0.1S-159.1,86-159.1,86z M-159,86.1
					C-159.1,86.1-159.1,86.1-159,86.1c-0.1-0.1,0-0.1,0-0.1c0,0,0,0,0,0s0,0,0,0C-159,86-158.9,86-159,86.1
					C-158.9,86.1-159,86.1-159,86.1C-159,86.1-159,86.1-159,86.1C-159,86.1-159,86.1-159,86.1z"/>
				<path class="st9" d="M-158.7,86c0,0.1,0.1,0.1,0.1,0.1c0.1,0,0.1,0,0.1-0.1c0-0.1-0.1-0.1-0.1-0.1
					C-158.7,85.9-158.7,85.9-158.7,86z M-158.6,86C-158.6,86-158.7,86-158.6,86c-0.1-0.1,0-0.1,0-0.1c0,0,0,0,0,0s0,0,0,0
					C-158.5,85.9-158.5,85.9-158.6,86C-158.5,86-158.5,86-158.6,86C-158.6,86-158.6,86-158.6,86C-158.6,86-158.6,86-158.6,86z"/>
				<path class="st9" d="M-158.3,85.9c0,0.1,0.1,0.1,0.1,0.1s0.1,0,0.1-0.1c0-0.1-0.1-0.1-0.1-0.1S-158.3,85.9-158.3,85.9z
					 M-158.2,86C-158.2,86-158.3,86-158.2,86c-0.1-0.1,0-0.1,0-0.1c0,0,0,0,0,0s0,0,0,0C-158.1,85.9-158.1,85.9-158.2,86
					C-158.1,86-158.1,86-158.2,86C-158.2,86-158.2,86-158.2,86C-158.2,86-158.2,86-158.2,86z"/>
			</g>
		</g>
		<g>
			<g>
				<path class="st9" d="M-159.4,87c-0.1,0-0.1,0-0.1,0.1c0,0.1,0.1,0.1,0.1,0.1c0.1,0,0.1,0,0.1-0.1C-159.3,87-159.3,87-159.4,87z
					 M-159.4,87.1C-159.4,87.1-159.4,87.1-159.4,87.1C-159.5,87.1-159.5,87.1-159.4,87.1c-0.1-0.1-0.1-0.1,0-0.1c0,0,0,0,0,0
					s0,0,0,0C-159.4,87-159.3,87-159.4,87.1C-159.3,87.1-159.4,87.1-159.4,87.1C-159.4,87.1-159.4,87.1-159.4,87.1z"/>
				<path class="st9" d="M-159.8,86.9c-0.1,0-0.1,0-0.1,0.1c0,0.1,0.1,0.1,0.1,0.1c0.1,0,0.1,0,0.1-0.1
					C-159.7,87-159.8,86.9-159.8,86.9z M-159.8,87.1C-159.8,87.1-159.8,87.1-159.8,87.1C-159.9,87.1-159.9,87.1-159.8,87.1
					c-0.1-0.1-0.1-0.1,0-0.1c0,0,0,0,0,0c0,0,0,0,0,0C-159.8,87-159.7,87-159.8,87.1C-159.7,87.1-159.8,87.1-159.8,87.1
					C-159.8,87.1-159.8,87.1-159.8,87.1z"/>
				<path class="st9" d="M-160.3,86.9c-0.1,0-0.1,0-0.1,0.1c0,0.1,0.1,0.1,0.1,0.1c0.1,0,0.1,0,0.1-0.1
					C-160.1,86.9-160.2,86.9-160.3,86.9z M-160.3,87C-160.3,87-160.3,87-160.3,87C-160.3,87-160.4,87-160.3,87
					c-0.1-0.1-0.1-0.1,0-0.1c0,0,0,0,0,0s0,0,0,0C-160.2,86.9-160.2,86.9-160.3,87C-160.2,87-160.2,87-160.3,87
					C-160.3,87-160.3,87-160.3,87z"/>
			</g>
			<g>
				<path class="st9" d="M-159.1,87.1c0,0.1,0.1,0.1,0.1,0.1s0.1,0,0.1-0.1c0-0.1-0.1-0.1-0.1-0.1S-159.1,87-159.1,87.1z M-159,87.1
					C-159.1,87.1-159.1,87.1-159,87.1c-0.1-0.1,0-0.1,0-0.1c0,0,0,0,0,0c0,0,0,0,0,0C-159,87-158.9,87-159,87.1
					C-158.9,87.1-159,87.1-159,87.1C-159,87.1-159,87.1-159,87.1C-159,87.1-159,87.1-159,87.1z"/>
				<path class="st9" d="M-158.7,87c0,0.1,0.1,0.1,0.1,0.1c0.1,0,0.1,0,0.1-0.1c0-0.1-0.1-0.1-0.1-0.1
					C-158.7,86.9-158.7,87-158.7,87z M-158.6,87.1C-158.7,87.1-158.7,87.1-158.6,87.1c-0.1-0.1,0-0.1,0-0.1c0,0,0,0,0,0c0,0,0,0,0,0
					C-158.5,87-158.5,87-158.6,87.1C-158.5,87.1-158.5,87.1-158.6,87.1C-158.6,87.1-158.6,87.1-158.6,87.1
					C-158.6,87.1-158.6,87.1-158.6,87.1z"/>
				<path class="st9" d="M-158.3,87c0,0.1,0.1,0.1,0.1,0.1c0.1,0,0.1,0,0.1-0.1c0-0.1-0.1-0.1-0.1-0.1
					C-158.3,86.9-158.3,86.9-158.3,87z M-158.2,87C-158.2,87-158.3,87-158.2,87c-0.1-0.1,0-0.1,0-0.1c0,0,0,0,0,0s0,0,0,0
					C-158.1,86.9-158.1,86.9-158.2,87C-158.1,87-158.1,87-158.2,87C-158.2,87-158.2,87-158.2,87C-158.2,87-158.2,87-158.2,87z"/>
			</g>
		</g>
		<path class="st10" d="M-164.2,89.2l-0.6,0.4l0.5,0.5c0,0,0,0,0,0l0,0l-0.6-0.5l-0.3,0.2l0,0l0.3-0.2l-0.3-0.2l0,0l0.3,0.2
			L-164.2,89.2C-164.2,89.1-164.2,89.2-164.2,89.2z"/>
		<g>
			
				<rect x="-163.6" y="89.8" transform="matrix(0.8855 -0.4646 0.4646 0.8855 -60.2768 -65.0863)" class="st8" width="2.9" height="0"/>
			<polygon class="st8" points="-163.7,90.4 -163.7,90.3 -160.9,88.9 -160.9,88.9 			"/>
			<polygon class="st8" points="-163.7,90.2 -163.7,90.2 -161.3,88.9 -161.2,88.9 			"/>
			<polygon class="st8" points="-163.8,90.1 -163.8,90.1 -161.6,88.9 -161.5,88.9 			"/>
			<polygon class="st8" points="-163.8,89.9 -163.8,89.9 -162,88.9 -161.9,88.9 			"/>
			<polygon class="st8" points="-163.8,89.7 -163.8,89.7 -162.3,88.9 -162.2,88.9 			"/>
			<polygon class="st8" points="-163.8,89.5 -163.8,89.5 -162.8,89 -162.7,89 			"/>
			<polygon class="st8" points="-163.7,89.3 -163.7,89.3 -163.2,89 -163.1,89 			"/>
			<polygon class="st8" points="-163.7,89.1 -163.7,89.1 -163.5,89 -163.5,89 			"/>
			<polygon class="st8" points="-163.2,90.5 -163.3,90.5 -161,89.3 -161,89.3 			"/>
			<polygon class="st8" points="-163,90.6 -163,90.6 -161,89.5 -161,89.5 			"/>
			
				<rect x="-162.8" y="90.1" transform="matrix(0.8795 -0.4759 0.4759 0.8795 -62.4107 -66.1674)" class="st8" width="2" height="0"/>
			<polygon class="st8" points="-162.5,90.7 -162.5,90.7 -161,89.9 -161,89.9 			"/>
			<polygon class="st8" points="-162.2,90.7 -162.2,90.7 -161,90.1 -161,90.1 			"/>
			<polygon class="st8" points="-161.9,90.8 -162,90.7 -161,90.2 -161,90.3 			"/>
			<polygon class="st8" points="-161.7,90.8 -161.7,90.8 -161,90.4 -161,90.4 			"/>
			<polygon class="st8" points="-161.3,90.8 -161.4,90.8 -161,90.6 -160.9,90.6 			"/>
			
				<rect x="-161.1" y="90.8" transform="matrix(0.8843 -0.467 0.467 0.8843 -61.0411 -64.6773)" class="st8" width="0.2" height="0"/>
		</g>
		
			<rect x="-159.8" y="90.3" transform="matrix(0.7835 -0.6214 0.6214 0.7835 -90.5091 -79.1974)" class="st8" width="1.8" height="0"/>
		
			<rect x="-159.2" y="90.4" transform="matrix(0.7828 -0.6222 0.6222 0.7828 -90.745 -79.166)" class="st8" width="0.8" height="0"/>
		
			<rect x="-160.2" y="90.2" transform="matrix(0.7765 -0.6301 0.6301 0.7765 -92.3505 -80.0392)" class="st8" width="2.3" height="0"/>
		<rect x="-160.5" y="90" transform="matrix(0.7823 -0.623 0.623 0.7823 -90.7543 -79.5337)" class="st8" width="2.8" height="0"/>
		
			<rect x="-160.8" y="89.9" transform="matrix(0.7796 -0.6263 0.6263 0.7796 -91.4452 -79.9124)" class="st8" width="3.1" height="0"/>
		
			<rect x="-160.9" y="89.8" transform="matrix(0.7778 -0.6285 0.6285 0.7778 -91.8339 -80.1712)" class="st8" width="3.2" height="0"/>
		
			<rect x="-160.9" y="89.6" transform="matrix(0.7789 -0.6271 0.6271 0.7789 -91.4011 -80.1018)" class="st8" width="3.3" height="0"/>
		
			<rect x="-161" y="89.4" transform="matrix(0.7778 -0.6285 0.6285 0.7778 -91.5827 -80.2697)" class="st8" width="3.3" height="0"/>
		<rect x="-161" y="89.2" transform="matrix(0.7766 -0.63 0.63 0.7766 -91.7947 -80.4558)" class="st8" width="3.3" height="0"/>
		<rect x="-161" y="89" transform="matrix(0.7766 -0.63 0.63 0.7766 -91.6693 -80.5067)" class="st8" width="3.3" height="0"/>
		
			<rect x="-161" y="88.8" transform="matrix(0.7761 -0.6306 0.6306 0.7761 -91.6658 -80.6042)" class="st8" width="3.3" height="0"/>
		<rect x="-161" y="88.6" transform="matrix(0.7759 -0.6308 0.6308 0.7759 -91.5839 -80.665)" class="st8" width="3.3" height="0"/>
		
			<rect x="-161" y="88.3" transform="matrix(0.7767 -0.6299 0.6299 0.7767 -91.2338 -80.6218)" class="st8" width="3.3" height="0"/>
		
			<rect x="-160.9" y="88.1" transform="matrix(0.7761 -0.6306 0.6306 0.7761 -91.2664 -80.7355)" class="st8" width="3.2" height="0"/>
		
			<rect x="-160.9" y="88" transform="matrix(0.7863 -0.6179 0.6179 0.7863 -88.4641 -79.6745)" class="st8" width="2.9" height="0"/>
		<polygon class="st8" points="-160.4,88.6 -160.4,88.6 -158.6,87.2 -158.5,87.2 		"/>
		
			<rect x="-160.6" y="87.8" transform="matrix(0.7957 -0.6056 0.6056 0.7957 -85.7732 -78.7332)" class="st8" width="2" height="0"/>
		<polygon class="st8" points="-160.4,88.2 -160.4,88.2 -159.1,87.2 -159,87.2 		"/>
		
			<rect x="-160.5" y="87.6" transform="matrix(0.8166 -0.5772 0.5772 0.8166 -79.8793 -76.2057)" class="st8" width="1.3" height="0"/>
		
			<rect x="-160.5" y="87.5" transform="matrix(0.8326 -0.5539 0.5539 0.8326 -75.2322 -73.9439)" class="st8" width="1.1" height="0"/>
		
			<rect x="-160.5" y="87.4" transform="matrix(0.8327 -0.5537 0.5537 0.8327 -75.175 -74.0072)" class="st8" width="0.8" height="0"/>
		
			<rect x="-160.4" y="87.3" transform="matrix(0.8325 -0.554 0.554 0.8325 -75.2099 -74.1077)" class="st8" width="0.6" height="0"/>
		<rect x="-160.4" y="87.2" transform="matrix(0.8325 -0.554 0.554 0.8325 -75.1773 -74.18)" class="st8" width="0.3" height="0"/>
		<polygon class="st8" points="-160.3,90.9 -160.6,90.7 -160.6,90.7 -160.2,90.9 		"/>
		
			<rect x="-160.3" y="90.3" transform="matrix(0.6191 -0.7853 0.7853 0.6191 -132.2495 -91.3434)" class="st8" width="0" height="0.8"/>
		<polygon class="st8" points="-159.8,90.9 -160.6,90.2 -160.6,90.2 -159.8,90.9 		"/>
		
			<rect x="-160.1" y="89.7" transform="matrix(0.6023 -0.7982 0.7982 0.6023 -135.8392 -91.8263)" class="st8" width="0" height="1.4"/>
		<rect x="-160" y="89.5" transform="matrix(0.616 -0.7878 0.7878 0.616 -132.5644 -91.3613)" class="st8" width="0" height="1.6"/>
		
			<rect x="-159.9" y="89.3" transform="matrix(0.6256 -0.7801 0.7801 0.6256 -130.1943 -90.994)" class="st8" width="0" height="1.8"/>
		<rect x="-159.8" y="89" transform="matrix(0.6282 -0.778 0.778 0.6282 -129.4596 -90.8813)" class="st8" width="0" height="2"/>
		
			<rect x="-159.7" y="88.8" transform="matrix(0.6193 -0.7852 0.7852 0.6193 -131.3816 -91.1897)" class="st8" width="0" height="2.2"/>
		
			<rect x="-159.7" y="88.6" transform="matrix(0.6169 -0.7871 0.7871 0.6169 -131.7852 -91.2655)" class="st8" width="0" height="2.3"/>
		
			<rect x="-159.6" y="88.4" transform="matrix(0.6194 -0.7851 0.7851 0.6194 -131.0763 -91.1756)" class="st8" width="0" height="2.4"/>
		
			<rect x="-159.5" y="88.2" transform="matrix(0.6181 -0.7861 0.7861 0.6181 -131.2303 -91.2023)" class="st8" width="0" height="2.5"/>
		<rect x="-159.4" y="88" transform="matrix(0.6207 -0.784 0.784 0.6207 -130.4938 -91.1147)" class="st8" width="0" height="2.5"/>
		
			<rect x="-159.4" y="87.8" transform="matrix(0.6218 -0.7831 0.7831 0.6218 -130.0869 -91.0948)" class="st8" width="0" height="2.6"/>
		
			<rect x="-159.3" y="87.6" transform="matrix(0.619 -0.7854 0.7854 0.619 -130.5841 -91.2256)" class="st8" width="0" height="2.7"/>
		
			<rect x="-159.3" y="87.4" transform="matrix(0.6208 -0.7839 0.7839 0.6208 -130.0206 -91.2116)" class="st8" width="0" height="2.8"/>
		
			<rect x="-159.3" y="87.2" transform="matrix(0.6251 -0.7806 0.7806 0.6251 -128.9045 -91.0892)" class="st8" width="0" height="2.9"/>
		
			<rect x="-159.3" y="86.9" transform="matrix(0.6253 -0.7804 0.7804 0.6253 -128.6823 -91.1395)" class="st8" width="0" height="3"/>
		<rect x="-159.2" y="86.7" transform="matrix(0.624 -0.7814 0.7814 0.624 -128.8318 -91.2459)" class="st8" width="0" height="3"/>
		
			<rect x="-159.2" y="86.6" transform="matrix(0.6263 -0.7796 0.7796 0.6263 -128.1469 -91.2095)" class="st8" width="0" height="3"/>
		
			<rect x="-159.1" y="86.7" transform="matrix(0.6301 -0.7765 0.7765 0.6301 -127.1517 -90.9675)" class="st8" width="0" height="2.6"/>
		
			<rect x="-159" y="86.7" transform="matrix(0.6185 -0.7858 0.7858 0.6185 -129.6932 -91.3686)" class="st8" width="0" height="2.3"/>
		
			<rect x="-158.8" y="86.8" transform="matrix(0.6118 -0.791 0.791 0.6118 -131.0762 -91.5473)" class="st8" width="0" height="1.9"/>
		
			<rect x="-158.7" y="86.9" transform="matrix(0.5967 -0.8024 0.8024 0.5967 -134.3569 -91.9949)" class="st8" width="0" height="1.6"/>
		
			<rect x="-158.6" y="86.9" transform="matrix(0.577 -0.8167 0.8167 0.577 -138.5997 -92.4805)" class="st8" width="0" height="1.3"/>
		<rect x="-158.5" y="87" transform="matrix(0.5513 -0.8343 0.8343 0.5513 -144.0758 -92.9684)" class="st8" width="0" height="1"/>
		
			<rect x="-158.4" y="87" transform="matrix(0.5535 -0.8329 0.8329 0.5535 -143.499 -92.8769)" class="st8" width="0" height="0.8"/>
		
			<rect x="-158.3" y="87" transform="matrix(0.5574 -0.8302 0.8302 0.5574 -142.5294 -92.7564)" class="st8" width="0" height="0.5"/>
		
			<rect x="-158.2" y="87.1" transform="matrix(0.5197 -0.8543 0.8543 0.5197 -150.4972 -93.2449)" class="st8" width="0" height="0.3"/>
		<g>
			<g>
				<g>
					<rect x="-155.7" y="86.8" class="st1" width="3" height="1.6"/>
					<path class="st9" d="M-155.7,86.8v1.7h3.1v-1.7H-155.7z M-152.7,88.5h-3v-1.6h3V88.5z"/>
					<path class="st9" d="M-155.6,86.9v1.5h2.9v-1.5H-155.6z M-152.8,88.4h-2.8v-1.5h2.8V88.4z"/>
					<g>
						<path class="st9" d="M-152.9,87.2L-152.9,87.2l-0.1-0.1l0.1-0.1l0,0l-0.1,0.1l-0.1,0l0,0l0,0l0,0l0,0l0,0l0,0l-0.1,0l-0.1,0
							l0,0l0,0l0,0l0,0l0,0l0,0l-0.1,0l-0.1,0l0,0l0,0l0,0l0,0l0,0l0,0l-0.1,0l-0.1,0l0,0l0,0l0,0l0,0l0,0l0,0l-0.1,0l-0.1,0l0,0
							l0,0l0,0l0,0l0,0l0,0l-0.1,0l-0.1,0l0,0l0,0l0,0l0,0l0,0l0,0l-0.1,0l-0.1,0l0,0l0,0l0,0l0,0l0,0l0,0l-0.1,0l-0.1,0l0,0l0,0
							l0,0l0,0l0,0l0,0l-0.1,0l-0.1,0l0,0l0,0l0,0l0,0l0,0l0,0l-0.1,0l-0.1,0l0,0l0,0l0,0l0,0l0,0l0,0l-0.1,0l-0.1,0l0,0l0,0l0,0
							l0,0l0,0l0,0l-0.1,0l-0.1,0l0,0l0,0l0,0l0,0l0,0l0,0l-0.1,0l-0.1,0l0,0l0,0l0,0l0,0l0,0l0,0l-0.1,0l-0.1,0l0,0l0,0l0,0l0,0
							l0,0l0,0l-0.1,0l-0.1,0l0,0l0,0l0,0l0,0l0,0l0,0l-0.1,0l-0.1-0.1l0,0l0.1,0.1l-0.1,0.1l0,0l0.1-0.1l0.1,0l0,0l0,0l0,0l0,0l0,0
							l0,0l0.1,0l0.1,0l0,0l0,0l0,0l0,0l0,0l0,0l0.1,0l0.1,0l0,0l0,0l0,0l0,0l0,0l0,0l0.1,0l0.1,0l0,0l0,0l0,0l0,0l0,0l0,0l0.1,0
							l0.1,0l0,0l0,0l0,0l0,0l0,0l0,0l0.1,0l0.1,0l0,0l0,0l0,0l0,0l0,0l0,0l0.1,0l0.1,0l0,0l0,0l0,0l0,0l0,0l0,0l0.1,0l0.1,0l0,0
							l0,0l0,0l0,0l0,0l0,0l0.1,0l0.1,0l0,0l0,0l0,0l0,0l0,0l0,0l0.1,0l0.1,0l0,0l0,0l0,0l0,0l0,0l0,0l0.1,0l0.1,0l0,0l0,0l0,0l0,0
							l0,0l0,0l0.1,0l0.1,0l0,0l0,0l0,0l0,0l0,0l0,0l0.1,0l0.1,0l0,0l0,0l0,0l0,0l0,0l0,0l0.1,0l0.1,0l0,0l0,0l0,0l0,0l0,0l0,0
							l0.1,0l0.1,0l0,0l0,0l0,0l0,0l0,0l0,0l0.1,0L-152.9,87.2z M-155.2,87.1L-155.2,87.1L-155.2,87.1L-155.2,87.1L-155.2,87.1z
							 M-155.1,87.1L-155.1,87.1L-155.1,87.1L-155.1,87.1L-155.1,87.1z M-154.9,87.1L-154.9,87.1L-154.9,87.1L-154.9,87.1
							L-154.9,87.1z M-154.8,87.1L-154.8,87.1L-154.8,87.1L-154.8,87.1L-154.8,87.1z M-154.6,87.1L-154.6,87.1L-154.6,87.1
							L-154.6,87.1L-154.6,87.1z M-154.5,87.1L-154.5,87.1L-154.5,87.1L-154.5,87.1L-154.5,87.1z M-154.3,87.1L-154.3,87.1
							L-154.3,87.1L-154.3,87.1L-154.3,87.1z M-154.2,87.1L-154.2,87.1L-154.2,87.1L-154.2,87.1L-154.2,87.1z M-154,87.1L-154,87.1
							L-154,87.1L-154,87.1L-154,87.1z M-153.9,87.1L-153.9,87.1L-153.9,87.1L-153.9,87.1L-153.9,87.1z M-153.7,87.1L-153.7,87.1
							L-153.7,87.1L-153.7,87.1L-153.7,87.1z M-153.5,87.1L-153.5,87.1L-153.5,87.1L-153.5,87.1L-153.5,87.1z M-153.4,87.1
							L-153.4,87.1L-153.4,87.1L-153.4,87.1L-153.4,87.1z M-153.2,87.1L-153.2,87.1L-153.2,87.1L-153.2,87.1L-153.2,87.1z
							 M-153.1,87.1L-153.1,87.1L-153.1,87.1L-153.1,87.1L-153.1,87.1z"/>
						<path class="st9" d="M-152.9,88.4L-152.9,88.4l-0.1-0.1l0.1-0.1l0,0l-0.1,0.1l-0.1,0l0,0l0,0l0,0l0,0l0,0l0,0l-0.1,0l-0.1,0
							l0,0l0,0l0,0l0,0l0,0l0,0l-0.1,0l-0.1,0l0,0l0,0l0,0l0,0l0,0l0,0l-0.1,0l-0.1,0l0,0l0,0l0,0l0,0l0,0l0,0l-0.1,0l-0.1,0l0,0
							l0,0l0,0l0,0l0,0l0,0l-0.1,0l-0.1,0l0,0l0,0l0,0l0,0l0,0l0,0l-0.1,0l-0.1,0l0,0l0,0l0,0l0,0l0,0l0,0l-0.1,0l-0.1,0l0,0l0,0
							l0,0l0,0l0,0l0,0l-0.1,0l-0.1,0l0,0l0,0l0,0l0,0l0,0l0,0l-0.1,0l-0.1,0l0,0l0,0l0,0l0,0l0,0l0,0l-0.1,0l-0.1,0l0,0l0,0l0,0
							l0,0l0,0l0,0l-0.1,0l-0.1,0l0,0l0,0l0,0l0,0l0,0l0,0l-0.1,0l-0.1,0l0,0l0,0l0,0l0,0l0,0l0,0l-0.1,0l-0.1,0l0,0l0,0l0,0l0,0
							l0,0l0,0l-0.1,0l-0.1,0l0,0l0,0l0,0l0,0l0,0l0,0l-0.1,0l-0.1-0.1l0,0l0.1,0.1l-0.1,0.1l0,0l0.1-0.1l0.1,0l0,0l0,0l0,0l0,0l0,0
							l0,0l0.1,0l0.1,0l0,0l0,0l0,0l0,0l0,0l0,0l0.1,0l0.1,0l0,0l0,0l0,0l0,0l0,0l0,0l0.1,0l0.1,0l0,0l0,0l0,0l0,0l0,0l0,0l0.1,0
							l0.1,0l0,0l0,0l0,0l0,0l0,0l0,0l0.1,0l0.1,0l0,0l0,0l0,0l0,0l0,0l0,0l0.1,0l0.1,0l0,0l0,0l0,0l0,0l0,0l0,0l0.1,0l0.1,0l0,0
							l0,0l0,0l0,0l0,0l0,0l0.1,0l0.1,0l0,0l0,0l0,0l0,0l0,0l0,0l0.1,0l0.1,0l0,0l0,0l0,0l0,0l0,0l0,0l0.1,0l0.1,0l0,0l0,0l0,0l0,0
							l0,0l0,0l0.1,0l0.1,0l0,0l0,0l0,0l0,0l0,0l0,0l0.1,0l0.1,0l0,0l0,0l0,0l0,0l0,0l0,0l0.1,0l0.1,0l0,0l0,0l0,0l0,0l0,0l0,0
							l0.1,0l0.1,0l0,0l0,0l0,0l0,0l0,0l0,0l0.1,0L-152.9,88.4z M-155.2,88.3L-155.2,88.3L-155.2,88.3L-155.2,88.3L-155.2,88.3z
							 M-155.1,88.3L-155.1,88.3L-155.1,88.3L-155.1,88.3L-155.1,88.3z M-154.9,88.3L-154.9,88.3L-154.9,88.3L-154.9,88.3
							L-154.9,88.3z M-154.8,88.3L-154.8,88.3L-154.8,88.3L-154.8,88.3L-154.8,88.3z M-154.6,88.3L-154.6,88.3L-154.6,88.3
							L-154.6,88.3L-154.6,88.3z M-154.5,88.3L-154.5,88.3L-154.5,88.3L-154.5,88.3L-154.5,88.3z M-154.3,88.3L-154.3,88.3
							L-154.3,88.3L-154.3,88.3L-154.3,88.3z M-154.2,88.3L-154.2,88.3L-154.2,88.3L-154.2,88.3L-154.2,88.3z M-154,88.3L-154,88.3
							L-154,88.3L-154,88.3L-154,88.3z M-153.9,88.3L-153.9,88.3L-153.9,88.3L-153.9,88.3L-153.9,88.3z M-153.7,88.3L-153.7,88.3
							L-153.7,88.3L-153.7,88.3L-153.7,88.3z M-153.5,88.3L-153.5,88.3L-153.5,88.3L-153.5,88.3L-153.5,88.3z M-153.4,88.3
							L-153.4,88.3L-153.4,88.3L-153.4,88.3L-153.4,88.3z M-153.2,88.3L-153.2,88.3L-153.2,88.3L-153.2,88.3L-153.2,88.3z
							 M-153.1,88.3L-153.1,88.3L-153.1,88.3L-153.1,88.3L-153.1,88.3z"/>
					</g>
					<g>
						<path class="st9" d="M-153.6,87.7v-0.2h-0.1c0,0,0,0,0-0.1l0.1-0.1l-0.1-0.1l-0.1,0.1c0,0-0.1,0-0.1,0v-0.1h-0.2v0.1
							c0,0-0.1,0-0.1,0l-0.1-0.1l-0.1,0.1l0.1,0.1c0,0,0,0,0,0.1h-0.1v0.2h0.1c0,0,0,0,0,0.1l-0.1,0.1l0.1,0.1l0.1-0.1
							c0,0,0.1,0,0.1,0V88h0.2v-0.1c0,0,0.1,0,0.1,0l0.1,0.1l0.1-0.1l-0.1-0.1c0,0,0,0,0-0.1H-153.6z M-153.8,87.7
							C-153.8,87.7-153.8,87.8-153.8,87.7L-153.8,87.7l0,0.2l-0.1,0.1l-0.1-0.1l0,0c0,0-0.1,0-0.1,0l0,0V88h-0.1v-0.1l0,0
							c-0.1,0-0.1,0-0.1,0l0,0l-0.1,0.1l-0.1-0.1l0.1-0.1l0,0c0,0,0-0.1-0.1-0.1l0,0h-0.1v-0.1h0.1l0,0c0,0,0-0.1,0.1-0.1l0,0
							l-0.1-0.1l0.1-0.1l0.1,0.1l0,0c0,0,0.1,0,0.1,0l0,0v-0.1h0.1v0.1l0,0c0.1,0,0.1,0,0.1,0l0,0l0.1-0.1l0.1,0.1l-0.1,0.1l0,0
							c0,0,0,0.1,0.1,0.1l0,0h0.1v0.1L-153.8,87.7L-153.8,87.7z"/>
						<path class="st9" d="M-154.2,87.5c-0.1,0-0.2,0.1-0.2,0.1c0,0.1,0.1,0.1,0.2,0.1s0.2-0.1,0.2-0.1
							C-154,87.6-154.1,87.5-154.2,87.5z M-154.2,87.8c-0.1,0-0.1,0-0.1-0.1c0-0.1,0.1-0.1,0.1-0.1c0.1,0,0.1,0,0.1,0.1
							C-154,87.7-154.1,87.8-154.2,87.8z"/>
					</g>
				</g>
				<g>
					<rect x="-165.8" y="86.8" class="st1" width="3" height="1.6"/>
					<path class="st9" d="M-165.8,86.8v1.7h3.1v-1.7H-165.8z M-165.8,86.8h3v1.6h-3V86.8z"/>
					<path class="st9" d="M-165.7,86.9v1.5h2.9v-1.5H-165.7z M-165.7,86.9h2.8v1.5h-2.8V86.9z"/>
					<g>
						<path class="st9" d="M-165.4,87.1L-165.4,87.1L-165.4,87.1L-165.4,87.1L-165.4,87.1l0.1,0.1l0,0l0,0l0.1,0l0.1,0l0,0l0,0l0,0
							l0,0l0,0l0,0l0.1,0l0.1,0l0,0l0,0l0,0l0,0l0,0l0,0l0.1,0l0.1,0l0,0l0,0l0,0l0,0l0,0l0,0l0.1,0l0.1,0l0,0l0,0l0,0l0,0l0,0l0,0
							l0.1,0l0.1,0l0,0l0,0l0,0l0,0l0,0l0,0l0.1,0l0.1,0l0,0l0,0l0,0l0,0l0,0l0,0l0.1,0l0.1,0l0,0l0,0l0,0l0,0l0,0l0,0l0.1,0l0.1,0
							l0,0l0,0l0,0l0,0l0,0l0,0l0.1,0l0.1,0l0,0l0,0l0,0l0,0l0,0l0,0l0.1,0l0.1,0l0,0l0,0l0,0l0,0l0,0l0,0l0.1,0l0.1,0l0,0l0,0l0,0
							l0,0l0,0l0,0l0.1,0l0.1,0l0,0l0,0l0,0l0,0l0,0l0,0l0.1,0l0.1,0l0,0l0,0l0,0l0,0l0,0l0,0l0.1,0l0.1,0l0,0l0,0l0,0l0,0l0,0l0,0
							l0.1,0l0.1,0.1l0,0l-0.1-0.1l0.1-0.1l0,0l-0.1,0.1l-0.1,0l0,0l0,0l0,0l0,0l0,0l0,0l-0.1,0l-0.1,0l0,0l0,0l0,0l0,0l0,0l0,0
							l-0.1,0l-0.1,0l0,0l0,0l0,0l0,0l0,0l0,0l-0.1,0l-0.1,0l0,0l0,0l0,0l0,0l0,0l0,0l-0.1,0l-0.1,0l0,0l0,0l0,0l0,0l0,0l0,0l-0.1,0
							l-0.1,0l0,0l0,0l0,0l0,0l0,0l0,0l-0.1,0l-0.1,0l0,0l0,0l0,0l0,0l0,0l0,0l-0.1,0l-0.1,0l0,0l0,0l0,0l0,0l0,0l0,0l-0.1,0l-0.1,0
							l0,0l0,0l0,0l0,0l0,0l0,0l-0.1,0l-0.1,0l0,0l0,0l0,0l0,0l0,0l0,0l-0.1,0l-0.1,0l0,0l0,0l0,0l0,0l0,0l0,0l-0.1,0l-0.1,0l0,0
							l0,0l0,0l0,0l0,0l0,0l-0.1,0l-0.1,0l0,0l0,0l0,0l0,0l0,0l0,0l-0.1,0l-0.1,0l0,0l0,0l0,0l0,0l0,0l0,0l-0.1,0l-0.1,0l0,0l0,0
							l0,0l0,0l0,0L-165.4,87.1L-165.4,87.1l-0.1-0.1l0,0L-165.4,87.1l-0.1,0.1l0,0L-165.4,87.1z M-163.2,87.1L-163.2,87.1h0.1
							H-163.2L-163.2,87.1z M-163.4,87.1L-163.4,87.1h0.1H-163.4L-163.4,87.1z M-163.5,87.1L-163.5,87.1h0.1H-163.5L-163.5,87.1z
							 M-163.7,87.1L-163.7,87.1h0.1H-163.7L-163.7,87.1z M-163.9,87.1L-163.9,87.1h0.1H-163.9L-163.9,87.1z M-164,87.1L-164,87.1
							h0.1H-164L-164,87.1z M-164.2,87.1L-164.2,87.1h0.1H-164.2L-164.2,87.1z M-164.3,87.1L-164.3,87.1h0.1H-164.3L-164.3,87.1z
							 M-164.5,87.1L-164.5,87.1h0.1H-164.5L-164.5,87.1z M-164.6,87.1L-164.6,87.1h0.1H-164.6L-164.6,87.1z M-164.8,87.1
							L-164.8,87.1h0.1H-164.8L-164.8,87.1z M-164.9,87.1L-164.9,87.1h0.1H-164.9L-164.9,87.1z M-165.1,87.1L-165.1,87.1h0.1H-165.1
							L-165.1,87.1z M-165.2,87.1L-165.2,87.1h0.1H-165.2L-165.2,87.1z M-165.4,87.1L-165.4,87.1h0.1H-165.4L-165.4,87.1z"/>
						<path class="st9" d="M-165.4,88.3L-165.4,88.3L-165.4,88.3L-165.4,88.3L-165.4,88.3l0.1,0.1l0,0l0,0l0.1,0l0.1,0l0,0l0,0l0,0
							l0,0l0,0l0,0l0.1,0l0.1,0l0,0l0,0l0,0l0,0l0,0l0,0l0.1,0l0.1,0l0,0l0,0l0,0l0,0l0,0l0,0l0.1,0l0.1,0l0,0l0,0l0,0l0,0l0,0l0,0
							l0.1,0l0.1,0l0,0l0,0l0,0l0,0l0,0l0,0l0.1,0l0.1,0l0,0l0,0l0,0l0,0l0,0l0,0l0.1,0l0.1,0l0,0l0,0l0,0l0,0l0,0l0,0l0.1,0l0.1,0
							l0,0l0,0l0,0l0,0l0,0l0,0l0.1,0l0.1,0l0,0l0,0l0,0l0,0l0,0l0,0l0.1,0l0.1,0l0,0l0,0l0,0l0,0l0,0l0,0l0.1,0l0.1,0l0,0l0,0l0,0
							l0,0l0,0l0,0l0.1,0l0.1,0l0,0l0,0l0,0l0,0l0,0l0,0l0.1,0l0.1,0l0,0l0,0l0,0l0,0l0,0l0,0l0.1,0l0.1,0l0,0l0,0l0,0l0,0l0,0l0,0
							l0.1,0l0.1,0.1l0,0l-0.1-0.1l0.1-0.1l0,0l-0.1,0.1l-0.1,0l0,0l0,0l0,0l0,0l0,0l0,0l-0.1,0l-0.1,0l0,0l0,0l0,0l0,0l0,0l0,0
							l-0.1,0l-0.1,0l0,0l0,0l0,0l0,0l0,0l0,0l-0.1,0l-0.1,0l0,0l0,0l0,0l0,0l0,0l0,0l-0.1,0l-0.1,0l0,0l0,0l0,0l0,0l0,0l0,0l-0.1,0
							l-0.1,0l0,0l0,0l0,0l0,0l0,0l0,0l-0.1,0l-0.1,0l0,0l0,0l0,0l0,0l0,0l0,0l-0.1,0l-0.1,0l0,0l0,0l0,0l0,0l0,0l0,0l-0.1,0l-0.1,0
							l0,0l0,0l0,0l0,0l0,0l0,0l-0.1,0l-0.1,0l0,0l0,0l0,0l0,0l0,0l0,0l-0.1,0l-0.1,0l0,0l0,0l0,0l0,0l0,0l0,0l-0.1,0l-0.1,0l0,0
							l0,0l0,0l0,0l0,0l0,0l-0.1,0l-0.1,0l0,0l0,0l0,0l0,0l0,0l0,0l-0.1,0l-0.1,0l0,0l0,0l0,0l0,0l0,0l0,0l-0.1,0l-0.1,0l0,0l0,0
							l0,0l0,0l0,0L-165.4,88.3L-165.4,88.3l-0.1-0.1l0,0L-165.4,88.3l-0.1,0.1l0,0L-165.4,88.3z M-163.2,88.3L-163.2,88.3h0.1
							H-163.2L-163.2,88.3z M-163.4,88.3L-163.4,88.3h0.1H-163.4L-163.4,88.3z M-163.5,88.3L-163.5,88.3h0.1H-163.5L-163.5,88.3z
							 M-163.7,88.3L-163.7,88.3h0.1H-163.7L-163.7,88.3z M-163.9,88.3L-163.9,88.3h0.1H-163.9L-163.9,88.3z M-164,88.3L-164,88.3
							h0.1H-164L-164,88.3z M-164.2,88.3L-164.2,88.3h0.1H-164.2L-164.2,88.3z M-164.3,88.3L-164.3,88.3h0.1H-164.3L-164.3,88.3z
							 M-164.5,88.3L-164.5,88.3h0.1H-164.5L-164.5,88.3z M-164.6,88.3L-164.6,88.3h0.1H-164.6L-164.6,88.3z M-164.8,88.3
							L-164.8,88.3h0.1H-164.8L-164.8,88.3z M-164.9,88.3L-164.9,88.3h0.1H-164.9L-164.9,88.3z M-165.1,88.3L-165.1,88.3h0.1H-165.1
							L-165.1,88.3z M-165.2,88.3L-165.2,88.3h0.1H-165.2L-165.2,88.3z M-165.4,88.3L-165.4,88.3h0.1H-165.4L-165.4,88.3z"/>
					</g>
					<g>
						<path class="st9" d="M-164.6,87.7C-164.6,87.8-164.6,87.8-164.6,87.7l-0.1,0.1l0.1,0.1l0.1-0.1c0,0,0.1,0,0.1,0V88h0.2v-0.1
							c0,0,0.1,0,0.1,0l0.1,0.1l0.1-0.1l-0.1-0.1c0,0,0,0,0-0.1h0.1v-0.2h-0.1c0,0,0,0,0-0.1l0.1-0.1l-0.1-0.1l-0.1,0.1
							c0,0-0.1,0-0.1,0v-0.1h-0.2v0.1c0,0-0.1,0-0.1,0l-0.1-0.1l-0.1,0.1l0.1,0.1c0,0,0,0,0,0.1h-0.1v0.2H-164.6z M-164.6,87.7h-0.1
							v-0.1h0.1l0,0c0,0,0-0.1,0.1-0.1l0,0l-0.1-0.1l0.1-0.1l0.1,0.1l0,0c0,0,0.1,0,0.1,0l0,0v-0.1h0.1v0.1l0,0c0.1,0,0.1,0,0.1,0
							l0,0l0.1-0.1l0.1,0.1l-0.1,0.1l0,0c0,0,0,0.1,0.1,0.1l0,0h0.1v0.1h-0.1l0,0c0,0,0,0.1-0.1,0.1l0,0l0.1,0.1l-0.1,0.1l-0.1-0.1
							l0,0c0,0-0.1,0-0.1,0l0,0V88h-0.1v-0.1l0,0c-0.1,0-0.1,0-0.1,0l0,0l-0.1,0.1l-0.1-0.1l0.1-0.1L-164.6,87.7
							C-164.6,87.8-164.6,87.7-164.6,87.7L-164.6,87.7z"/>
						<path class="st9" d="M-164.4,87.6c0,0.1,0.1,0.1,0.2,0.1s0.2-0.1,0.2-0.1c0-0.1-0.1-0.1-0.2-0.1S-164.4,87.6-164.4,87.6z
							 M-164.4,87.6c0-0.1,0.1-0.1,0.1-0.1c0.1,0,0.1,0,0.1,0.1c0,0.1-0.1,0.1-0.1,0.1C-164.3,87.8-164.4,87.7-164.4,87.6z"/>
					</g>
				</g>
			</g>
			<g>
				<g>
					<path class="st9" d="M-156.1,87c-0.1-0.1-0.3-0.1-0.5-0.1c-0.3,0-0.4,0-0.5,0.1c-0.1,0.1-0.2,0.3-0.2,0.6
						c0,0.3,0.1,0.4,0.2,0.5c0.1,0.1,0.3,0.1,0.5,0.1c0.2,0,0.4,0,0.5-0.1c0.1-0.1,0.2-0.3,0.2-0.5C-155.9,87.3-156,87.1-156.1,87z
						 M-156.7,88.2c-0.2,0-0.4,0-0.5-0.1c-0.1-0.1-0.2-0.3-0.2-0.5c0-0.3,0.1-0.4,0.2-0.5c0.1-0.1,0.3-0.1,0.5-0.1
						c0.2,0,0.4,0,0.5,0.1c0.1,0.1,0.2,0.3,0.2,0.5C-156,88-156.2,88.2-156.7,88.2z"/>
					<path class="st1" d="M-156.2,87c-0.1-0.1-0.3-0.1-0.5-0.1c-0.2,0-0.4,0-0.5,0.1c-0.1,0.1-0.2,0.3-0.2,0.5
						c0,0.2,0.1,0.4,0.2,0.5c0.1,0.1,0.3,0.1,0.5,0.1c0.5,0,0.7-0.2,0.7-0.6C-156,87.3-156,87.1-156.2,87z M-156.3,87.9
						c-0.1,0.1-0.2,0.1-0.3,0.1c-0.1,0-0.3,0-0.3-0.1c-0.1-0.1-0.1-0.2-0.1-0.4c0-0.2,0-0.3,0.1-0.4c0.1-0.1,0.2-0.1,0.3-0.1
						c0.1,0,0.3,0,0.3,0.1c0.1,0.1,0.1,0.2,0.1,0.4C-156.2,87.7-156.2,87.8-156.3,87.9z"/>
					<path class="st9" d="M-156.3,87.2c-0.1-0.1-0.2-0.1-0.3-0.1c-0.1,0-0.3,0-0.3,0.1c-0.1,0.1-0.1,0.2-0.1,0.4
						c0,0.2,0,0.3,0.1,0.4c0.1,0.1,0.2,0.1,0.3,0.1c0.1,0,0.3,0,0.3-0.1c0.1-0.1,0.1-0.2,0.1-0.4C-156.2,87.4-156.2,87.2-156.3,87.2
						z M-156.7,88c-0.2,0-0.5-0.1-0.5-0.5c0-0.3,0.2-0.5,0.5-0.5c0.3,0,0.5,0.2,0.5,0.5C-156.2,87.8-156.4,88-156.7,88z"/>
				</g>
				<path class="st9" d="M-156.4,87.2v0.7h1v-0.7H-156.4z M-155.4,87.9h-1v-0.6h1V87.9z"/>
				<rect x="-156.4" y="87.2" class="st1" width="1" height="0.6"/>
				<g>
					<path class="st9" d="M-158,87.3c-0.1-0.1-0.1-0.1-0.2-0.1c-0.1,0-0.2,0-0.2,0.1c-0.1,0.1-0.1,0.2-0.1,0.3c0,0.1,0,0.2,0.1,0.3
						c0.1,0.1,0.1,0.1,0.2,0.1c0.1,0,0.2,0,0.2-0.1c0.1-0.1,0.1-0.2,0.1-0.3C-157.9,87.4-157.9,87.3-158,87.3z M-158.2,87.9
						c-0.1,0-0.3-0.2-0.3-0.4c0-0.2,0.1-0.4,0.3-0.4c0.1,0,0.3,0.2,0.3,0.4C-157.9,87.7-158,87.9-158.2,87.9z"/>
					<path class="st9" d="M-158.2,87c-0.3,0-0.5,0.2-0.5,0.5c0,0.3,0.2,0.5,0.5,0.5c0.3,0,0.5-0.2,0.5-0.5
						C-157.7,87.2-157.9,87-158.2,87z M-158.2,88.1c-0.2,0-0.4-0.2-0.4-0.5c0-0.3,0.2-0.5,0.4-0.5c0.2,0,0.4,0.2,0.4,0.5
						C-157.7,87.8-157.9,88.1-158.2,88.1z"/>
					<path class="st1" d="M-158.2,87c-0.2,0-0.4,0.2-0.4,0.5c0,0.3,0.2,0.5,0.4,0.5c0.2,0,0.4-0.2,0.4-0.5
						C-157.7,87.3-157.9,87-158.2,87z M-158,87.8c-0.1,0.1-0.1,0.1-0.2,0.1c-0.1,0-0.2,0-0.2-0.1c-0.1-0.1-0.1-0.2-0.1-0.3
						c0-0.1,0-0.2,0.1-0.3c0.1-0.1,0.1-0.1,0.2-0.1c0.1,0,0.2,0,0.2,0.1c0.1,0.1,0.1,0.2,0.1,0.3C-157.9,87.6-157.9,87.7-158,87.8z"
						/>
				</g>
				<g>
					<path class="st9" d="M-158,87.3v0.4h1v-0.4H-158z M-157.1,87.7h-0.9v-0.4h0.9V87.7z"/>
					<rect x="-158" y="87.4" class="st1" width="0.9" height="0.4"/>
				</g>
				<g>
					<path class="st9" d="M-158.9,87.3L-158.9,87.3l-1.5,0.1v0.4h1.5v0.1h0.6v-0.6H-158.9z M-158.9,87.7h-1.5v-0.4h1.5V87.7z
						 M-158.3,87.8h-0.5v-0.5h0.5V87.8z"/>
					<rect x="-158.8" y="87.3" class="st1" width="0.5" height="0.5"/>
					<rect x="-160.4" y="87.4" class="st1" width="1.5" height="0.4"/>
				</g>
				<g>
					<path class="st9" d="M-159.9,87.1c-0.1-0.1-0.2-0.1-0.3-0.1c-0.1,0-0.2,0-0.3,0.1c-0.1,0.1-0.1,0.3-0.1,0.5
						c0,0.2,0,0.4,0.1,0.5c0.1,0.1,0.2,0.1,0.3,0.1c0.1,0,0.2,0,0.3-0.1c0.1-0.1,0.1-0.3,0.1-0.5C-159.8,87.3-159.8,87.2-159.9,87.1
						z M-160.2,88.1c-0.1,0-0.2,0-0.3-0.1c-0.1-0.1-0.1-0.2-0.1-0.5c0-0.2,0-0.4,0.1-0.5c0.1-0.1,0.1-0.1,0.3-0.1
						c0.1,0,0.2,0,0.3,0.1c0.1,0.1,0.1,0.2,0.1,0.5C-159.8,87.9-159.9,88.1-160.2,88.1z"/>
					<path class="st1" d="M-159.9,87.1c-0.1-0.1-0.1-0.1-0.3-0.1c-0.1,0-0.2,0-0.3,0.1c-0.1,0.1-0.1,0.2-0.1,0.5
						c0,0.2,0,0.4,0.1,0.5c0.1,0.1,0.1,0.1,0.3,0.1c0.3,0,0.4-0.2,0.4-0.6C-159.8,87.3-159.8,87.2-159.9,87.1z M-160,87.9
						c0,0.1-0.1,0.1-0.2,0.1c-0.1,0-0.1,0-0.2-0.1c0-0.1-0.1-0.2-0.1-0.3c0-0.2,0-0.3,0.1-0.3c0-0.1,0.1-0.1,0.2-0.1
						c0.1,0,0.1,0,0.2,0.1c0,0.1,0.1,0.2,0.1,0.3C-159.9,87.7-159.9,87.8-160,87.9z"/>
					<path class="st9" d="M-160,87.2c0-0.1-0.1-0.1-0.2-0.1c-0.1,0-0.1,0-0.2,0.1c0,0.1-0.1,0.2-0.1,0.3c0,0.1,0,0.3,0.1,0.3
						c0,0.1,0.1,0.1,0.2,0.1c0.1,0,0.1,0,0.2-0.1c0-0.1,0.1-0.2,0.1-0.3C-159.9,87.4-159.9,87.3-160,87.2z M-160.2,88
						c-0.1,0-0.2-0.1-0.2-0.4c0-0.3,0.1-0.4,0.2-0.4c0.1,0,0.2,0.2,0.2,0.4C-159.9,87.8-160,88-160.2,88z"/>
				</g>
				<g>
					<path class="st9" d="M-160.6,87.3c0-0.1-0.1-0.1-0.2-0.1s-0.1,0-0.2,0.1c0,0.1-0.1,0.2-0.1,0.2c0,0.1,0,0.2,0.1,0.2
						c0,0.1,0.1,0.1,0.2,0.1s0.1,0,0.2-0.1c0-0.1,0.1-0.2,0.1-0.2C-160.5,87.5-160.6,87.4-160.6,87.3z M-160.8,87.9
						c-0.1,0-0.2-0.1-0.2-0.3c0-0.2,0.1-0.3,0.2-0.3c0.1,0,0.2,0.1,0.2,0.3C-160.6,87.7-160.7,87.9-160.8,87.9z"/>
					<path class="st9" d="M-160.8,87.1c-0.2,0-0.4,0.2-0.4,0.5c0,0.3,0.2,0.5,0.4,0.5c0.2,0,0.4-0.2,0.4-0.5
						C-160.4,87.3-160.6,87.1-160.8,87.1z M-160.8,88c-0.2,0-0.4-0.2-0.4-0.5c0-0.3,0.2-0.5,0.4-0.5c0.2,0,0.4,0.2,0.4,0.5
						C-160.4,87.8-160.6,88-160.8,88z"/>
					<path class="st1" d="M-160.8,87.1c-0.2,0-0.4,0.2-0.4,0.5c0,0.3,0.2,0.5,0.4,0.5c0.2,0,0.4-0.2,0.4-0.5
						C-160.4,87.3-160.6,87.1-160.8,87.1z M-160.6,87.8c0,0.1-0.1,0.1-0.2,0.1s-0.1,0-0.2-0.1c0-0.1-0.1-0.2-0.1-0.2
						c0-0.1,0-0.2,0.1-0.2c0-0.1,0.1-0.1,0.2-0.1s0.1,0,0.2,0.1c0,0.1,0.1,0.2,0.1,0.2C-160.5,87.6-160.6,87.7-160.6,87.8z"/>
				</g>
				<g>
					<path class="st9" d="M-161.2,87c-0.1-0.1-0.3-0.1-0.5-0.1c-0.3,0-0.4,0-0.5,0.1c-0.1,0.1-0.2,0.3-0.2,0.6
						c0,0.3,0.1,0.4,0.2,0.5c0.1,0.1,0.3,0.1,0.5,0.1c0.2,0,0.4,0,0.5-0.1c0.1-0.1,0.2-0.3,0.2-0.5C-161,87.3-161,87.1-161.2,87z
						 M-161.7,88.2c-0.2,0-0.4,0-0.5-0.1c-0.1-0.1-0.2-0.3-0.2-0.5c0-0.3,0.1-0.4,0.2-0.5c0.1-0.1,0.3-0.1,0.5-0.1
						c0.2,0,0.4,0,0.5,0.1c0.1,0.1,0.2,0.3,0.2,0.5C-161,88-161.2,88.2-161.7,88.2z"/>
					<path class="st1" d="M-161.2,87c-0.1-0.1-0.3-0.1-0.5-0.1c-0.2,0-0.4,0-0.5,0.1c-0.1,0.1-0.2,0.3-0.2,0.5
						c0,0.2,0.1,0.4,0.2,0.5c0.1,0.1,0.3,0.1,0.5,0.1c0.5,0,0.7-0.2,0.7-0.6C-161,87.3-161.1,87.1-161.2,87z M-161.4,87.9
						c-0.1,0.1-0.2,0.1-0.3,0.1c-0.1,0-0.3,0-0.3-0.1c-0.1-0.1-0.1-0.2-0.1-0.4c0-0.2,0-0.3,0.1-0.4c0.1-0.1,0.2-0.1,0.3-0.1
						c0.1,0,0.3,0,0.3,0.1c0.1,0.1,0.1,0.2,0.1,0.4C-161.2,87.7-161.3,87.8-161.4,87.9z"/>
					<path class="st9" d="M-161.4,87.2c-0.1-0.1-0.2-0.1-0.3-0.1c-0.1,0-0.3,0-0.3,0.1c-0.1,0.1-0.1,0.2-0.1,0.4
						c0,0.2,0,0.3,0.1,0.4c0.1,0.1,0.2,0.1,0.3,0.1c0.1,0,0.3,0,0.3-0.1c0.1-0.1,0.1-0.2,0.1-0.4C-161.2,87.4-161.3,87.2-161.4,87.2
						z M-161.7,88c-0.2,0-0.5-0.1-0.5-0.5c0-0.3,0.2-0.5,0.5-0.5c0.3,0,0.5,0.2,0.5,0.5C-161.3,87.8-161.4,88-161.7,88z"/>
				</g>
				<g>
					<path class="st9" d="M-161.4,87.3v0.6h0.6v-0.6H-161.4z M-160.9,87.8h-0.5v-0.5h0.5V87.8z"/>
					<rect x="-161.4" y="87.3" class="st1" width="0.5" height="0.5"/>
				</g>
				<path class="st9" d="M-163,87.2v0.7h1v-0.7H-163z M-163,87.2h1v0.6h-1V87.2z"/>
				<rect x="-163" y="87.2" class="st1" width="1" height="0.6"/>
			</g>
		</g>
	</g>
	<path class="st11" d="M-123.3,94.7h-28V76.2c0.7-0.1,1.4-0.1,2.1-0.1C-137.1,76.1-126.9,83.9-123.3,94.7z"/>
	<path class="st12" d="M-123.3,112c-3.6,10.8-13.8,18.6-25.9,18.6c-0.7,0-1.4,0-2.1-0.1V112H-123.3z"/>
</g>
<g>
	<path class="st2" d="M-206.6,76.2c-1.4,0-2.9,0.1-4.3,0.3c-6,1-11.5,3.9-15.5,8.2l16,9.5h29.4C-184.9,83.5-195.1,76.2-206.6,76.2z"
		/>
	<path class="st1" d="M-210.4,94.3l15.1,9.1l-15.1,9.1h29.3c0,0,0,0,0,0c1-2.9,1.5-5.9,1.5-9c0-3.1-0.5-6.2-1.5-9.1c0,0,0,0,0,0
		L-210.4,94.3L-210.4,94.3z"/>
	<path class="st4" d="M-210.4,112.4l-16,9.5c4,4.3,9.5,7.2,15.5,8.2c1,0.2,1.9,0.3,2.9,0.3c0.5,0,0.9,0,1.4,0s0.9,0,1.4,0
		c11-0.6,20.5-7.6,24.2-18L-210.4,112.4L-210.4,112.4z"/>
	<path class="st5" d="M-210.3,112.4l15.1-9.1l-15.1-9.1l0,0l-16-9.5c-2.5,2.7-4.5,5.9-5.8,9.5c-1,2.9-1.5,6-1.5,9.1
		c0,3.1,0.5,6.1,1.5,9c1.3,3.6,3.3,6.9,5.8,9.6L-210.3,112.4L-210.3,112.4z M-229.5,101l2.1,0.6l0.8-2.1l0.8,2.1l2.1-0.7l-1.1,1.9
		l1.9,1.2l-2.2,0.4l0.2,2.2l-1.7-1.5l-1.6,1.5l0.1-2.2l-2.2-0.3l1.8-1.3L-229.5,101z"/>
	<polygon class="st1" points="-227.9,104.5 -228.1,106.8 -226.5,105.2 -224.8,106.7 -225,104.5 -222.8,104.2 -224.6,102.9 
		-223.5,101 -225.7,101.6 -226.5,99.6 -227.3,101.7 -229.5,101 -228.3,103 -230.2,104.2 	"/>
</g>
<g>
	<path class="st13" d="M-264.1,76.2c-1.4,0-2.9,0.1-4.3,0.3c-9.8,1.6-18,8.4-21.3,17.8c-1,2.9-1.5,6-1.5,9.1c0,3.1,0.5,6.1,1.5,9
		c3.3,9.4,11.5,16.2,21.3,17.8c1,0.2,1.9,0.3,2.9,0.3c0.5,0,0.9,0,1.4,0s0.9,0,1.4,0c11-0.6,20.6-7.7,24.2-18.1c1-2.9,1.5-5.9,1.5-9
		c0-3.1-0.5-6.2-1.5-9.1C-242.3,83.5-252.6,76.2-264.1,76.2z M-264.1,117.3c-7.7,0-13.9-6.2-13.9-13.9s6.2-13.9,13.9-13.9
		s13.9,6.2,13.9,13.9S-256.4,117.3-264.1,117.3z"/>
	<path class="st1" d="M-264.1,89.4c-7.7,0-13.9,6.2-13.9,13.9s6.2,13.9,13.9,13.9s13.9-6.2,13.9-13.9S-256.4,89.4-264.1,89.4z
		 M-256.5,106.8l-4.1-1.4l-2.6,3.4l0.1-4.3l-4-1.4l4-1.3l0.1-4.3l2.5,3.5l4.1-1.2l-2.5,3.4L-256.5,106.8z M-261.4,95
		c-4.6,0-8.3,3.7-8.3,8.3c0,4.6,3.7,8.3,8.3,8.3c1.9,0,3.7-0.7,5.1-1.8c-1.9,2.3-4.7,3.7-7.9,3.7c-5.7,0-10.3-4.6-10.3-10.3
		c0-5.7,4.6-10.3,10.3-10.3c3.4,0,6.4,1.6,8.3,4.1C-257.4,95.8-259.3,95-261.4,95z"/>
	<polygon class="st13" points="-262.8,101.2 -265.2,97.7 -265.3,101.9 -269.4,103.2 -265.4,104.6 -265.5,108.8 -262.9,105.5 
		-258.8,106.8 -261.3,103.3 -258.7,99.9 	"/>
	<path class="st13" d="M-263,92.9c-5.7,0-10.3,4.6-10.3,10.3c0,5.7,4.6,10.3,10.3,10.3c3.2,0,6-1.4,7.9-3.7
		c-1.4,1.1-3.2,1.8-5.1,1.8c-4.6,0-8.3-3.7-8.3-8.3c0-4.6,3.7-8.3,8.3-8.3c2.1,0,4,0.8,5.5,2C-256.7,94.6-259.6,92.9-263,92.9z"/>
</g>
<g>
	<path class="st5" d="M-321.5,76.2c-1.4,0-2.9,0.1-4.3,0.3c-9.8,1.6-18,8.4-21.3,17.7h51.2C-299.7,83.5-310,76.2-321.5,76.2z"/>
	<path class="st1" d="M-347.1,94.3c-1,2.9-1.5,6-1.5,9.1c0,3.1,0.5,6.1,1.5,9c0,0,0,0,0,0h51.2c0,0,0,0,0,0c1-2.9,1.5-5.9,1.5-9
		c0-3.1-0.5-6.2-1.5-9.1c0,0,0,0,0,0L-347.1,94.3C-347.1,94.3-347.1,94.3-347.1,94.3z M-307.7,101.9l1.5-4.5l1.5,4.5h4.8l-3.8,2.8
		l1.4,4.5l-3.8-2.8l-3.8,2.8l1.4-4.5l-3.8-2.8H-307.7z M-336.8,97.5l1.5,4.5h4.8l-3.8,2.8l1.4,4.5l-3.8-2.8l-3.8,2.8l1.4-4.5
		l-3.8-2.8h4.8L-336.8,97.5z"/>
	<path class="st2" d="M-325.8,130.2c1,0.2,1.9,0.3,2.9,0.3c0.5,0,0.9,0,1.4,0s0.9,0,1.4,0c11-0.6,20.5-7.6,24.2-18h-51.2
		C-343.8,121.8-335.6,128.6-325.8,130.2z"/>
	<polygon class="st4" points="-339.2,104.8 -340.6,109.3 -336.8,106.5 -333,109.3 -334.4,104.8 -330.6,102 -335.3,102 -336.8,97.5 
		-338.3,102 -343,102 	"/>
	<polygon class="st4" points="-310,109.2 -306.2,106.5 -302.4,109.2 -303.8,104.8 -300,101.9 -304.7,101.9 -306.2,97.5 
		-307.7,101.9 -312.4,101.9 -308.6,104.8 	"/>
</g>
<g>
	<path class="st4" d="M-385.8,94.3h32.4c-3.8-10.8-14.1-18.1-25.6-18.1c-1.4,0-2.9,0.1-4.3,0.3c-5.5,0.9-10.5,3.4-14.4,7.1
		L-385.8,94.3L-385.8,94.3z"/>
	<path class="st1" d="M-385.8,112.4h32.4c0,0,0,0,0,0c1-2.9,1.5-5.9,1.5-9c0-3.1-0.5-6.2-1.5-9.1c0,0,0,0,0,0h-32.4V112.4z"/>
	<path class="st5" d="M-385.8,112.5l-11.9,10.6c3.9,3.7,8.9,6.2,14.4,7.1c1,0.2,1.9,0.3,2.9,0.3c0.5,0,0.9,0,1.4,0s0.9,0,1.4,0
		c11-0.6,20.5-7.6,24.2-18L-385.8,112.5L-385.8,112.5z"/>
	<path class="st2" d="M-397.6,123.1l11.9-10.6v0V94.3v0l-11.9-10.6c-3.1,2.9-5.4,6.5-6.9,10.6c-1,2.9-1.5,6-1.5,9.1
		c0,3.1,0.5,6.1,1.5,9C-403.1,116.5-400.7,120.1-397.6,123.1z"/>
</g>
<g>
	<path class="st14" d="M-409.1,103.3c0,5-1.3,9.6-3.7,13.7c-4.7,8.1-13.5,13.6-23.6,13.6c-10.1,0-18.9-5.5-23.6-13.6
		c-2.3-4-3.7-8.7-3.7-13.7c0-5,1.3-9.7,3.7-13.7c4.7-8.1,13.5-13.6,23.6-13.6c10.1,0,18.8,5.5,23.6,13.6
		C-410.5,93.7-409.1,98.4-409.1,103.3z"/>
	<path class="st15" d="M-412.8,117c-4.7,8.1-13.5,13.6-23.6,13.6c-10.1,0-18.9-5.5-23.6-13.6H-412.8z"/>
	<path class="st1" d="M-409.1,103.3c0,5-1.3,9.6-3.7,13.7H-460c-2.3-4-3.7-8.7-3.7-13.7c0-5,1.3-9.7,3.7-13.7h47.1
		C-410.5,93.7-409.1,98.4-409.1,103.3z"/>
	<path class="st15" d="M-412.8,89.7h-47.1c4.7-8.1,13.5-13.6,23.6-13.6C-426.3,76.1-417.5,81.6-412.8,89.7z"/>
	<path class="st16" d="M-424.9,110c-1.5-0.7-3.3-1.7-3.3-2.1c0-0.2,0.4-0.8,0.9-0.8c1,0.1,1.7,1,2.4,0.9c0.6-0.1,0.4-0.7,0.1-0.8
		c-0.2-0.2-0.6-0.3-1-0.7c-0.5-0.5-1-1.1-1.5-1.4c-0.4-0.3-0.7-0.4-0.8-0.4c-0.4-0.1-1,0-1.1-0.1c-0.2-0.1-0.2-0.5,0.2-0.7
		c0.1-0.1,0.6,0,1.1,0c0.3,0,0.7-0.1,1-0.1c0.4,0,0.5,0.1,0.9,0.1c0.4,0,0.5-0.4,0.4-0.6c-0.1-0.1-1.1-0.5-2-0.7
		c-0.8-0.2-1.5-0.2-1.6-0.5c-0.1-0.2,0-0.4,0.3-0.5c0.6-0.2,1.1,0.4,2.2,0.3c0.3,0,0.4-0.6-0.1-0.7c-0.3-0.1-0.6-0.1-1.9-1.1
		c-0.6-0.4-1.3-1-1.8-1.5c-0.9-0.9-1.6-0.9-1.8-1.3c-0.2-0.4,0.4-0.7,0.8-0.5c1.1,0.7,2.2,0.7,2.3,0.6c0.1-0.1,0-0.3-0.1-0.3
		c-0.7-0.4-2.1-1.2-2.1-1.4c-0.1-0.6,0.7-0.2,0.9-0.2c0.2,0,0.3-0.3,0-0.6c-0.3-0.2-2-1.6-3.2-1.7c-1.9-0.2-2.8-1.7-3.2-3.2
		c-0.1,0.5-0.4,1.1-0.8,1.6c-0.4,0.5-0.7,0.6-1.3,1.1c-0.1,0.1-0.8,0.6-0.9,0.8c-0.1,0.2,0.1,0.3,0.4,0.3c0.3-0.1,0.5,0.2,0.2,0.5
		c-0.4,0.5-1.8,0.8-2.3,1.5c-0.2,0.3,0,0.4,0.3,0.4c0.5,0,0.9,0.3,0.5,0.8c-0.3,0.3-0.9-0.1-1.3,0.4c-0.8,1.1-1,1.3-2.3,1.8
		c-0.5,0.2-1,0.6-1.2,0.9c-0.2,0.3,0.1,0.6,0.5,0.6c0.6,0,1-0.5,1.6-0.3c0.3,0.1,0.5,0.7,0.4,1.1c-0.7,1.6-1.9,1.5-2.5,1.9
		c-0.3,0.2-0.7,0.6-1.1,0.9c-0.4,0.3-0.8,0.6-0.9,0.9c-0.1,0.3,0.2,0.7,0.7,0.6c0.5-0.1,1-0.7,1.6-0.9c0.5-0.2,0.9,0.4,0.9,0.8
		c0.1,0.9-1.7,1.2-3,2.4c-0.5,0.5-0.8,1-1.2,1.2c-0.5,0.3-0.9,0.2-0.9,0.6c0,0.7,2,0.1,3.4-0.6c0.8-0.4,1.5-0.9,1.9-0.9
		c0.5,0,0.8,0.2,0.9,0.6c0,0.6-1.3,1.1-2.1,1.4c-2.2,0.9-2.8,0.5-2.9,1.2c0,0.3,0.4,0.4,0.8,0.4c2.4,0,5.3-1.9,6.1-1.9
		c1.2,0,1.6,1.3,1.5,1.7c-0.2,1.1-1.5,2.7-1.7,2.9c-0.6,0.6-1.2,0.8-1.4,0.9c-0.6,0.2-1.6,0.6-1.8,1c-0.1,0.2,0.2,0.4,0.3,0.4
		c0.2,0,0.2-0.4,0.7-0.6c0.6-0.3,2.1-0.3,2.3-0.4c1-0.3,1.9-1.6,2.6-1.6c0.4,0,0.6,0.3,1,0.3c0.2,0,0.5-0.2,0.7-0.2
		c0.3,0,0.5,0.2,0.6,0.5c0.1,0.3,0.8,0.8,1.1,1c0.3,0.2,0.4,0.4,0.7,0.5c0.4,0.1,0.1-1,0.6-1c0.5,0,1.5,0.3,1.7,0.4
		c0.6,0.3,1.1,1.5,1.6,1.5c0.3,0,0.4-0.4,0.4-0.6c0-0.4-2.9-1.4-3.1-3.7c-0.1-0.6-0.1-2.2,0-2.7c0.1-0.2,0.6-0.6,0.9-0.6
		c0.6,0,1.4,0.8,2.3,0.8c1.1,0,3.3,0,3.5,0.1c1.3,0.3,2.7,1.8,3.4,1.8c0.4,0,0.5-0.4,0.5-0.5C-423.2,111.1-424.4,110.2-424.9,110z
		 M-435.6,95.6c0.2,0,0.4,0.1,0.4,0.3c0,0.2-0.1,0.4-0.3,0.5c-0.2,0-0.4-0.1-0.4-0.3C-435.9,95.8-435.8,95.6-435.6,95.6z
		 M-436.5,99.1c-0.2,0.2-0.5,0.2-0.7,0.1c-0.2-0.2-0.2-0.4-0.1-0.6c0.1-0.2,0.5-0.3,0.7-0.1C-436.3,98.6-436.3,98.9-436.5,99.1z
		 M-440,95.1c0.2,0,0.4,0.2,0.4,0.5c0,0.3-0.2,0.5-0.4,0.5c-0.2,0-0.4-0.2-0.4-0.5C-440.3,95.3-440.2,95.1-440,95.1z M-442.9,105.1
		c-0.7,0.2-1.3-0.4-1.2-0.9c0-0.3,0.4-0.3,1.2-0.4c0.8-0.1,1.5,0,1.5,0.4C-441.5,104.5-442.2,104.8-442.9,105.1z M-441.5,100.6
		c-0.4,0.4-0.7,0.2-1-0.1c-0.3-0.3-0.5-0.7-0.2-1c0.2-0.2,0.7-0.2,1,0.1C-441.5,99.8-441.3,100.3-441.5,100.6z M-441,99.2
		c0.2-0.3,0.6-0.3,0.8-0.2c0.2,0.2,0.4,0.5,0.1,0.8c-0.2,0.2-0.7,0.3-0.9,0.1C-441.1,99.7-441.1,99.4-441,99.2z M-440.3,108.2
		c-0.3,0-0.4-0.4-0.5-0.8c-0.1-0.5-0.2-0.7,0.1-0.7c0.3,0,0.9,0.4,0.9,1C-439.8,108-440.1,108.2-440.3,108.2z M-440.1,97.9
		c-0.1-0.1,0-0.5,0.4-0.8c0.3-0.2,0.7-0.5,0.9-0.3c0.3,0.3,0,0.6-0.3,0.9C-439.4,97.9-439.8,98.2-440.1,97.9z M-439.2,102.9
		c-0.2,0.1-0.4,0-0.5-0.2c-0.1-0.2-0.1-0.5,0.1-0.6c0.2-0.1,0.4,0,0.5,0.2C-439,102.6-439,102.8-439.2,102.9z M-438.4,108.1
		c-0.2,0.1-0.4,0-0.6-0.3c-0.2-0.3-0.2-0.5,0-0.6c0.2-0.1,0.4,0,0.6,0.3C-438.2,107.7-438.2,108-438.4,108.1z M-438,96.7
		c-0.1-0.2,0.1-0.6,0.5-0.8c0.4-0.2,0.8-0.3,1,0c0.2,0.4-0.1,0.6-0.5,0.8C-437.4,96.9-437.9,97-438,96.7z M-437.9,102.3
		c0-0.2,0.1-0.4,0.3-0.4c0.2,0,0.3,0.2,0.3,0.4s-0.1,0.4-0.3,0.4C-437.8,102.7-437.9,102.5-437.9,102.3z M-436.5,107.7
		c0,0.3-0.4,0.3-0.6,0.3c-0.3-0.1-0.3-0.4-0.3-0.7c0-0.5,0.5-0.4,0.7-0.3C-436.4,107.2-436.4,107.4-436.5,107.7z M-436.3,103.7
		c-0.2,0-0.4-0.3-0.4-0.7c0-0.4,0.2-0.7,0.4-0.7c0.2,0,0.6,0.6,0.6,1C-435.7,103.7-436.1,103.7-436.3,103.7z M-435.1,103.7
		c-0.1,0-0.3-0.1-0.3-0.3c0-0.2,0.1-0.3,0.3-0.3s0.3,0.1,0.3,0.3C-434.8,103.5-435,103.7-435.1,103.7z M-435,99.2
		c-0.2,0.2-0.5,0.3-0.6,0.2c-0.1-0.2-0.1-0.4,0-0.6c0.2-0.2,0.5-0.3,0.7-0.2C-434.7,98.6-434.8,98.9-435,99.2z M-431.3,101
		c0.3,0,0.6,0.2,0.6,0.6c0,0.3-0.3,0.5-0.6,0.5s-0.6-0.2-0.6-0.5C-431.9,101.2-431.7,101-431.3,101z M-434.3,96.5
		c-0.2-0.2-0.2-0.4-0.1-0.6c0.1-0.2,0.5-0.3,0.7-0.1c0.2,0.1,0.2,0.4,0,0.7C-433.9,96.7-434.2,96.7-434.3,96.5z M-433.3,100.1
		c-0.5,0-0.9-0.3-0.9-0.7c0-0.4,0.4-0.7,0.9-0.7c0.5,0,0.9,0.3,0.9,0.7C-432.4,99.8-432.8,100.1-433.3,100.1z M-431.5,106.7
		c-0.5,0.1-0.9-0.2-1-0.5c-0.1-0.3,0.3-0.5,0.9-0.7c0.7-0.3,1.1,0.1,1.1,0.4C-430.5,106.2-431,106.5-431.5,106.7z M-428.6,107.1
		c-0.4,0.4-1,0.2-1.3,0c-0.3-0.2-0.1-0.5,0.2-0.8c0.6-0.5,1-0.5,1.2-0.3C-428.1,106.2-428.1,106.7-428.6,107.1z"/>
</g>
<g>
	<path class="st17" d="M-498.1,130.2c1,0.2,1.9,0.3,2.9,0.3c0.5,0,0.9,0,1.4,0s0.9,0,1.4,0c9.3-0.5,17.6-5.6,22.1-13.5l-47,0
		C-513.3,124-506.3,128.9-498.1,130.2z"/>
	<path class="st2" d="M-468.2,94.3c-0.6-1.6-1.3-3.1-2.1-4.5h-47c-0.8,1.4-1.5,3-2.1,4.5c-1,2.9-1.5,6-1.5,9.1c0,3.1,0.5,6.1,1.5,9
		c0.6,1.6,1.3,3.1,2.1,4.6l47,0c0.8-1.4,1.5-3,2.1-4.6c1-2.9,1.5-5.9,1.5-9C-466.7,100.2-467.2,97.2-468.2,94.3z"/>
	<path class="st13" d="M-493.8,76.2c-1.4,0-2.9,0.1-4.3,0.3c-8.2,1.3-15.2,6.2-19.2,13.2l47,0C-475.1,81.5-484,76.2-493.8,76.2z"/>
	<g>
		<path class="st1" d="M-496.8,110.2c3.2,0,4.8-1.8,5.8-3.3c-0.6,0.5-1.9,1.8-4.3,1.8c-3,0-5.4-2.4-5.4-5.4c0-3,2.4-5.4,5.4-5.4
			c2.5,0,3.6,1.1,4.4,1.9c-0.4-0.9-2.6-3.4-5.9-3.4c-3.8,0-6.9,3.1-6.9,6.9C-503.6,107.2-500.6,110.2-496.8,110.2z"/>
		<polygon class="st1" points="-489.6,104.5 -489.6,108.1 -487.4,105.2 -484,106.3 -486.1,103.4 -484,100.4 -487.5,101.5 
			-489.6,98.6 -489.6,102.2 -493,103.3 		"/>
	</g>
</g>
<g>
	<circle class="st18" cx="-551.3" cy="103.3" r="27.2"/>
	<path class="st19" d="M-536.8,99h-11l-3.4-10.6l-3.4,10.6h-11l8.9,6.5l-3.4,10.5l9-6.5l9,6.5l-3.4-10.5L-536.8,99z M-548.2,104.6
		l-3,2.2l-3-2.2l1.1-3.5h3.7L-548.2,104.6z M-551.3,95.3l1.2,3.6h-2.4L-551.3,95.3z M-559.1,101.1h3.7l-0.7,2.2L-559.1,101.1z
		 M-556.1,110.4l1.2-3.6l1.9,1.4L-556.1,110.4z M-546.4,110.4l-3.1-2.2l1.9-1.4L-546.4,110.4z M-547.1,101.1h3.7l-3,2.2
		L-547.1,101.1z"/>
</g>
<g>
	<path class="st20" d="M-666.1,76.2c-1.4,0-2.9,0.1-4.3,0.3c-2.7,0.4-5.3,1.3-7.7,2.4l6.6,2.7l-13.6,5.2l13.6,5.6l-13.6,5.4
		l13.6,5.4l-13.6,5.3l13.6,5.6l-13.6,5.4l13.6,5.4l-6.7,2.8c2.4,1.2,5,2,7.7,2.4c1,0.2,1.9,0.3,2.9,0.3c0.5,0,0.9,0,1.4,0
		c0.5,0,0.9,0,1.4,0c11-0.6,20.6-7.7,24.2-18.1c1-2.9,1.5-5.9,1.5-9c0-3.1-0.5-6.2-1.5-9.1C-644.4,83.5-654.6,76.2-666.1,76.2z"/>
	<path class="st1" d="M-685,119.6l13.6-5.4l-13.6-5.6l13.6-5.3l-13.6-5.4l13.6-5.4l-13.6-5.6l13.6-5.2l-6.6-2.7
		c-6.3,3.1-11.2,8.5-13.6,15.3c-1,2.9-1.5,6-1.5,9.1c0,3.1,0.5,6.1,1.5,9c2.4,6.8,7.3,12.3,13.6,15.3l6.7-2.8L-685,119.6z"/>
</g>
<g>
	<path class="st21" d="M-698.1,93.7H-749c3.9-10.3,13.8-17.6,25.5-17.6S-702,83.4-698.1,93.7z"/>
	<path class="st1" d="M-696.3,103.3c0,3.4-0.6,6.7-1.8,9.7H-749c-1.1-3-1.8-6.3-1.8-9.7c0-3.4,0.6-6.7,1.8-9.7h50.9
		C-696.9,96.7-696.3,99.9-696.3,103.3z"/>
	<path class="st2" d="M-698.1,113c-3.9,10.3-13.8,17.6-25.5,17.6s-21.6-7.3-25.5-17.6H-698.1z"/>
	<g>
		<path class="st22" d="M-724.5,106.9c0,0-10.3,0-12.2,0c-0.1,0-0.3,0.5-0.6,0.9c-0.5,0.7-1.4,0.6-1.9,0.5c0.6-0.4,1.4-0.7,1.4-1.8
			c0-0.9-0.5-1.4-1-1.7c0,0,0.5-0.3,0.8-0.6c0.1,0,0.6-0.4,0.6-0.4s-0.2,1,0.5,1.2c0.1,0,1.4,0,1.9,0c0.1,0,0-0.4,0-0.7
			c0-0.1-0.2-0.2-0.3-0.3c0,0,0.5-0.3,1.2-1c0,0,0,2,0,2l8.7,0c0,0,0-0.9,0-1.3c0,0-0.2-0.3-0.3-0.3c-0.2,0-0.3,0.3-0.3,0.3
			c0,0.2,0,0.9,0,0.9l-6.8,0c0,0,0-0.7,0-1.2c0-0.2,3.3-3.2,4.5-4.4c0.2-0.2,0.3-0.3,0.3-0.4c0,0,0.2,0.4,0.4,0.6
			c0.1,0.1,0.4,0.4,0.5,0.5c0,0-0.3,0-0.5,0.2c-0.9,0.9-3.1,3-3.7,3.5c0,0,0,0.3,0,0.3s0.9,0,2,0c0.9,0,2,0,2.3,0c0,0,0-0.4,0.4-0.9
			c0.2-0.3,0.5-0.3,0.7-0.4c0,0,0.2-0.3,0.3-0.3c0,0,0.2,0.3,0.3,0.3c0.2,0.1,0.3,0.1,0.6,0.3c0.4,0.3,0.4,0.7,0.4,0.8
			C-724.6,103.8-724.5,106.9-724.5,106.9z"/>
		<path class="st22" d="M-720.7,106.9c-1.3,0-2.3,0-2.8,0c0-0.9,0-6,0-7.6c0-0.2-0.1-0.6-0.1-0.6c1,0.7,1.6,0.9,1.5,0.9
			c-0.2,0.1-0.4,0.4-0.4,0.4c0,0.8,0,5.1,0,5.1c0.9,0,1.1-0.6,1.1-0.5C-721.1,105.8-720.7,106.9-720.7,106.9z"/>
		<path class="st22" d="M-707.9,106.9c-1.3,0-2.3,0-2.8,0c0-0.9,0-6,0-7.6c0-0.2-0.1-0.6-0.1-0.6c1,0.7,1.6,0.9,1.5,0.9
			c-0.2,0.1-0.4,0.4-0.4,0.4c0,0.8,0,5.1,0,5.1c0.9,0,1.1-0.6,1.1-0.5C-708.3,105.8-707.8,106.9-707.9,106.9z"/>
		<path class="st22" d="M-711.6,106.9h-6.4c0,0,0-0.9,0-1.7c0-0.6,0.2-0.9,0.3-1c0.2-0.2,0.5-0.3,0.7-0.3c0.3,0,0.5,0.1,0.6,0.3
			c0.1,0.1,0.1,0.2,0.1,0.5c0,0.7,0,0.1-0.3,0.1c-0.1,0-0.2,0-0.3,0.2c0,0.2,0.1,0.2,0.2,0.2h0.3c0-1.1,0-1.9,0-1.9
			c0.1-0.1,0.4-0.3,0.6-0.6c0.3-0.3,0.5-0.7,0.5-0.7c0,0.6,0,1.8,0,3.1h0.6c0-1.7,0-3.3,0.1-3.3c0.1-0.1,0.4-0.3,0.6-0.6
			c0.3-0.3,0.5-0.7,0.5-0.7c0,0.8,0,2.8,0,4.6h0.6c0,0,0-4.8,0.1-4.9c0.1-0.1,0.4-0.3,0.6-0.6c0.3-0.3,0.5-0.7,0.5-0.7
			C-711.5,100.5-711.6,106.9-711.6,106.9z"/>
		<path class="st22" d="M-713.9,100.2c-0.3,0-0.5-0.2-0.6-0.2c-0.1,0-0.3,0.3-0.8,0.3c-0.4,0-0.8-0.2-0.9-0.4c0.2,0,0.6,0.1,0.9,0.1
			c0.3,0,0.5-0.4,0.7-0.4c0.2,0,0.2,0.3,0.7,0.2c0.4,0,0.6-0.6,0.6-0.6C-713.3,99.4-713.3,100.2-713.9,100.2z"/>
		<path class="st22" d="M-714.6,99.3c-0.8-1,0-1.1,0-0.9C-714.5,98.6-714.6,99-714.6,99.3z"/>
		
			<rect x="-735.9" y="107.4" transform="matrix(0.7071 -0.7071 0.7071 0.7071 -291.6617 -488.5375)" class="st22" width="0.7" height="0.7"/>
	</g>
</g>
<g>
	<path class="st21" d="M53.1,17.9H2.2C6.1,7.7,16,0.4,27.6,0.4S49.2,7.7,53.1,17.9z"/>
	<path class="st1" d="M54.9,27.6c0,3.4-0.6,6.7-1.8,9.7H2.2c-1.1-3-1.8-6.3-1.8-9.7c0-3.4,0.6-6.7,1.8-9.7h50.9
		C54.3,21,54.9,24.2,54.9,27.6z"/>
	<path class="st2" d="M53.1,37.3c-3.9,10.3-13.8,17.6-25.5,17.6S6.1,47.6,2.2,37.3H53.1z"/>
	<g>
		<path class="st23" d="M28.2,35.4c0-0.1-0.4,0-0.4,0.3c0,0-0.1,0-0.1,0c0-0.1,0-0.2,0-0.2c0,0-0.3,0-0.5,0c-0.1,0-0.2,0-0.2,0
			c-0.1-0.1,0-0.2-0.1-0.2c0,0-0.2,0.1-0.2,0.1c0,0,0.1,0.1,0.1,0.1c0,0.1,0,0.1,0,0.2c0,0-0.1,0-0.1,0c-0.1,0-0.2-0.4-0.2-0.3
			c0,0-0.2,0.1-0.1,0.2c0,0,0.1,0.1,0.1,0.2C26.4,36,26,36,26,36s0.1,0.1,0.3,0.1c0.2,0,0.3-0.3,0.3-0.3l0.7,0.1c0,0,0,0.2,0.2,0.2
			c0.2,0,0.2-0.2,0.2-0.2c0,0,0.2,0,0.3,0c0,0,0.2,0,0.2,0c0,0,0.1,0,0.1-0.1L28.2,35.4z M27.5,35.9c-0.1,0,0-0.1-0.1-0.2
			c0,0-0.5,0-0.5,0c-0.1-0.1,0-0.1,0-0.1c0,0,0.6,0,0.6,0c0,0,0,0.1,0,0.2C27.6,35.8,27.6,35.9,27.5,35.9z M28.1,35.7
			c0,0-0.1,0-0.1,0C28,35.6,28,35.6,28.1,35.7C28.1,35.6,28.1,35.6,28.1,35.7z"/>
		<path class="st23" d="M23.4,34.8c0,0-0.2,0-0.3,0.1C23,35,23,35.1,23,35.1c0.1,0,1.2,0.3,1.2,0.3c0,0,0,0,0.1-0.1
			c0,0,0-0.1,0.1-0.2c0,0,0.1-0.2,0.1-0.2c0,0-0.1,0-0.2,0.1c-0.2,0.1,0,0.1,0,0.1c0,0.1-0.1,0.2-0.1,0.2l-0.3-0.1
			c0,0,0-0.1,0.1-0.2c0,0,0.1-0.2,0-0.2c0,0-0.1,0-0.2,0.1c0,0-0.1,0,0,0.1c0,0-0.1,0.2-0.1,0.2l-0.2-0.1c0,0,0.2-0.6,0.2-0.8
			c0-0.1-0.1,0-0.1,0c-0.1,0.1-0.1,0-0.2,0.1c0,0,0,0-0.1,0c-0.1,0-0.1,0.1-0.1,0.1c0,0,0,0.1,0.1,0.1c0,0,0.1,0,0.1,0
			c0,0,0.1,0,0.1,0C23.5,34.6,23.4,34.7,23.4,34.8z M23.3,35.1l-0.1,0c0,0,0,0,0.1-0.1C23.3,34.9,23.3,35,23.3,35.1
			C23.3,35,23.3,35.1,23.3,35.1z"/>
		<ellipse class="st23" cx="23.2" cy="34.6" rx="0.1" ry="0.1"/>
		<path class="st23" d="M29.1,36C29.1,36,29,36.1,29.1,36c-0.1,0.1-0.2,0-0.2,0S29,35.9,29.1,36C29,35.9,29.1,35.9,29.1,36z"/>
		<path class="st23" d="M28.5,35C28.5,35,28.5,35.1,28.5,35c-0.1,0.1-0.2,0-0.2,0C28.4,34.9,28.4,34.9,28.5,35
			C28.5,34.9,28.5,34.9,28.5,35z"/>
		<path class="st23" d="M31.9,35.5C31.9,35.5,32,35.6,31.9,35.5c0.1,0.1,0.2,0,0.2,0C32.1,35.4,32.1,35.4,31.9,35.5
			C32,35.4,31.9,35.4,31.9,35.5z"/>
		<path class="st23" d="M28.7,36C28.7,36,28.7,36.1,28.7,36c0.1,0.1,0.2,0,0.2,0C28.9,35.9,28.8,35.9,28.7,36
			C28.7,35.9,28.7,35.9,28.7,36z"/>
		<path class="st23" d="M26.1,35.7C26.1,35.7,26,35.8,26.1,35.7c-0.1,0-0.1,0-0.1,0L26,35c0,0,0-0.2,0.1-0.3c0,0,0.2,0.2,0.2,0.2
			L26.2,35L26.1,35.7z"/>
		<path class="st23" d="M29.3,35.6c0,0,0-0.1,0-0.1c0-0.1,0-0.2,0-0.3c-0.1,0-0.2,0.1-0.2,0.1c0,0,0.1,0.1,0.1,0.3l-0.3,0
			c0-0.1,0-0.7,0-0.8c-0.1-0.1-0.1,0-0.2,0.1c0,0,0.1,0,0.1,0.1c0,0.1,0,0.2,0,0.3c0,0-0.1,0-0.2,0.2c0,0,0,0.3,0,0.3l0.8,0l0-0.1
			L29.3,35.6z M28.7,35.6C28.7,35.6,28.7,35.6,28.7,35.6C28.7,35.6,28.7,35.7,28.7,35.6C28.7,35.7,28.7,35.7,28.7,35.6
			C28.6,35.7,28.6,35.6,28.7,35.6z"/>
		<path class="st23" d="M29.7,35.8c0,0,0,0.1-0.2,0.2c-0.1,0.1-0.3,0-0.3,0c0,0,0.2-0.1,0.2-0.2c0-0.1,0-0.2,0-0.2
			c0-0.1-0.2-0.2-0.2-0.2c0-0.1,0.1-0.2,0.1-0.2c0,0,0.1,0.2,0.2,0.2C29.7,35.5,29.8,35.6,29.7,35.8z"/>
		<path class="st23" d="M25.9,34.7c-0.1,0-0.1,0.1-0.2,0.1c0,0,0.1,0.1,0.1,0.1c0,0.3-0.1,0.8-0.2,0.8c-0.1,0-0.1-0.2-0.1-0.2
			c0,0-0.2,0-0.2-0.1c0-0.2,0.2,0,0.2-0.1c0-0.1-0.1-0.1-0.2-0.2c-0.1-0.1,0-0.2-0.2-0.2c-0.1,0-0.2,0.2-0.2,0.2
			c-0.1,0.1-0.2,0.1-0.2,0.2c0,0.1,0.3,0.1,0.1,0.2l-0.2,0c0,0-0.1,0-0.1-0.2c0-0.1,0-0.2-0.1-0.2c-0.1,0-0.1,0.1-0.1,0.2
			c0,0,0.1,0.1,0.1,0.2c0,0,0,0.1-0.1,0.2c-0.1,0-0.2,0.1-0.2,0.1s0.1,0.1,0.2,0.1c0.1,0,0.2-0.1,0.2-0.1c0-0.1,0.2-0.1,0.2,0
			c0.3,0.1,0.2-0.1,0.3-0.1c0.1,0,0,0.1,0.2,0.2c0,0,0,0.3,0.2,0.3c0.2,0,0.2-0.1,0.3-0.2c0.1-0.2,0.1-0.9,0.1-0.9
			S25.9,34.7,25.9,34.7z M25.3,35.3c0,0-0.1,0-0.2,0c0,0,0-0.1,0-0.1c0,0,0.1-0.1,0.1,0C25.3,35.1,25.3,35.2,25.3,35.3z"/>
		<path class="st23" d="M32.2,35c0,0-0.1,0.1-0.1,0.1s-0.1,0-0.2,0c-0.1-0.1-0.1-0.4-0.1-0.6c0-0.1-0.1-0.2-0.2-0.2
			c-0.2,0-0.4,0.1-0.4,0.1c0,0,0.1,0.1,0.1,0.1c0.1-0.1,0.1-0.1,0.2-0.1c0.1,0,0.1,0.1,0.1,0.1c0,0.2,0.1,0.5,0.1,0.5
			c-0.1,0-0.1,0-0.1,0c-0.1-0.1-0.2-0.1-0.2-0.2c0,0.1-0.2,0.1-0.2,0.2l-0.1,0c0,0-0.1-0.1-0.1-0.2c-0.1-0.1-0.2-0.1-0.2-0.1
			c0-0.1-0.1-0.3-0.1-0.3c-0.1,0-0.1,0.1-0.1,0.2c0,0,0.1,0.1,0.1,0.2c0,0-0.1,0-0.2,0.1c0,0.1-0.1,0.2-0.1,0.2l-0.1,0
			c0-0.1-0.1-0.1-0.1-0.3c-0.1,0.1-0.3,0.1-0.3,0.2c0,0.1,0,0.3,0,0.3c0,0,0.1,0,0.2,0c0,0,0,0.1-0.1,0.2c0,0-0.2,0-0.2,0
			s0.1,0.1,0.3,0c0.1-0.1,0.1-0.2,0.1-0.2c0-0.1,0-0.1,0-0.1l0.4-0.1c0,0,0.1,0.2,0.3,0.2c0.2,0,0.2-0.3,0.2-0.3l0.1,0
			c0.1,0.1,0.2,0.1,0.2,0.1c0.1,0,0.2-0.1,0.2-0.2l0.5-0.1c0,0,0.2,0,0.2-0.1C32.4,35.2,32.3,35,32.2,35z M30,35.5
			C30,35.5,30,35.5,30,35.5c0-0.1,0.1-0.1,0.1-0.1c0,0.1,0,0.1,0,0.1C30.1,35.5,30.1,35.5,30,35.5z M30.5,35.4c0-0.1,0-0.1,0.1-0.1
			c0,0,0,0.1,0,0.1L30.5,35.4z M30.8,35.3c0.1,0,0.1,0,0.1,0.1l-0.1,0C30.8,35.3,30.8,35.3,30.8,35.3z M30.9,35.6
			C30.9,35.6,30.9,35.6,30.9,35.6c-0.1-0.1,0-0.1,0-0.1S31,35.6,30.9,35.6C31,35.6,31,35.6,30.9,35.6z M31.5,35.4
			C31.4,35.4,31.4,35.4,31.5,35.4c-0.1-0.1,0-0.1,0-0.1C31.5,35.3,31.5,35.3,31.5,35.4C31.5,35.4,31.5,35.4,31.5,35.4z"/>
		<path class="st23" d="M24,35.6C24,35.6,23.9,35.6,24,35.6c-0.1,0.1-0.2,0-0.2,0C23.8,35.5,23.9,35.5,24,35.6
			C23.9,35.5,24,35.5,24,35.6z"/>
		<path class="st23" d="M23.6,35.4C23.6,35.5,23.6,35.5,23.6,35.4c-0.1,0.1-0.2,0-0.2,0C23.4,35.4,23.5,35.4,23.6,35.4
			C23.6,35.4,23.6,35.4,23.6,35.4z"/>
		<path class="st23" d="M23.3,35.4C23.3,35.4,23.3,35.5,23.3,35.4c-0.1,0.1-0.2,0-0.2,0C23.2,35.3,23.2,35.3,23.3,35.4
			C23.3,35.3,23.3,35.3,23.3,35.4z"/>
		<path class="st23" d="M28.6,35.2C28.6,35.3,28.5,35.3,28.6,35.2c-0.1,0.1-0.2,0-0.2,0S28.4,35.1,28.6,35.2
			C28.5,35.1,28.6,35.2,28.6,35.2z"/>
		<path class="st23" d="M26.8,34.1c0,0-0.1,0-0.3,0c-0.1,0-0.3,0.1-0.3,0c0,0,0.1-0.1,0.2-0.1C26.6,34,26.9,34,26.8,34.1z"/>
		<path class="st23" d="M24.6,33.9c-0.1,0-0.2-0.1-0.3-0.1c-0.2,0-0.2-0.1-0.3-0.1c0-0.1,0.3,0,0.4,0C24.6,33.8,24.7,33.9,24.6,33.9
			z"/>
		<path class="st23" d="M23.8,33.7c0,0-0.2-0.1-0.3-0.1c-0.1,0-0.2-0.1-0.2-0.1c0-0.1,0.2,0,0.4,0C23.8,33.6,23.9,33.7,23.8,33.7z"
			/>
		<path class="st23" d="M26,34.1c-0.1,0-0.2,0-0.3,0c-0.1,0-0.2,0-0.2,0c-0.1-0.1,0.2-0.1,0.3-0.1C25.8,33.9,26.1,34,26,34.1z"/>
		<path class="st23" d="M29,34.1c0,0-0.2,0-0.3,0c-0.1,0-0.2,0-0.3,0c0-0.1,0.2-0.1,0.4-0.1C28.9,34,29.1,34.1,29,34.1z"/>
		<path class="st23" d="M31.2,33.8c0,0-0.1,0-0.3,0.1c-0.1,0-0.3,0.1-0.3,0.1c0,0,0.1-0.1,0.2-0.2C31,33.7,31.2,33.6,31.2,33.8z"/>
		<path class="st23" d="M32,33.5c0,0-0.1,0-0.2,0.1c-0.1,0-0.2,0.1-0.3,0.1c0,0,0.1-0.1,0.2-0.2C31.7,33.5,32,33.4,32,33.5z"/>
		<path class="st23" d="M29.8,34.1c0,0-0.1,0-0.2,0c-0.1,0-0.2,0-0.3,0c-0.1-0.1,0.2-0.1,0.2-0.1C29.6,33.9,29.9,33.9,29.8,34.1z"/>
		<path class="st23" d="M30.1,24.6c-0.5,0-0.9-0.1-1.4-0.2c-0.4-0.1-0.7-0.3-0.9-0.4c0,0-0.1-0.1-0.1-0.1c0,0-0.1,0.1-0.1,0.1
			c-0.2,0.1-0.6,0.3-0.9,0.4c-0.5,0.2-1,0.2-1.4,0.3l-0.1,0c0,0,0,0.2,0,0.3c0,0.1,0,0.4,0.1,0.7c0,0.3,0.1,0.6,0.2,0.9
			c0.1,0.4,0.2,0.7,0.4,1c0.2,0.4,0.4,0.8,0.7,1.1c0.2,0.3,0.4,0.6,0.7,0.8c0.4,0.4,0.6,0.6,0.7,0.6l0,0c0,0,0,0,0,0c0,0,0,0,0,0
			l0,0c0.1,0,0.3-0.2,0.7-0.6c0.2-0.2,0.5-0.5,0.7-0.8c0.3-0.4,0.5-0.7,0.7-1.1c0.1-0.3,0.3-0.7,0.4-1c0.1-0.3,0.1-0.6,0.2-0.8
			c0-0.3,0.1-0.5,0.1-0.7c0-0.1,0-0.3,0-0.3L30.1,24.6z M28.3,29.2c-0.3,0.3-0.5,0.5-0.6,0.6c-0.1-0.1-0.4-0.3-0.6-0.6
			c-0.1-0.1-0.2-0.2-0.3-0.4v-4.5c0.4-0.1,0.8-0.3,1-0.5c0.2,0.2,0.6,0.3,1,0.5v4.4C28.5,29,28.4,29.1,28.3,29.2z"/>
		<path class="st23" d="M33.2,34.6c-0.1-0.1-0.2-0.3-0.3-0.3c-0.1-0.1-0.2,0-0.2-0.2c0-0.1,0-0.1,0-0.2c0-0.7-0.5-0.5-0.6-0.6
			c-0.1-0.1-0.2-0.1-0.3-0.1c-0.1,0-0.2,0.1-0.4,0.1l-0.6-2l0,0l0,0l-0.2-0.5l3.5,3.2l-0.4-11.1c0,0,0-0.2,0-0.4
			c-0.1-0.3-0.2-0.5-0.3-0.6c-0.3-0.2-0.7-0.3-1.2-0.2c-0.4,0.1-0.8,0.3-1.1,0.5c-0.4,0.2-0.7,0.4-1,0.4c-0.3,0-0.7,0.1-0.8,0.1
			c-0.1-0.2-0.2-0.4-0.3-0.7c-0.1-0.5-0.2-1.2-0.2-2c0-0.1,0-0.4-0.1-0.6c0-0.1-0.1-0.2-0.1-0.3c-0.1-0.1-0.2-0.2-0.3-0.2
			c-0.2-0.1-0.7-0.3-1.1-0.3c-0.1,0-0.1,0-0.2,0.1c0,0,0,0.1-0.1,0.1c-0.1,0-0.2,0-0.3-0.1c-0.1,0-0.4,0-0.5,0
			c-0.1,0-0.2,0.1-0.3,0.2c-0.1,0.2,0,0.5,0,0.5c0,0,0,0.1,0.1,0.1c0,0,0.1-0.1,0.1-0.1c0,0,0.1-0.1,0.2-0.1c0.1,0,0.3,0.1,0.4,0.3
			c0.2,0.3,0.2,0.7,0.1,1.3c-0.2,0.6-0.4,1.1-0.5,1.4c-0.1,0.2-0.3,0.4-0.3,0.4c0,0-0.4,0-0.7-0.1c-0.3-0.1-0.7-0.2-1-0.4
			c-0.4-0.2-0.8-0.4-1.1-0.5c-0.4-0.1-0.8,0-1.2,0.2c-0.2,0.1-0.3,0.3-0.3,0.6c0,0.2,0,0.4,0,0.4L21,34l3.5-3.2l-0.2,0.5l0,0l0,0
			l-0.6,2c-0.1,0-0.3-0.1-0.4-0.1c-0.1,0-0.2,0-0.3,0.1c-0.1,0.1-0.5,0-0.6,0.6c0,0.1,0,0.2,0,0.2c0,0.2-0.1,0.1-0.2,0.2
			c-0.1,0.1-0.2,0.3-0.3,0.3c-0.1,0.1-0.2,0-0.3,0.1c0,0,0,0,0,0.1c0,0.1,0.1,0.1,0.2,0.2c0,0.1,0,0.2,0.1,0.3
			c0.1,0.2,0.2,0.2,0.3,0.3c0,0.1,0,0.4,0.3,0.5c1.4,0.5,4.2,0.5,5.3,0.5c1.1,0,3.5-0.1,4.8-0.6c0.3-0.1,0.2-0.4,0.3-0.5
			c0.1-0.1,0.2-0.1,0.2-0.3c0-0.1,0.1-0.2,0.1-0.3c0.1-0.1,0.2-0.1,0.2-0.2c0,0,0,0,0,0C33.4,34.7,33.3,34.7,33.2,34.6z M32.2,33.4
			c0.1,0,0.2,0,0.3,0.1c0.1,0.1,0.1,0.3,0.1,0.4c0,0-0.3,0-0.4-0.2c0-0.1,0-0.2,0-0.2C32.2,33.5,32.2,33.4,32.2,33.4z M31.9,33.3
			c0.1,0,0.1,0,0.1,0.1c0.1,0.1,0,0.2,0,0.4c-0.2,0-1,0.3-1.5,0.4c0,0,0-0.4-0.4-0.4c-0.3,0-0.3,0.5-0.3,0.5c-0.1,0-0.4,0-0.7,0.1
			c-0.4,0-0.8,0-0.8,0c-0.1-0.1-0.2-0.2-0.2-0.3c0-0.1,0.2-0.2,0.2-0.2c0.2,0,0.9,0,1.8-0.1C31,33.6,31.9,33.3,31.9,33.3z
			 M30.3,34.5c-0.1-0.1-0.2-0.2-0.2-0.3c0-0.2,0.1-0.3,0.2-0.3c0.1,0,0.2,0.1,0.2,0.3C30.5,34.3,30.3,34.4,30.3,34.5z M27.2,33.8
			c0,0-0.1-0.1-0.3-0.1c0,0-0.2,0-0.5,0l0.1-0.4l0.2,0.2l0.3-0.3l0.4-2.3l-0.1,2.3l0.3,0.4l0.3-0.4L27.9,31l0.4,2.3l0.3,0.3l0.2-0.2
			l0.1,0.4c-0.3,0-0.5,0-0.5,0c-0.2,0-0.2,0.1-0.3,0.1c-0.3,0.1-0.3,0.2-0.4,0.3h-0.2C27.5,34,27.4,33.9,27.2,33.8z M27.4,34.6
			c0,0-0.3-0.2-0.3-0.3c0-0.1,0.1-0.1,0.2-0.2c0.1-0.1,0-0.1,0.1-0.1c0.1,0,0.2,0.1,0.2,0.2C27.5,34.3,27.4,34.5,27.4,34.6z
			 M25.6,33l-0.4,0.6c0,0-0.1,0-0.1,0l-0.2-0.8l0.5-0.7L25.6,33l0.6-0.9l0.2,1l-0.1,0.6c-0.1,0-0.3,0-0.5,0L25.6,33z M25.7,33.7
			c-0.1,0-0.3,0-0.4,0l0.2-0.4L25.7,33.7z M25,33.6c-0.2,0-0.4-0.1-0.6-0.1l0.4-0.6L25,33.6z M25.5,27.8l0.2,0.4l0.1,1l-0.7,0.6
			L25,29.4L25.5,27.8z M25,29.4l-0.3,1.1l0.2-4.8v0c0,0.2,0.2,0.9,0.2,1L25,29.4z M25.5,27.4c-0.4-0.7-0.5-1.5-0.5-2
			c0-0.5,0-0.8,0-0.9c0.2,0,0.5,0,0.8,0c0.3,0,0.6-0.1,0.9-0.2c0.5-0.2,0.9-0.3,1.1-0.5c0.2,0.2,0.7,0.4,1.1,0.5
			c0.3,0.1,0.6,0.2,0.9,0.2c0.3,0,0.5,0.1,0.8,0c0,0.1,0,0.5,0,0.9c-0.1,0.5-0.2,1.3-0.5,2c-0.5,1-1.1,1.7-1.5,2.1
			c-0.3,0.3-0.6,0.5-0.7,0.6c-0.1-0.1-0.4-0.3-0.7-0.6C26.5,29.1,25.9,28.4,25.5,27.4z M30.7,30.5l-0.3-1.1l-0.1-2.7
			c0-0.1,0.2-0.8,0.2-1v0L30.7,30.5z M30.2,29.4L30,29.9l-0.7-0.6l0.1-1l0.2-0.4L30.2,29.4z M30.2,33.6c0,0-0.1,0-0.1,0L29.7,33
			l-0.2,0.7c-0.2,0-0.3,0-0.5,0l-0.1-0.6l0.2-1l0.6,0.9l0.3-0.9l0.5,0.7L30.2,33.6z M30.5,32.9l0.4,0.6c-0.2,0-0.4,0.1-0.6,0.1
			L30.5,32.9z M29.9,33.6c-0.1,0-0.3,0-0.4,0l0.1-0.4L29.9,33.6z M28.8,32.8l-0.4-1.7l0.6,0.9L28.8,32.8z M28.4,31l-0.2-1.1
			c0.1-0.1,0.3-0.3,0.3-0.3l0.2,0.3L28.4,31z M28.5,29.5c0.1-0.2,0.3-0.3,0.4-0.5l0.3,0.3l-0.1,1L28.5,29.5z M29,28.9
			c0.1-0.1,0.3-0.4,0.4-0.5l-0.1,0.8L29,28.9z M26.3,28.9L26,29.1l-0.1-0.8C26,28.5,26.2,28.8,26.3,28.9z M26.3,29
			c0.1,0.2,0.3,0.3,0.4,0.5l-0.6,0.8l-0.1-1L26.3,29z M26.8,29.5c0,0,0.3,0.3,0.3,0.3L26.9,31l-0.3-1.1L26.8,29.5z M26.3,31.9
			l0.6-0.9l-0.4,1.7L26.3,31.9z M27.8,34.2c0-0.2,0.1-0.2,0.2-0.2c0,0,0,0.1,0.1,0.1c0,0.1,0.2,0.1,0.2,0.2
			c-0.1,0.2-0.3,0.3-0.3,0.3C27.8,34.5,27.8,34.3,27.8,34.2z M31.4,33.3c-0.1,0-0.3,0.1-0.4,0.1l-0.5-0.7l0.3-1.2L31.4,33.3z
			 M30.4,32.6l-0.5-0.8l-0.3,0.9l-0.5-0.8l0.2-1.1l0.5,0.7l0.2-0.8l0.7,0.7L30.4,32.6z M30.7,31.2L30,30.5l-0.2,0.8l-0.6-0.7
			L29,31.8L28.5,31l0.3-1.1l0.5,0.6l0.1-1.1l0.7,0.7l0.2-0.4L30.7,31.2z M27.5,19.1c0.1,0,0.1,0,0.1,0.1c0,0.1,0,0.1-0.1,0.1
			c-0.1,0-0.1,0-0.1-0.1C27.4,19.1,27.5,19.1,27.5,19.1z M26.3,22.4c0.2-0.3,0.4-0.8,0.5-1.4c0.1-0.3,0.1-0.8,0.1-1
			c0-0.2,0.4-0.1,0.4-0.1c-0.3-0.5-0.7-0.7-0.9-0.8c-0.2,0-0.3,0.3-0.4,0.3c0-0.1,0-0.2,0-0.4c0.1-0.2,0.4-0.2,0.6-0.1
			c0.1,0,0.5,0.4,0.7,0.4c0.1,0,0.1,0.2,0.2,0.2c0.1,0,0.1-0.1,0.2-0.2c0-0.1,0.7-0.1,0.8-0.1c0.2,0.1,0.2,0.7,0.2,0.8
			c0,0.9,0,1.6,0.2,2.1c0.1,0.5,0.3,0.7,0.4,0.9c-0.1,0-0.3,0-0.5-0.1c-0.1-0.1-0.2-0.3-0.3-0.6c-0.1-0.4-0.2-0.8-0.2-1.4l-0.1,0
			c0,0.5,0.1,1,0.2,1.4c0.1,0.3,0.2,0.5,0.3,0.7c0,0,0,0.1,0,0.2c-0.1,0-0.5-0.2-0.7-0.3c-0.1-0.4-0.1-1-0.1-2l-0.1,0
			c0,1,0,1.6,0.1,2l-0.3,0.3c0,0-0.3-0.3-0.3-0.3c0.2-0.3,0.3-1.1,0.3-2.1l-0.1,0c0,0.6-0.1,1-0.1,1.4c-0.1,0.4-0.1,0.6-0.2,0.6
			c0,0-0.3,0.3-0.6,0.4c0-0.2,0-0.3,0.1-0.3c0.1-0.1,0.2-0.4,0.4-0.7c0.1-0.4,0.2-0.9,0.3-1.4l-0.1,0c-0.1,0.5-0.2,1-0.3,1.4
			c-0.1,0.4-0.2,0.5-0.3,0.6c0,0-0.4,0.2-0.7,0.3C25.9,23,26.1,22.7,26.3,22.4z M24.3,24.2l-0.3,7l-0.3,0.3L24,24l-0.5-0.5L23.1,32
			l-0.3,0.3l0.4-8.9l-0.7-0.6l-0.4,10.2l-0.2,0.2l0.4-10.6l-0.4,0.2l-0.3,0.2l0,0l0,0v0c0,0,0-0.6,0.3-0.9c0.3-0.2,0.6-0.3,1.1-0.2
			c0.4,0.1,0.8,0.3,1.1,0.5c0.4,0.2,0.7,0.4,1.1,0.5c0.3,0,0.5,0.1,0.7,0.1l0,0c0,0,0,0,0,0l-0.2,0.3c0,0,0.4,0,0.9-0.3
			c0,0.1-0.1,0.5-0.1,0.5s0.5-0.3,0.8-0.5c0.1,0.1,0.4,0.4,0.4,0.4l0.4-0.4c0.1,0,0.7,0.4,0.8,0.4c0,0,0,0,0.1,0c0,0,0-0.1,0-0.2
			c0,0,0,0,0,0c0.2,0.1,0.5,0.1,0.6,0.1c0,0,0.1,0,0.1,0c0,0,0-0.1,0-0.1c0,0-0.1-0.1-0.1-0.1c0.2,0,0.5,0,0.7-0.1
			c0.3-0.1,0.7-0.2,1.1-0.5c0.4-0.2,0.7-0.4,1.1-0.5c0.4-0.1,0.8,0,1.1,0.2c0.3,0.2,0.3,0.9,0.3,0.9v0l0,0l0,0l-0.3-0.2L33,22.5
			l0.4,10.6l-0.2-0.2l-0.4-10.2l-0.7,0.6l0.4,8.9L32.2,32l-0.4-8.4L31.3,24l0.3,7.4l-0.3-0.3l-0.3-7l-0.5,0.2c0-0.1,0-0.1,0-0.1
			l-0.1,0c-0.4,0-1,0-1.6-0.2c-0.4-0.1-0.8-0.3-1.1-0.5c0,0-0.1-0.1-0.1-0.1c0,0-0.1,0.1-0.1,0.1c-0.2,0.2-0.6,0.3-1.1,0.5
			c-0.6,0.2-1.2,0.3-1.6,0.2l-0.1,0c0,0,0,0,0,0.1L24.3,24.2z M25,29.6l0.2,0.4l0.7-0.7l0.1,1.1l0.5-0.6l0.3,1.1l-0.5,0.8L26,30.6
			l-0.6,0.7l-0.2-0.8l-0.7,0.7L25,29.6z M25.2,30.7l0.2,0.8l0.5-0.7l0.2,1.1l-0.5,0.8l-0.3-0.9l-0.5,0.8l-0.4-1.3L25.2,30.7z
			 M24.4,31.5l0.3,1.2l-0.5,0.7c-0.1,0-0.3-0.1-0.4-0.1L24.4,31.5z M23.2,33.4c0,0,0.1-0.1,0.1-0.1c0,0,0.9,0.3,1.8,0.4
			c0.9,0.1,1.7,0.1,1.8,0.1c0,0,0.2,0.1,0.2,0.2c0,0.1-0.2,0.1-0.2,0.3c0,0-0.4,0-0.8,0c-0.3,0-0.6,0-0.7-0.1c0,0,0-0.5-0.3-0.5
			c-0.3,0-0.4,0.4-0.4,0.4c-0.5-0.1-1.3-0.3-1.5-0.4C23.2,33.6,23.2,33.5,23.2,33.4z M25.2,34.2c0,0.1-0.2,0.3-0.2,0.3
			c-0.1-0.1-0.2-0.2-0.2-0.3c0-0.2,0.1-0.3,0.2-0.3C25.1,33.9,25.2,34,25.2,34.2z M22.8,33.6c0.1-0.1,0.2-0.1,0.3-0.1
			c0,0,0,0.1,0,0.1c0,0.1,0,0.1,0,0.2c-0.1,0.1-0.4,0.2-0.4,0.2C22.7,33.8,22.7,33.6,22.8,33.6z M33,35.2c-0.1,0.1-0.2,0.2-0.3,0.2
			c-0.1,0.1,0.1,0.4-0.2,0.5c-1.4,0.5-3.6,0.5-4.6,0.5c-1.1,0-3.8,0-5.1-0.5c-0.3-0.1-0.2-0.4-0.2-0.5c0-0.1-0.2-0.1-0.3-0.3
			c0-0.1-0.1-0.2-0.1-0.3c0,0,0.1-0.1,0.3-0.3c0.1-0.1,0.2,0,0.3-0.1c0.1-0.1,0-0.3,0.1-0.4c0.1-0.1,0.2-0.2,0.4-0.1
			c0.4,0.1,0.9,0.2,1.4,0.3c0,0,0.1,0.1,0.1,0.2c0,0.1,0.1,0.1,0.1,0.2c0,0.1,0,0.2,0.1,0.2c0.1,0,0-0.1,0.1-0.2
			c0-0.1,0.1-0.1,0.1-0.2c0.1-0.1,0.1-0.1,0.1-0.1c0.5,0,1,0.1,1.5,0c0.1,0,0.2,0.2,0.4,0.3c0.1,0,0,0.2,0.1,0.2
			c0.1,0,0.2-0.2,0.2-0.5h0.2c0,0.3,0.1,0.5,0.2,0.5c0.1,0,0-0.1,0.1-0.2c0.2-0.1,0.3-0.3,0.4-0.3c0.6,0,1.1,0,1.5,0
			c0,0,0.1,0.1,0.1,0.1c0,0.1,0.1,0.1,0.1,0.2c0.1,0.1,0,0.2,0.1,0.2c0.1,0,0.1-0.1,0.1-0.2c0-0.1,0.1-0.1,0.1-0.2
			c0.1-0.1,0.1-0.2,0.1-0.2c0.5-0.1,1-0.2,1.4-0.3c0.2,0,0.2,0,0.4,0.1c0.1,0.1,0.1,0.3,0.1,0.4c0.1,0.1,0.2,0,0.3,0.1
			c0.2,0.2,0.3,0.3,0.3,0.3C33.1,34.9,33.1,35.1,33,35.2z"/>
	</g>
</g>
</svg>
