<?xml version="1.0" encoding="utf-8"?>
<!-- Generator: Adobe Illustrator 24.1.1, SVG Export Plug-In . SVG Version: 6.00 Build 0)  -->
<svg version="1.1" id="Layer_1" xmlns="http://www.w3.org/2000/svg" xmlns:xlink="http://www.w3.org/1999/xlink" x="0px" y="0px"
	 viewBox="0 0 55.3 55.3" style="enable-background:new 0 0 55.3 55.3;" xml:space="preserve">
<style type="text/css">
	.st0{fill:#D11F36;}
	.st1{fill:#FFFFFF;}
	.st2{fill:#010101;}
	.st3{fill:#0C733B;}
	.st4{fill:#067B3F;}
	.st5{fill:#CD2028;}
	.st6{fill:#0B6D38;}
	.st7{fill:#E12226;}
	.st8{fill:#D92327;}
	.st9{fill:#D72027;}
	.st10{fill:#DD4044;}
	.st11{fill:#F7F6EF;}
	.st12{fill:#0F753C;}
	.st13{fill:#E41E26;}
	.st14{fill:#269D48;}
	.st15{fill:#BE282F;}
	.st16{fill:#036334;}
	.st17{fill:#ED1F33;}
</style>
<g>
	<path class="st0" d="M-238.5,18.6c-3.8-10.8-14.1-18.1-25.6-18.1c-1.4,0-2.9,0.1-4.3,0.3c-5.5,0.9-10.5,3.4-14.4,7.1l11.9,10.6
		H-238.5z"/>
	<path class="st1" d="M-260.7,27.6l-10.2,9.1h32.4c0,0,0,0,0,0c1-2.9,1.5-5.9,1.5-9c0-3.1-0.5-6.2-1.5-9.1c0,0,0,0,0,0h-32.4
		L-260.7,27.6z"/>
	<path class="st2" d="M-282.8,47.3c3.9,3.7,8.9,6.2,14.4,7.1c1,0.2,1.9,0.3,2.9,0.3c0.5,0,0.9,0,1.4,0s0.9,0,1.4,0
		c11-0.6,20.5-7.6,24.2-18h-32.4L-282.8,47.3z"/>
	<path class="st3" d="M-282.8,47.3l11.9-10.6l10.2-9.1l-10.2-9.1l-11.9-10.6c-3.1,2.9-5.4,6.5-6.9,10.6c-1,2.9-1.5,6-1.5,9.1
		c0,3.1,0.5,6.1,1.5,9C-288.2,40.8-285.8,44.4-282.8,47.3z"/>
</g>
<g>
	<path class="st2" d="M-295.9,18.6C-299.7,7.7-310,0.5-321.5,0.5c-1.4,0-2.9,0.1-4.3,0.3c-5.5,0.9-10.5,3.4-14.4,7.1l11.9,10.6
		H-295.9z"/>
	<path class="st1" d="M-318.1,27.6l-10.2,9.1h32.4c0,0,0,0,0,0c1-2.9,1.5-5.9,1.5-9c0-3.1-0.5-6.2-1.5-9.1c0,0,0,0,0,0h-32.4
		L-318.1,27.6z"/>
	<path class="st4" d="M-340.2,47.3c3.9,3.7,8.9,6.2,14.4,7.1c1,0.2,1.9,0.3,2.9,0.3c0.5,0,0.9,0,1.4,0s0.9,0,1.4,0
		c11-0.6,20.5-7.6,24.2-18h-32.4L-340.2,47.3z"/>
	<path class="st5" d="M-340.2,47.3l11.9-10.6l10.2-9.1l-10.2-9.1l-11.9-10.6c-3.1,2.9-5.4,6.5-6.9,10.6c-1,2.9-1.5,6-1.5,9.1
		c0,3.1,0.5,6.1,1.5,9C-345.7,40.8-343.3,44.4-340.2,47.3z"/>
</g>
<g>
	<circle class="st6" cx="-91.7" cy="103.3" r="27.2"/>
	<g>
		<path class="st1" d="M-74.3,94.9c-0.2,0-0.4,0-0.6,0c0.7,4.4,0.5,8.4,0.5,8.6c-0.3,1.5-2.2,1.9-2.7,1.8c-0.4-0.1-0.4-0.3-0.3-0.4
			c0.8-0.5,2.2-1.3,2.2-1.9c0.3-2.1-0.6-8.1-0.6-8.1c-0.1-0.1-0.2-0.2-0.2-0.7c0-0.8,0.3-1.3,0.4-1.2
			C-75.1,93.7-74.2,94.9-74.3,94.9z"/>
		<path class="st1" d="M-84.5,103c-0.4,1.5-1.7,2.2-2.4,2.3c-0.5,0-1.1-0.5-0.7-0.6c0.9-0.4,2.5-1.4,2.5-2c0.2-2.1-0.4-7-0.5-7.1
			c-0.1-0.1-0.2-0.5-0.2-1c0-0.8,0.4-1.5,0.5-1.4c0.5,0.7,0.9,2,0.8,2c-0.2,0-0.3,0-0.4,0C-84.2,99.5-84.3,102.5-84.5,103z"/>
		<path class="st1" d="M-82.4,102.2c0,0.2-0.2,1-0.7,1.3c-0.1,0.1-0.1-0.6-0.1-1c0.1-1.7-0.8-7-0.9-7c-0.1-0.1-0.2-0.8-0.2-1.3
			c0-0.6,0.4-1.1,0.5-1c0.5,0.7,1.1,2,1.1,2c-0.2,0-0.4,0-0.5,0C-82.5,99.5-82.3,101.7-82.4,102.2z"/>
		<path class="st1" d="M-75.4,102.9c-0.1,0.1-0.9-1.2-1-1.5c-0.1-0.1-0.1-0.3-0.2-0.5c0,0.7,0.1,1.1,0,1.2c0,0.2-0.3,0.9-0.8,1.1
			c-0.1,0.1-0.1-0.6-0.1-1c0.1-0.7,0-1.8-0.1-2.8c-0.3-0.5-0.7-1-1-1.4c0.2,2.7,0.1,4.4,0,4.7c-0.1,0.5-0.7,1-1.1,1
			c-0.7,0-1.1-0.9-1.5-0.9c-0.4,0-0.6,2.1-1.4,2.2c-0.3,0-1.5-1.1-1.5-2c0-0.9,0.5-1.5,0.6-1.3c0.1,1.2,0,2.2,0.6,2.2
			c0.4,0,1.4-2.5,1.8-2.5c0.5,0,0.9,1.2,1.3,1.2c0.3,0,0.6-0.5,0.6-0.6c0.1-1.4-0.1-3.8-0.3-5.4c-0.6-0.9-1.1-1.5-1.2-1.5
			c-0.1,0-0.4-0.2-0.6-0.7c-0.2-0.5-0.1-1.5,0-1.4c0.7,0.4,1.3,1.2,1.3,1.2c-0.1,0-0.1,0.1-0.2,0.1c0.1,0.2,0.3,0.4,0.4,0.6
			c-0.1-0.3-0.1-0.9-0.1-1.3c0-0.7,0.3-0.9,0.4-0.8c0.5,0.7,1.1,2.1,1,2.1c-0.2,0-0.3,0-0.4,0c0.1,0.6,0.1,1.1,0.2,1.6
			c0.4,0.5,0.7,1,1,1.4c-0.2-1.5-0.4-2.8-0.4-2.8c-0.1-0.1-0.2-0.6-0.2-1.1c0-0.8,0.4-1.2,0.5-1.1c0.5,0.7,1,2.3,0.9,2.3
			c-0.2,0-0.3,0-0.4,0c0.2,1.7,0.4,3,0.5,4c0.6,0.9,1,1.4,1.1,1.6C-75.5,101.3-75,102.5-75.4,102.9z"/>
		<path class="st1" d="M-77.7,104.8c-0.2,0.1-0.7,0.3-0.8,0.1c-0.1-0.2,0.4-0.5,0.4-0.6c0.1-0.5-0.3-0.1-0.3-0.5
			c0-0.2,0.3-0.3,0.4-0.3c0.1,0,0.4,0.1,0.5,0.3c0,0.1-0.1,0.1-0.1,0.2c0,0.1,0,0.2,0,0.2c0,0.1,0.5,0,0.5,0.1
			C-77.1,104.7-77.4,104.7-77.7,104.8z"/>
		<path class="st1" d="M-76.5,96.4c0-0.3,0-0.7-0.1-1c-0.1-0.4-0.4-0.5-0.4-0.8c0-0.5,0.4-0.3,0.4-0.3c0.2,0.2,0.3,0.3,0.4,0.7
			C-76.1,95.3-76.1,96-76.5,96.4z"/>
		<path class="st1" d="M-80,101.8c0-0.2,0.1-0.5,0-0.9c-0.1-0.4-0.3-0.5-0.4-0.8c0-0.5,0.4-0.3,0.4-0.3c0.2,0.2,0.3,0.4,0.3,0.7
			C-79.6,100.9-79.6,101.4-80,101.8z"/>
		<path class="st1" d="M-79.7,99c0,0-0.5,0.5-0.9,0.8c-0.4,0.3-0.8,0.5-1,0.6c-0.1-0.2-0.2-0.5-0.1-0.6c0.2-0.2,0.6-0.4,0.9-0.7
			c0.5-0.3,0.9-0.6,1-0.7C-79.7,98.4-79.7,98.8-79.7,99z"/>
		<path class="st1" d="M-80.2,97c0,0.1-0.3,0.1-0.5,0.1c0,0.6,0,1.1-0.1,1.4c0,0.1-0.7-0.5-1.2-0.9c-0.3-0.3-0.1-0.9,0.1-0.9
			c0.5-0.1,0.4,0.4,0.6,0.4c0.3,0-0.1-0.8,0.4-0.9C-80.6,96.1-80.2,96.2-80.2,97z"/>
		<path class="st1" d="M-85.3,102.4c-0.1,0.1-0.8-1.5-0.9-1.8c-0.2-0.5-0.6-1.2-1.1-1.9c0.2,2.2,0.2,3.4,0.2,3.7
			c0,0.2-0.3,1.1-0.8,1.4c-0.1,0.1-0.1-0.9-0.1-1.2c0.1-0.8-0.2-3.7-0.3-5.6c-0.7-1-1.2-1.8-1.2-1.8c-0.1,0-0.7-0.7-0.9-1.2
			c-0.2-0.5,0-1.2,0.1-1.1c0.9,0.4,1.6,1.5,1.5,1.5c-0.1,0.1-0.2,0.1-0.3,0.1c0.2,0.3,0.4,0.5,0.6,0.8c0-0.1,0-0.2,0-0.2
			c-0.1-0.1-0.3-0.8-0.3-1.4c0-0.6,0.3-0.9,0.4-0.8c0.5,0.7,1.3,2.2,1.2,2.2c-0.2,0-0.3,0-0.4,0c0.1,0.6,0.2,1.1,0.2,1.6
			c1.4,2.1,1.9,3.2,2.1,3.5C-85.3,100.7-85,102-85.3,102.4z"/>
		<path class="st1" d="M-86.7,95.3c0.1-0.2,0.1-0.6,0-1c-0.1-0.4-0.4-0.4-0.4-0.7c-0.1-0.5,0.4-0.4,0.4-0.3c0.2,0.2,0.3,0.3,0.4,0.7
			C-86.2,94.3-86.3,94.9-86.7,95.3z"/>
		<path class="st1" d="M-85.9,96.4c-0.1,0.3-0.2,0.5-0.6,0.5c-0.4,0-0.7-0.3-0.7-0.6c0-0.2,0-0.4,0.2-0.4c0,0,0.2,0,0.2,0.3
			c0,0.2,0.1,0.1,0.2,0.1c0,0,0-0.2,0-0.3c0-0.1,0.2-0.1,0.2,0c0,0.1,0,0.2,0,0.3c0.1,0,0.2,0,0.2-0.1c0-0.3,0.2-0.3,0.2-0.3
			C-85.9,95.9-85.8,96.2-85.9,96.4z"/>
		<path class="st1" d="M-92.5,98.4c-0.1,0.3-0.2,0.5-0.6,0.5c-0.4,0-0.7-0.3-0.7-0.6c0-0.2,0-0.4,0.2-0.4c0,0,0.2,0,0.2,0.3
			c0,0.2,0.1,0.1,0.2,0.1c0,0,0-0.2,0-0.3c0-0.1,0.2-0.1,0.2,0c0,0.1,0,0.2,0,0.3c0.1,0,0.2,0,0.2-0.1c0-0.3,0.2-0.3,0.2-0.3
			C-92.5,97.9-92.4,98.2-92.5,98.4z"/>
		<path class="st1" d="M-89.8,96.5c-0.1,0.2-0.3,0.5-0.6,0.5c-0.3,0,0.2-0.6-0.2-0.6c-0.1,0-0.2,0.2-0.3,0.3
			c-0.2,0.3-0.4,0.8-0.9,0.8c-0.7,0-1.1-0.6-1.5-0.6c-0.4,0-0.2,0.8-1,0.8c-1.6,0-0.9-2.3-1.3-2.3c-0.3,0-0.5,2-1.1,2
			c-1.4-0.1-1.3-3.3-0.8-3.3c0.2,0,0.2,1.3,0.5,2.1c0.3,0.7,0.6-0.1,0.6-0.1c0.3-1.7,1.1-2.3,1.3-2.3c0.4,0,0.3,0.9,0.4,2.2
			c0,0.2,0.2,0.7,0.7,0.7c0.4,0,0.7-0.6,0.7-0.8c0-1.9-0.3-1.4-0.3-2.2c0-0.6,0.5-1,0.5-0.9c0.6,0,0.5,2.6,0.5,2.9
			c0,0.6,0.5,0.9,0.7,0.9c0.3,0,0.5-0.5,0.5-0.6c0-0.7-0.3-1-0.5-1.5c0-0.1-0.2-0.3-0.2-0.7c0-0.4,0.5-0.7,0.7-0.7
			c0.4,0,0.9,1.1,0.8,1.2c-0.1,0.1-0.3,0.1-0.5,0.1c0.4,1.1,0.1,1.8,0.9,1.8c0.4,0,0.5-0.4,0.7-0.3C-89.4,96-89.7,96.4-89.8,96.5z"
			/>
		<path class="st1" d="M-88.7,104.2c-0.7,0.1-1.2,0.6-1.3,0.4c-0.1-0.2-0.1-0.3,0-0.7c-0.2,0-0.5,0-0.5-0.1c0-0.3,0.5-0.7,0.7-0.7
			c0.4,0,0,0.9,0.3,0.9c0.3,0,0.3-0.4,0.9-0.4C-88.4,103.7-88.4,104.1-88.7,104.2z"/>
		<path class="st1" d="M-99.7,102.2c0-0.2,0-0.4-0.1-0.7c-0.1-0.3-0.4-0.4-0.4-0.6c-0.1-0.4,0.3-0.3,0.4-0.3
			c0.2,0.1,0.3,0.2,0.4,0.5C-99.4,101.4-99.4,101.8-99.7,102.2z"/>
		<path class="st1" d="M-107.7,94.7c0-0.2,0-0.4-0.1-0.8c-0.1-0.3-0.4-0.4-0.4-0.6c0-0.4,0.4-0.3,0.4-0.3c0.2,0.1,0.3,0.3,0.4,0.6
			C-107.4,93.9-107.4,94.4-107.7,94.7z"/>
		<path class="st1" d="M-103.7,93.6c-0.1,0.3-0.2,0.5-0.6,0.5c-0.4,0-0.7-0.3-0.7-0.6c0-0.2,0-0.4,0.2-0.4c0,0,0.2,0,0.2,0.3
			c0,0.2,0.1,0.1,0.2,0.1c0,0,0-0.2,0-0.3c0-0.1,0.2-0.1,0.2,0c0,0.1,0,0.2,0,0.3c0.1,0,0.2,0,0.2-0.1c0-0.3,0.2-0.3,0.2-0.3
			C-103.7,93.1-103.6,93.4-103.7,93.6z"/>
		<path class="st1" d="M-94.1,93.3c0,0.2,0,0.4-0.1,0.5c0,0.1-0.1,0.5-0.5,0.6c0-0.2-0.1-0.4,0-0.7c0-0.2,0.2-0.6,0.2-0.6
			c0.1-0.2,0.3-0.4,0.3-0.3C-94.1,92.8-94,93-94.1,93.3z"/>
		<path class="st1" d="M-98.9,97.3c-0.3,0-0.5-0.2-0.6-0.5c0-0.5,0.3-0.8,0.5-0.8c0.1,0,0,0.4,0,0.7c0.1,0,0.2,0,0.2,0
			c0.1,0,0.1-0.1,0.2-0.1c0.1,0,0.2,0,0.2,0C-98.2,96.9-98.5,97.3-98.9,97.3z"/>
		<path class="st1" d="M-96.8,94.2c-0.3,0-0.3-0.2-0.3-0.5c0.1-0.8,0.7-1.1,0.7-0.9c0,0.4-0.3,0.4-0.4,0.9c0.1,0,0.1,0,0.1,0
			c0.1,0,0.3,0,0.3,0C-96.3,93.9-96.6,94.2-96.8,94.2z"/>
		<path class="st1" d="M-91.7,100.6c0,0-0.1-0.3,0-0.3c0.8,0,2.2-0.4,2.3-1.6c0-0.5-0.3-1.4-1.2-1.3c-0.7,0.1-1.1,0.7-1.1,1
			c0,0.1,0.1,1-0.1,1c-1.5,0.1-2.3,0.9-2.7,1.4c0,0,0,0-0.1,0.1c-0.2-1-0.2-1.9-0.3-2c-0.3-0.6-0.8-1.6-1-1.5
			c-0.2,0.1-0.4,0.5-0.3,0.8c0.2,1,1.1,2.4,0.7,3.8c-0.2,0.8-1.9,2.1-2.5,2c-0.2,0-0.4-0.3-0.5-0.6c0.3-0.3,3.2-1.8,1.8-4.3
			c0.1,0,0.2,0,0.3,0c0.1,0,0.1-0.8-0.8-1.4c-0.1-0.1-0.7,0.1-0.7,0.8c0,0.5,0.5,0.9,0.5,1c0.6,0.9,0.7,1.2-1.3,2.6
			c0-0.5,0-0.9,0-0.9c-0.3,0.5-0.4,0.9-0.6,1.3c0,0,0,0-0.1,0c-0.3,0.2-3.5,2.2-3.1,2.4c0.4,0.2,2-0.5,3-1.1c0.2,1,1.1,1.2,1.6,1.2
			c0.7,0,2-0.8,2.8-2.4c0.4,0.5,1.5,2,3.3,2c0.5,0,0.5-0.7,0.4-0.7c-0.2-0.2-0.5-0.3-0.8-0.4c-0.3-0.3-0.6-0.9,0.2-1.1
			c0.7-0.2,2.1,0,2.6-0.4c0.6-0.5,0.8-1.1,0.9-1.4C-88.7,100.7-90,100.7-91.7,100.6z M-91,98.6c0,0,0.1-0.1,0.2,0
			c0.1,0,0.2,0.1,0.3,0.2c0,0,0.1,0.1,0.1,0.3c-0.1,0-0.2,0-0.3,0c-0.1,0-0.2-0.2-0.2-0.2C-91,98.8-91,98.6-91,98.6z M-92.2,101.9
			c-0.1,0.3-0.7,0.1-0.8,0.5c-0.1,0.2-0.2,0.6,0.1,0.9c-0.7-0.3-1.3-0.7-1.5-1.4c0-0.2-0.1-0.4-0.1-0.6c0.4,0.3,1.6,0.3,2.2,0.3
			C-92.3,101.6-92.1,101.7-92.2,101.9z"/>
		<path class="st1" d="M-98.2,94.4c0.1,0.1-1.2,1.5-1.6,1.8c0,0-0.8,0-1.2,0c0.8-0.7,2-1.5,2.1-1.8c0.1-0.2-0.4-0.4-0.4-0.7
			c0-0.2,0.3-0.4,0.6-0.5c0.1-0.1,0.5,0,0.6,0.2c0,0.1,0,0.5-0.2,0.6c-0.1,0-0.2-0.5-0.5-0.3c-0.1,0.1,0.1,0.4,0.4,0.4
			C-98.4,94.1-98.3,94.3-98.2,94.4z"/>
		<path class="st1" d="M-102.6,97c-0.1,0.7-0.8,1-1.2,1c-0.6,0-0.6-0.5-1-0.5c-0.1,0-0.2,0.1-0.3,0.1c0.1,1.2,0.2,2.2,0.2,2.9
			c0,0.2-0.3,0.8-0.7,1.1c-0.1,0.1-0.1-0.8,0-1.1c0-0.5,0-1.4-0.1-2.3c-0.1,0.1-0.3,0.1-0.4,0.1c-1.5,0-0.4-2.6-0.9-2.6
			c-0.5-0.1-0.4,2.4-1,2.4c-1.3,0-1.2-3.2-0.7-3.2c0.2,0,0.2,1.4,0.4,1.9c0.3,0.5,0.5-0.1,0.5-0.3c0.2-1.4,0.4-2,1-2
			c0.3,0,0.4,0.7,0.4,1.8c0,0.2-0.1,0.9,0.4,0.9c0,0,0.1,0,0.1,0c-0.1-1-0.2-1.8-0.3-1.9c-0.1-0.2-0.4-1.1-0.3-1.6
			c0-0.6,0.5-0.7,0.8-0.2c0.2,1.2,0.3,2.3,0.5,3.4c0.1-0.1,0.2-0.2,0.2-0.3c0.1-0.7-0.3-0.9-0.3-1.5c-0.1-0.9,0.3-1,0.3-1
			c0.8,0.2,0.6,1.7,0.6,2c0,0.4,0.7,0.8,0.8,0.8c0.3,0,0.3-0.3,0.3-0.4c0-0.6-0.4-0.9-0.6-1.2c0-0.1-0.2-0.4-0.2-0.7
			c0-0.3,0.3-0.6,0.5-0.6c0.4,0,0.9,1,0.8,1.1c0,0-0.2,0-0.3,0C-102.7,96-102.6,96.6-102.6,97z"/>
		<path class="st1" d="M-108.5,105c-0.3,0-0.6-0.6-0.6-0.8c-0.1-0.9,0.4-1.9,0.6-1.9c0.2,0-0.1,1.2-0.1,1.8c0.1,0,0.2,0,0.3,0
			c0.1,0,0.2-0.3,0.2-0.3c0.1,0,0.2,0.3,0.2,0.3C-107.9,104.3-108.1,105-108.5,105z"/>
		<path class="st1" d="M-106.3,99.6c-0.3,0.2-1,0.4-1.3,0.6c-0.4,0.2-0.9,0.5-1.2,0.6c0.4-0.8,0.7-1.1,1-1.3c0.2-0.2,0.7-0.4,1-0.5
			C-106.2,98.9-105.8,99.3-106.3,99.6z"/>
		<path class="st1" d="M-98.7,98.3c0,0.3-0.3,1.1-0.6,0.2c-0.2-0.4-0.5-0.1-0.7,0.4c-0.1,0.4-0.7,0.6-0.7,0c0-0.8-0.5-0.4-0.6-0.4
			c0,0,0,0,0,0c-0.1-0.9-0.2-2-0.4-3.3c0.1,0,0.2,0,0.4,0c0.1,0-0.4-1.4-0.8-2c-0.1-0.1-0.6,0-0.6,0.8c0,0.5,0.2,1.4,0.3,1.5
			c0,0,0.3,1.8,0.4,3.6c-0.1,0-0.2,0.1-0.2,0c0,0-0.7-0.8-1.2-0.8c-0.5,0-1,0.8-1,1.4c0,0.6,0.2,0.9,0.7,0.9c0.9,0,0.9-0.7,0.9-0.3
			c0,1-1.4,2-2.2,1.9c-1.4-0.1-0.7-2.2-1.2-2.2c-0.3,0-1.1,3.1,1.3,3.2c1,0,2.6-1.1,2.7-3.3c0-0.1,0.1-0.2,0.2-0.3c0,0.5,0,1,0,1.4
			c0,1.3-1.8,2.7-3.1,2.7c-2.1,0.1-1.4-2.4-1.9-2.4c-0.4,0-1.1,3.6,2,3.4c1.4-0.1,3.3-1.2,3.7-2.7c0.1-0.3,0.2-1.2,0.1-2.7
			c0.2,0.1,0.3,0.6,0.6,0.6c0.3,0,0.7-0.6,1-0.6c0.2,0,0.3,0.3,0.5,0.3c0.6,0,0.8-0.8,0.8-1.8C-98.5,98.1-98.7,98.1-98.7,98.3z
			 M-103.4,99.9c-0.2,0-0.3-0.1-0.3-0.2c0-0.2,0.1-0.3,0.3-0.3c0.2,0,0.3,0.2,0.3,0.3C-103.1,99.8-103.2,99.9-103.4,99.9z"/>
		<path class="st1" d="M-79.6,114.6c-0.3,0-0.5,0.2-0.5,0.2c-0.1,0.1-1-0.1-2.7-0.1c0.1-0.1,0.4-0.6,0.1-0.6c-0.3,0-0.1-0.4-0.2-0.4
			c-0.3,0-0.5,0.3-0.5,0.5c0,0.2,0.1,0.4,0.2,0.5c-0.2,0-0.4,0-0.6,0c-5.4,0-15.4,0-16.4-0.2c-0.4-0.1-4.4-0.2-4.3-0.1
			c0.3,0.5,1.4,1.1,2.3,1.2c0.4,0,12.2,0.1,19,0.1c0,0.3-0.1,0.4-0.1,0.5c0,0.4,0.2,0.8,0.4,0.8c0.2,0,0.2-0.3,0.2-0.3
			c1,0.1,2.8,0,2.8,0c0.1,0.2,0.2,0.3,0.4,0.3c0.7,0,0.7-0.8,0.7-1.1C-78.7,115.8-78.8,114.8-79.6,114.6z M-80.7,116.4
			c-0.1,0-0.1-0.2-0.5-0.2c-0.3,0-0.4,0.2-0.5,0.2c-0.3,0-0.6,0-0.9,0c0,0-0.1,0-0.1-0.2c0-0.1,0.1-0.2,0.1-0.4c1,0,1.9,0,2.5,0
			c0,0.2,0,0.4,0.1,0.6C-79.9,116.4-80.2,116.5-80.7,116.4z"/>
	</g>
</g>
<g>
	<path class="st7" d="M54.9,27.6c0,3-0.5,5.9-1.4,8.6h-28v18.6C11.5,53.7,0.4,42,0.4,27.6S11.5,1.6,25.5,0.5V19h28
		C54.4,21.7,54.9,24.6,54.9,27.6z"/>
	<g>
		<g>
			<g>
				<path class="st8" d="M22.4,17.2c-0.3-0.3-2.1-1.8-3.7-3.4c-0.7-0.8-1.4-1.5-1.8-2c-0.5-0.6-0.8-1-0.8-1.1l0,0l0,0
					c-0.2,0.1-0.6,0.3-0.9,0.4l0,0l0,0c0,0,0.2,0.4,0.7,1c0.4,0.6,1.2,1.5,2.3,2.6c0.9,0.9,1.9,1.8,3,2.7l0,0L22.4,17.2L22.4,17.2z
					 M21.3,17.5c-1.1-0.9-2.1-1.8-3-2.7c-1.1-1.1-1.9-2-2.3-2.6c-0.4-0.6-0.7-0.9-0.7-1c0.2-0.1,0.7-0.3,0.8-0.4
					c0.1,0.1,0.4,0.5,0.8,1.1c0.4,0.5,1.1,1.3,1.8,2c1.5,1.5,3.2,3,3.6,3.3L21.3,17.5z"/>
				<path class="st1" d="M22.4,17.2l-1.1,0.3c-1.1-0.9-2.1-1.8-3-2.7c-1.1-1.1-1.9-2-2.3-2.6c-0.4-0.6-0.7-0.9-0.7-1
					c0.2-0.1,0.7-0.3,0.8-0.4c0.1,0.1,0.4,0.5,0.8,1.1c0.4,0.5,1.1,1.3,1.8,2C20.3,15.4,22,16.9,22.4,17.2z"/>
				<path class="st8" d="M24.2,18.6c-0.1-0.1-0.3-0.2-0.5-0.4c-0.4-0.3-0.8-0.6-1.2-1.1l0,0l-1.4,0.4l0,0c0,0,0.2,0.2,0.5,0.4
					c0.3,0.2,0.7,0.5,1.1,0.7c0.1,0.1,0.4,0.2,0.7,0.3c0.2,0.1,0.4,0.1,0.5,0.1c0.1,0,0.1,0,0.2,0c0,0,0.1,0,0.1,0c0,0,0,0,0.1-0.1
					C24.4,18.8,24.3,18.7,24.2,18.6z M24.3,18.9c0,0-0.1,0.1-0.1,0.1c-0.1,0-0.4,0-0.7-0.1c-0.3-0.1-0.6-0.2-0.7-0.3
					c-0.4-0.2-0.8-0.5-1.1-0.7c-0.2-0.2-0.4-0.3-0.5-0.4l1.1-0.3l0.1,0c0.4,0.4,0.8,0.8,1.2,1.1c0.2,0.1,0.3,0.3,0.5,0.4
					C24.3,18.8,24.4,18.8,24.3,18.9z"/>
				<path class="st1" d="M24.3,18.9c0,0-0.1,0.1-0.1,0.1c-0.1,0-0.4,0-0.7-0.1c-0.3-0.1-0.6-0.2-0.7-0.3c-0.4-0.2-0.8-0.5-1.1-0.7
					c-0.2-0.2-0.4-0.3-0.5-0.4l1.1-0.3l0.1,0c0.4,0.4,0.8,0.8,1.2,1.1c0.2,0.1,0.3,0.3,0.5,0.4C24.3,18.8,24.4,18.8,24.3,18.9z"/>
				<path class="st9" d="M23.8,18.3c-0.3-0.3-0.8-0.6-1.2-1.1l0,0l-1.1,0.3l0,0c0,0,0.2,0.2,0.5,0.4c0.2,0.2,0.6,0.4,0.9,0.6
					c0,0,0,0,0.1,0c0.2,0.1,0.4,0.2,0.7,0.3c0.1,0,0.3,0.1,0.4,0.1h0c0.1,0,0.2,0,0.3-0.1C24.3,18.8,24.1,18.6,23.8,18.3z
					 M24.2,18.8c0,0.1-0.1,0.1-0.2,0.1c-0.3,0-0.8-0.2-1.1-0.4c0,0-0.1,0-0.1,0c-0.3-0.1-0.7-0.4-0.9-0.6c-0.2-0.2-0.4-0.3-0.4-0.4
					l1-0.3c0.4,0.4,0.8,0.8,1.2,1.1c0.2,0.1,0.3,0.2,0.4,0.3C24.2,18.8,24.2,18.8,24.2,18.8C24.2,18.8,24.2,18.8,24.2,18.8z"/>
				<g>
					<g>
						<path class="st9" d="M16.2,10.7C16.2,10.7,16.2,10.7,16.2,10.7c-0.1-0.2-0.8-1.4-1.6-2.5c-0.5-0.7-0.9-1.3-1.2-1.7
							C13.3,6.2,13.1,6,13,5.9c-0.1-0.1-0.3-0.2-0.3-0.2c0,0-0.1,0-0.1,0.1c0,0.1,0,0.5,0.2,1c0.2,0.4,0.4,1,0.8,1.6
							c0.6,1.2,1.3,2.4,1.5,2.8c0,0,0,0,0,0l0,0l0.1-0.1l0.8-0.4L16.2,10.7L16.2,10.7z M15.1,11.2c-0.2-0.4-0.9-1.5-1.5-2.8
							c-0.7-1.5-1.1-2.4-1-2.6c0,0,0,0,0-0.1c0,0,0,0,0,0c0.1,0,0.3,0.1,0.7,0.7c0.3,0.4,0.7,1,1.2,1.7c0.8,1.2,1.5,2.3,1.6,2.5
							L15.1,11.2z"/>
						<path class="st1" d="M16.2,10.7l-1.1,0.5c-0.2-0.4-0.9-1.5-1.5-2.8c-0.7-1.5-1.1-2.4-1-2.6c0,0,0,0,0-0.1c0,0,0,0,0,0
							c0.1,0,0.3,0.1,0.7,0.7c0.3,0.4,0.7,1,1.2,1.7C15.4,9.3,16.1,10.5,16.2,10.7z"/>
					</g>
					<g>
						<path class="st9" d="M15.5,9.7L15.5,9.7C15.5,9.7,15.5,9.7,15.5,9.7c-0.4-0.6-0.8-1.3-1.2-1.9c-0.4-0.6-0.7-1-0.9-1.3
							C13.2,6.2,13.1,6.1,13,6c-0.1-0.1-0.2-0.1-0.2-0.1c0,0,0,0,0,0.1c0,0.1,0.1,0.4,0.3,0.9c0.2,0.4,0.4,0.9,0.8,1.6
							c0.3,0.6,0.6,1.1,0.9,1.6l0,0l0.6,1.1l0.9-0.4L15.5,9.7z M12.8,6C12.8,6,12.8,6,12.8,6c0,0,0.1,0,0.2,0.1
							c0.1,0.1,0.2,0.2,0.3,0.4c0,0,0.1,0.1,0.1,0.1L13,6.7C12.8,6.3,12.7,6.1,12.8,6z M13.8,8.4c-0.4-0.8-0.6-1.3-0.8-1.7l0.4-0.2
							c0.2,0.3,0.5,0.7,0.8,1.2c0.4,0.6,0.8,1.3,1.2,1.9l-0.8,0.4C14.4,9.6,14.1,9,13.8,8.4z M15.2,11.1l-0.6-1l0,0l0.8-0.4l0,0
							l0.6,1L15.2,11.1z"/>
						<g>
							<path class="st9" d="M15.4,9.8l-0.7,0.3l0.5,0.9l0.7-0.3L15.4,9.8z M14.8,10.1l0.7-0.3l0.5,0.9L15.3,11L14.8,10.1z"/>
							<path class="st9" d="M15.4,10l-0.5,0.2l0.4,0.7l0.5-0.2L15.4,10z M15.4,10l0.3,0.6l-0.3-0.2L15.4,10z M15.3,10.8L15,10.2
								l0.4,0.2L15.3,10.8z M15,10.2l0.4-0.2l0,0.4L15,10.2z M15.3,10.8l0-0.4l0.4,0.2L15.3,10.8z"/>
						</g>
						<path class="st9" d="M13.1,6.3c0,0.1-0.1,0.1-0.1,0.1c-0.1,0-0.1-0.1-0.1-0.1c0-0.1,0.1-0.1,0.1-0.1C13,6.2,13.1,6.3,13.1,6.3
							z"/>
					</g>
				</g>
				<path class="st8" d="M19.6,15.1c-0.1-0.1-0.2-0.2-0.3-0.3c-0.1,0-0.1,0-0.2,0c0-0.1,0-0.2,0-0.2c0,0,0,0,0,0c0,0,0,0,0,0
					c0,0.1-0.1,0.1-0.1,0.1c0,0,0,0,0,0c-0.1,0-0.2-0.1-0.3-0.1c0,0,0-0.1,0-0.2l0,0c0,0.1,0,0.2,0,0.2c0,0.1,0.2,0.2,0.3,0.2
					c0,0,0,0,0,0c0,0,0.1,0,0.1-0.1c0,0,0,0.1,0,0.1c0,0-0.1,0-0.1,0l0,0c0,0,0.1,0,0.1,0c0,0,0,0,0,0l0,0
					C19.2,14.8,19.4,14.9,19.6,15.1c-0.1,0-0.1,0-0.1,0.1L19.6,15.1c0,0,0.1,0,0.2,0.1l0,0C19.7,15.1,19.6,15.1,19.6,15.1z"/>
				<path class="st8" d="M19.9,15.9C19.9,15.9,19.9,15.9,19.9,15.9c-0.1-0.1-0.1-0.1,0-0.1c0,0,0.1-0.1,0.1-0.1
					c0-0.1-0.1-0.1-0.2-0.1c-0.1,0-0.1,0-0.1-0.1c0,0,0-0.1,0-0.1c-0.1,0.1-0.2,0.1-0.2,0l0,0c0.1,0,0.2,0,0.2-0.1l0,0l0,0
					c0,0,0,0,0,0c0,0.1,0,0.1,0,0.1c0,0,0.1,0,0.1,0.1c0.1,0,0.2,0.1,0.2,0.1c0,0.1,0,0.1-0.1,0.2C19.9,15.8,19.9,15.8,19.9,15.9
					C19.9,15.9,19.9,15.9,19.9,15.9C20,15.9,20,15.9,19.9,15.9L19.9,15.9L19.9,15.9L19.9,15.9L19.9,15.9
					C20,15.9,19.9,15.9,19.9,15.9z"/>
				<path class="st8" d="M20.5,16.4L20.5,16.4c0.1-0.1,0.1-0.3,0-0.4c-0.1-0.1-0.2-0.2-0.5-0.1l0,0c0.1,0,0.2-0.1,0.3,0
					c0.1,0,0.2,0.1,0.2,0.1c0,0.1,0.1,0.1,0.1,0.2C20.6,16.3,20.5,16.3,20.5,16.4z"/>
				<path class="st8" d="M20.9,16.8L20.9,16.8c-0.1,0-0.2-0.1-0.3-0.2c0,0,0-0.1,0-0.1c0,0-0.1,0.1-0.1,0.1c0,0-0.1,0-0.1,0
					c0,0,0-0.1,0-0.1h0c0,0,0,0,0,0.1c0,0,0,0,0.1,0c0,0,0.1-0.1,0.1-0.1c0,0,0,0,0,0c0,0,0.1-0.1,0.1-0.1c0,0,0,0,0,0l0,0l0,0
					c0,0,0,0,0,0c0,0,0,0.1-0.1,0.1c0,0,0,0.1,0,0.1C20.7,16.7,20.8,16.8,20.9,16.8L20.9,16.8c0,0,0.1-0.1,0.1-0.1
					c0.1,0,0.1-0.1,0.1-0.1c0,0,0.1,0,0.1,0.1l0,0c0,0,0-0.1-0.1-0.1c0,0,0,0,0,0c0,0,0,0-0.1,0.1C21,16.8,21,16.8,20.9,16.8z"/>
				<path class="st8" d="M21.6,17.4c0-0.1,0-0.2,0-0.3l0,0c-0.1,0.1-0.2,0.1-0.3,0.1c0,0,0,0-0.1,0c-0.1,0-0.2-0.1-0.2-0.2
					c0-0.1,0-0.2,0.1-0.3l0,0c-0.1,0.1-0.1,0.2-0.1,0.3c0,0.1,0.1,0.1,0.2,0.1c0,0,0,0,0.1,0c0.1,0,0.2-0.1,0.4-0.2c0,0,0,0,0,0
					c0,0,0,0,0,0l0,0c0,0,0,0,0,0l0,0l0,0c0,0,0,0,0,0c0,0,0,0,0,0.1C21.6,17.2,21.6,17.3,21.6,17.4L21.6,17.4z"/>
				<path class="st8" d="M23.6,18.6c-0.1,0-0.1,0-0.1,0c0,0-0.1,0-0.1-0.1c0,0,0-0.1,0-0.1c0-0.1,0.1-0.2-0.1-0.3
					c-0.1-0.1-0.2,0-0.3,0.1c-0.1,0.1-0.2,0.1-0.3,0.1l0,0l0,0l0,0c0,0,0.1,0,0.1-0.1c0,0,0,0,0,0c0,0,0,0,0-0.1c0,0,0,0,0-0.1
					c0,0-0.1-0.1-0.1-0.2c0,0-0.1,0.1-0.1,0.1c0,0,0,0,0,0c-0.1,0-0.1,0-0.1-0.1c0,0,0,0,0-0.1c-0.1,0-0.1,0.1-0.1,0.2
					c0,0,0,0.1,0,0.1c0,0.1,0,0.1-0.1,0.1c0,0,0,0,0,0c0,0-0.1,0-0.1-0.1c0,0,0-0.1,0-0.1c0,0,0-0.1,0-0.1c0,0-0.1,0-0.1,0
					c-0.1,0-0.2,0-0.2-0.1c0,0,0,0,0,0c0-0.1,0.1-0.1,0.2-0.1c0.1,0,0.1,0,0.1,0c0,0,0.1,0,0.1,0c0.1,0,0.1-0.1,0.1-0.1c0,0,0,0,0,0
					c0,0,0,0,0,0c0,0,0,0.1-0.1,0.1c0,0-0.1,0-0.1,0c0,0-0.1-0.1-0.1,0c-0.1,0-0.2,0.1-0.2,0.1c0,0,0,0,0,0c0,0.1,0.1,0.1,0.2,0.1
					c0.1,0,0.1,0,0.1,0c0,0,0,0.1,0,0.1c0,0,0,0.1,0,0.1c0,0,0.1,0.1,0.1,0.1c0,0,0,0,0,0c0,0,0,0,0,0c0,0,0,0,0-0.1
					c0,0,0-0.1,0-0.1c0-0.1,0.1-0.2,0.2-0.2l0,0l0,0c0,0,0,0,0,0c0,0.1-0.1,0.1,0,0.1c0,0,0,0,0.1,0c0,0,0,0,0,0
					c0.1,0,0.1,0,0.1-0.1c0,0,0,0,0,0c0,0,0,0,0,0c0,0.1,0,0.2,0.1,0.2c0,0,0,0,0,0.1c0,0,0,0.1,0,0.1c0,0,0,0,0,0
					c0,0.1,0,0.1-0.1,0.1c0.1,0,0.1-0.1,0.2-0.1c0.1-0.1,0.2-0.1,0.3-0.1c0.2,0.1,0.1,0.2,0.1,0.3c0,0,0,0.1,0,0.1c0,0,0,0,0,0.1
					c0.1,0,0.2,0,0.2,0l0,0C23.7,18.6,23.7,18.6,23.6,18.6z"/>
			</g>
			<g>
				<path class="st8" d="M12.8,17.2l1.2,0.3l0,0c1.1-0.9,2.1-1.8,3-2.7c1.1-1.1,1.9-2.1,2.3-2.6c0.5-0.6,0.7-1,0.7-1l0,0l0,0
					c-0.2-0.1-0.7-0.3-0.9-0.4l0,0l0,0c0,0.1-0.4,0.5-0.8,1.1c-0.4,0.5-1.1,1.3-1.8,2C14.9,15.4,13.1,16.9,12.8,17.2L12.8,17.2z
					 M12.8,17.2c0.4-0.3,2.1-1.8,3.6-3.3c0.7-0.8,1.4-1.5,1.8-2c0.5-0.6,0.8-1,0.8-1.1c0.2,0.1,0.6,0.3,0.8,0.4c0,0.1-0.3,0.4-0.7,1
					c-0.4,0.6-1.2,1.5-2.3,2.6c-0.9,0.9-1.9,1.8-3,2.7L12.8,17.2z"/>
				<path class="st1" d="M12.8,17.2l1.1,0.3c1.1-0.9,2.1-1.8,3-2.7c1.1-1.1,1.9-2,2.3-2.6c0.4-0.6,0.7-0.9,0.7-1
					c-0.2-0.1-0.7-0.3-0.8-0.4c-0.1,0.1-0.4,0.5-0.8,1.1c-0.4,0.5-1.1,1.3-1.8,2C15,15.4,13.2,16.9,12.8,17.2z"/>
				<path class="st8" d="M10.9,18.9C10.9,18.9,10.9,18.9,10.9,18.9C10.9,19,11,19,11,19c0,0,0.1,0,0.2,0c0.1,0,0.3,0,0.5-0.1
					c0.3-0.1,0.6-0.2,0.7-0.3c0.4-0.2,0.8-0.5,1.1-0.7c0.3-0.2,0.5-0.4,0.5-0.4l0,0l-1.4-0.4l0,0c-0.4,0.4-0.8,0.8-1.2,1.1
					c-0.2,0.2-0.3,0.3-0.5,0.4C10.9,18.7,10.8,18.8,10.9,18.9z M11,18.7c0.1-0.1,0.3-0.2,0.5-0.4c0.4-0.3,0.8-0.6,1.2-1.1l0.1,0
					l1.1,0.3c-0.1,0.1-0.2,0.2-0.5,0.4c-0.3,0.2-0.7,0.5-1.1,0.7c-0.1,0.1-0.4,0.2-0.7,0.3C11.4,19,11.1,19,11,19
					c-0.1,0-0.1-0.1-0.1-0.1C10.9,18.8,10.9,18.8,11,18.7z"/>
				<path class="st1" d="M10.9,18.9c0,0,0.1,0.1,0.1,0.1c0.1,0,0.4,0,0.7-0.1c0.3-0.1,0.6-0.2,0.7-0.3c0.4-0.2,0.8-0.5,1.1-0.7
					c0.2-0.2,0.4-0.3,0.5-0.4l-1.1-0.3l-0.1,0c-0.4,0.4-0.8,0.8-1.2,1.1c-0.2,0.1-0.3,0.3-0.5,0.4C10.9,18.8,10.9,18.8,10.9,18.9z"
					/>
				<path class="st9" d="M11,18.8c0.1,0.1,0.1,0.1,0.3,0.1h0c0.1,0,0.2,0,0.4-0.1c0.3-0.1,0.5-0.2,0.7-0.3c0,0,0.1,0,0.1,0
					c0.3-0.2,0.7-0.4,0.9-0.6c0.3-0.2,0.4-0.4,0.5-0.4l0,0l-1.1-0.3l0,0c-0.4,0.4-0.8,0.8-1.2,1.1C11.1,18.6,10.9,18.8,11,18.8z
					 M11,18.8c0,0,0-0.1,0.1-0.1c0.1-0.1,0.2-0.2,0.4-0.3c0.3-0.3,0.8-0.6,1.2-1.1l1,0.3c-0.1,0.1-0.2,0.2-0.4,0.4
					c-0.2,0.2-0.6,0.4-0.9,0.6c0,0,0,0-0.1,0c-0.2,0.1-0.7,0.4-1.1,0.4C11.1,18.9,11,18.9,11,18.8C11,18.8,11,18.8,11,18.8z"/>
				<g>
					<g>
						<path class="st9" d="M19,10.7l0.1,0.1l0.8,0.4l0.1,0.1l0,0c0,0,0,0,0,0c0.2-0.4,0.9-1.5,1.5-2.8c0.3-0.7,0.6-1.2,0.8-1.6
							c0.2-0.5,0.3-0.9,0.2-1c0,0,0-0.1-0.1-0.1c-0.1,0-0.2,0-0.3,0.2c-0.1,0.1-0.3,0.3-0.5,0.5c-0.3,0.4-0.7,1-1.2,1.7
							C19.8,9.3,19.1,10.5,19,10.7C19,10.7,19,10.7,19,10.7L19,10.7z M19,10.7c0.1-0.2,0.8-1.4,1.6-2.5c0.5-0.7,0.9-1.3,1.2-1.7
							c0.4-0.6,0.6-0.7,0.7-0.7c0,0,0,0,0,0c0,0,0,0,0,0.1c0.1,0.2-0.3,1.1-1,2.6c-0.6,1.2-1.3,2.4-1.5,2.8L19,10.7z"/>
						<path class="st1" d="M19,10.7l1.1,0.5c0.2-0.4,0.9-1.5,1.5-2.8c0.7-1.5,1.1-2.4,1-2.6c0,0,0,0,0-0.1c0,0,0,0,0,0
							c-0.1,0-0.3,0.1-0.7,0.7c-0.3,0.4-0.7,1-1.2,1.7C19.8,9.3,19.1,10.5,19,10.7z"/>
					</g>
					<g>
						<path class="st9" d="M19.1,10.7l0.9,0.4l0.6-1.1l0,0c0.3-0.5,0.6-1,0.9-1.6c0.3-0.6,0.6-1.2,0.8-1.6c0.2-0.5,0.3-0.8,0.3-0.9
							c0,0,0,0,0-0.1c0,0-0.1,0-0.2,0.1c-0.1,0.1-0.2,0.2-0.3,0.4c-0.2,0.3-0.6,0.8-0.9,1.3c-0.4,0.6-0.8,1.3-1.2,1.9c0,0,0,0,0,0
							l0,0L19.1,10.7z M22.3,6.7l-0.4-0.2c0,0,0.1-0.1,0.1-0.1c0.1-0.2,0.3-0.3,0.3-0.4c0.1-0.1,0.2-0.1,0.2-0.1c0,0,0,0,0,0
							C22.5,6.1,22.4,6.3,22.3,6.7z M20.6,10.1l-0.8-0.4c0.4-0.6,0.8-1.3,1.2-1.9c0.3-0.5,0.6-0.9,0.8-1.2l0.4,0.2
							c-0.2,0.4-0.4,0.9-0.8,1.7C21.2,9,20.8,9.6,20.6,10.1z M19.1,10.7l0.6-1l0,0l0.8,0.4l0,0l-0.6,1L19.1,10.7z"/>
						<g>
							<path class="st9" d="M19.2,10.7l0.7,0.3l0.5-0.9l-0.7-0.3L19.2,10.7z M19.9,11l-0.6-0.3l0.5-0.9l0.7,0.3L19.9,11z"/>
							<path class="st9" d="M19.4,10.6l0.5,0.2l0.4-0.7L19.8,10L19.4,10.6z M19.8,10.4l-0.3,0.2l0.3-0.6L19.8,10.4z M19.9,10.4
								l0.4-0.2l-0.3,0.6L19.9,10.4z M19.9,10.4l0-0.4l0.4,0.2L19.9,10.4z M19.5,10.6l0.4-0.2l0,0.4L19.5,10.6z"/>
						</g>
						<path class="st9" d="M22.1,6.3c0,0.1,0.1,0.1,0.1,0.1c0.1,0,0.1-0.1,0.1-0.1c0-0.1-0.1-0.1-0.1-0.1
							C22.2,6.2,22.1,6.3,22.1,6.3z"/>
					</g>
				</g>
				<path class="st8" d="M15.6,15.1c0.1-0.1,0.2-0.2,0.3-0.3c0.1,0,0.1,0,0.2,0c0-0.1,0-0.2,0-0.2c0,0,0,0,0,0c0,0,0,0,0,0
					c0,0.1,0.1,0.1,0.1,0.1c0,0,0,0,0,0c0.1,0,0.2-0.1,0.3-0.1c0,0,0-0.1,0-0.2l0,0c0,0.1,0,0.2,0,0.2c0,0.1-0.2,0.2-0.3,0.2
					c0,0,0,0,0,0c0,0-0.1,0-0.1-0.1c0,0,0,0.1,0,0.1c0,0,0.1,0,0.1,0l0,0c0,0-0.1,0-0.1,0c0,0,0,0,0,0l0,0
					C16,14.8,15.8,14.9,15.6,15.1c0.1,0,0.1,0,0.1,0.1L15.6,15.1c0,0-0.1,0-0.2,0.1l0,0C15.5,15.1,15.6,15.1,15.6,15.1z"/>
				<path class="st8" d="M15.3,15.9C15.3,15.9,15.3,15.9,15.3,15.9c0.1-0.1,0.1-0.1,0-0.1c0,0-0.1-0.1-0.1-0.1
					c0-0.1,0.1-0.1,0.2-0.1c0.1,0,0.1,0,0.1-0.1c0,0,0-0.1,0-0.1c0.1,0.1,0.2,0.1,0.2,0l0,0c-0.1,0-0.2,0-0.2-0.1l0,0l0,0
					c0,0,0,0,0,0c0,0.1,0,0.1,0,0.1c0,0-0.1,0-0.1,0.1c-0.1,0-0.2,0.1-0.2,0.1c0,0.1,0,0.1,0.1,0.2C15.3,15.8,15.3,15.8,15.3,15.9
					C15.3,15.9,15.3,15.9,15.3,15.9C15.2,15.9,15.2,15.9,15.3,15.9L15.3,15.9L15.3,15.9L15.3,15.9L15.3,15.9
					C15.2,15.9,15.3,15.9,15.3,15.9z"/>
				<path class="st8" d="M14.7,16.4L14.7,16.4c-0.1-0.1-0.1-0.3,0-0.4c0.1-0.1,0.2-0.2,0.5-0.1l0,0c-0.1,0-0.2-0.1-0.3,0
					c-0.1,0-0.2,0.1-0.2,0.1c0,0.1-0.1,0.1-0.1,0.2C14.6,16.3,14.7,16.3,14.7,16.4z"/>
				<path class="st8" d="M14.3,16.8L14.3,16.8c0.1,0,0.2-0.1,0.3-0.2c0,0,0-0.1,0-0.1c0,0,0.1,0.1,0.1,0.1c0,0,0.1,0,0.1,0
					c0,0,0-0.1,0-0.1h0c0,0,0,0,0,0.1c0,0,0,0-0.1,0c0,0-0.1-0.1-0.1-0.1c0,0,0,0,0,0c0,0-0.1-0.1-0.1-0.1c0,0,0,0,0,0l0,0l0,0
					c0,0,0,0,0,0c0,0,0,0.1,0.1,0.1c0,0,0,0.1,0,0.1C14.5,16.7,14.4,16.8,14.3,16.8L14.3,16.8c0,0-0.1-0.1-0.1-0.1
					c-0.1,0-0.1-0.1-0.1-0.1c0,0-0.1,0-0.1,0.1l0,0c0,0,0-0.1,0.1-0.1c0,0,0,0,0,0c0,0,0,0,0.1,0.1C14.2,16.8,14.3,16.8,14.3,16.8z"
					/>
				<path class="st8" d="M13.6,17.4c0-0.1,0-0.2,0-0.3l0,0c0.1,0.1,0.2,0.1,0.3,0.1c0,0,0,0,0.1,0c0.1,0,0.2-0.1,0.2-0.2
					c0-0.1,0-0.2-0.1-0.3l0,0c0.1,0.1,0.1,0.2,0.1,0.3c0,0.1-0.1,0.1-0.2,0.1c0,0,0,0-0.1,0c-0.1,0-0.2-0.1-0.4-0.2c0,0,0,0,0,0
					c0,0,0,0,0,0l0,0c0,0,0,0,0,0l0,0l0,0c0,0,0,0,0,0c0,0,0,0,0,0.1C13.6,17.2,13.6,17.3,13.6,17.4L13.6,17.4z"/>
				<path class="st8" d="M11.6,18.6c0.1,0,0.1,0,0.1,0c0,0,0.1,0,0.1-0.1c0,0,0-0.1,0-0.1c0-0.1-0.1-0.2,0.1-0.3
					c0.1-0.1,0.2,0,0.3,0.1c0.1,0.1,0.2,0.1,0.3,0.1l0,0l0,0l0,0c0,0-0.1,0-0.1-0.1c0,0,0,0,0,0c0,0,0,0,0-0.1c0,0,0,0,0-0.1
					c0,0,0.1-0.1,0.1-0.2c0,0,0.1,0.1,0.1,0.1c0,0,0,0,0,0c0.1,0,0.1,0,0.1-0.1c0,0,0,0,0-0.1c0.1,0,0.1,0.1,0.1,0.2
					c0,0,0,0.1,0,0.1c0,0.1,0,0.1,0.1,0.1c0,0,0,0,0,0c0,0,0.1,0,0.1-0.1c0,0,0-0.1,0-0.1c0,0,0-0.1,0-0.1c0,0,0.1,0,0.1,0
					c0.1,0,0.2,0,0.2-0.1c0,0,0,0,0,0c0-0.1-0.1-0.1-0.2-0.1c-0.1,0-0.1,0-0.1,0c0,0-0.1,0-0.1,0c-0.1,0-0.1-0.1-0.1-0.1
					c0,0,0,0,0,0c0,0,0,0,0,0c0,0,0,0.1,0.1,0.1c0,0,0.1,0,0.1,0c0,0,0.1-0.1,0.1,0c0.1,0,0.2,0.1,0.2,0.1c0,0,0,0,0,0
					c0,0.1-0.1,0.1-0.2,0.1c-0.1,0-0.1,0-0.1,0c0,0,0,0.1,0,0.1c0,0,0,0.1,0,0.1c0,0-0.1,0.1-0.1,0.1c0,0,0,0,0,0c0,0,0,0,0,0
					c0,0,0,0,0-0.1c0,0,0-0.1,0-0.1c0-0.1-0.1-0.2-0.2-0.2l0,0l0,0c0,0,0,0,0,0c0,0.1,0.1,0.1,0,0.1c0,0,0,0-0.1,0c0,0,0,0,0,0
					c-0.1,0-0.1,0-0.1-0.1c0,0,0,0,0,0c0,0,0,0,0,0c0,0.1,0,0.2-0.1,0.2c0,0,0,0,0,0.1c0,0,0,0.1,0,0.1c0,0,0,0,0,0
					c0,0.1,0,0.1,0.1,0.1c-0.1,0-0.1-0.1-0.2-0.1c-0.1-0.1-0.2-0.1-0.3-0.1c-0.2,0.1-0.1,0.2-0.1,0.3c0,0,0,0.1,0,0.1c0,0,0,0,0,0.1
					c-0.1,0-0.2,0-0.2,0l0,0C11.5,18.6,11.5,18.6,11.6,18.6z"/>
			</g>
		</g>
		<g>
			<g>
				<path class="st8" d="M18,8.6V7.8H18V7.3h0V7h-0.8v0.3h0v0.5h-0.1v0.8h-0.1v0.4h1V8.6H18z M17.3,7H18v0.3h-0.7V7z M17.9,7.3v0.5
					h-0.7V7.3H17.9z M17.2,7.8H18v0.4h-0.8V7.8z M17.2,8.3H18v0.4h-0.8V8.3z M18.1,9h-1V8.7h1V9z"/>
				<g>
					<rect x="17.2" y="7.8" class="st1" width="0.8" height="0.4"/>
					<rect x="17.2" y="8.3" class="st1" width="0.8" height="0.4"/>
					<g>
						<rect x="17.3" y="7" class="st1" width="0.7" height="0.3"/>
						<rect x="17.3" y="7.3" class="st1" width="0.7" height="0.5"/>
						<rect x="17.1" y="8.7" class="st1" width="1" height="0.4"/>
					</g>
				</g>
			</g>
			<g>
				<path class="st8" d="M18.6,6.2C18.6,6.2,18.6,6.2,18.6,6.2c-0.1-0.1-0.2-0.2-0.3-0.3c-0.1-0.1-0.3-0.1-0.4-0.2
					c0-0.1-0.1-0.2-0.3-0.2c-0.1,0-0.3,0.1-0.3,0.2c-0.2,0-0.3,0.1-0.4,0.2c-0.1,0.1-0.2,0.2-0.2,0.3c0,0,0,0,0,0
					c-0.1,0-0.3,0.1-0.3,0.2c0,0.1,0.1,0.2,0.3,0.2c0,0,0,0,0.1,0c0,0.1,0.1,0.2,0.2,0.2C17.1,7,17.3,7,17.6,7
					c0.3,0,0.5-0.1,0.7-0.2c0.1-0.1,0.2-0.1,0.2-0.2c0,0,0,0,0.1,0c0.1,0,0.3-0.1,0.3-0.2C18.8,6.3,18.7,6.2,18.6,6.2z M17.4,5.7
					c0-0.1,0.1-0.2,0.2-0.2c0.1,0,0.2,0.1,0.2,0.2c0,0,0,0,0,0c0,0,0,0,0,0c0,0.1-0.1,0.2-0.2,0.2C17.5,5.9,17.4,5.8,17.4,5.7
					C17.4,5.7,17.4,5.7,17.4,5.7C17.4,5.7,17.4,5.7,17.4,5.7z M16.7,6.6C16.7,6.6,16.7,6.6,16.7,6.6c-0.2,0-0.3-0.1-0.3-0.2
					c0-0.1,0.1-0.2,0.2-0.2c0,0,0,0,0,0c0,0,0,0,0,0c0.1,0,0.2,0.1,0.2,0.2C16.9,6.5,16.8,6.5,16.7,6.6C16.7,6.6,16.7,6.6,16.7,6.6z
					 M16.7,6.6c0.1,0,0.2-0.1,0.2-0.2c0-0.1-0.1-0.2-0.2-0.2c0-0.1,0.1-0.2,0.2-0.2C17,6,17.1,6.2,17.1,6.3c0,0.2-0.2,0.4-0.2,0.5
					C16.8,6.7,16.8,6.7,16.7,6.6z M16.9,6.8c0-0.1,0.2-0.3,0.2-0.5c0-0.1-0.1-0.3-0.2-0.4c0,0,0.1,0,0.1-0.1
					c0.2,0.2,0.2,0.3,0.2,0.5c0,0.2-0.2,0.5-0.2,0.6C17,6.8,16.9,6.8,16.9,6.8z M17.6,7c-0.2,0-0.4,0-0.5-0.1c0-0.1,0.2-0.4,0.2-0.6
					c0-0.2-0.1-0.4-0.2-0.5c0.1,0,0.2-0.1,0.3-0.1c0,0.1,0.1,0.2,0.3,0.2c0.1,0,0.2-0.1,0.3-0.2c0.1,0,0.2,0.1,0.3,0.1
					c-0.1,0.1-0.2,0.3-0.2,0.5c0,0.2,0.2,0.5,0.2,0.6C18,7,17.8,7,17.6,7z M18.2,6.9c0-0.1-0.2-0.4-0.2-0.6C18,6.2,18,6,18.2,5.8
					c0,0,0.1,0,0.1,0.1c-0.1,0.1-0.2,0.3-0.2,0.4c0,0.2,0.2,0.4,0.2,0.5C18.3,6.8,18.2,6.8,18.2,6.9z M18.3,6.8
					c0-0.1-0.2-0.3-0.2-0.5c0-0.1,0.1-0.3,0.2-0.4c0.1,0.1,0.1,0.1,0.2,0.2c-0.1,0-0.2,0.1-0.2,0.2c0,0.1,0.1,0.2,0.2,0.2
					C18.4,6.7,18.4,6.7,18.3,6.8z M18.6,6.6C18.6,6.6,18.5,6.6,18.6,6.6C18.5,6.6,18.5,6.6,18.6,6.6c-0.2,0-0.2-0.1-0.2-0.2
					c0-0.1,0.1-0.2,0.2-0.2c0,0,0,0,0,0c0,0,0,0,0,0c0.1,0,0.2,0.1,0.2,0.2C18.8,6.5,18.7,6.6,18.6,6.6z"/>
				<path class="st8" d="M17.6,6.1c-0.1,0-0.3,0.1-0.3,0.2c0,0.1,0.1,0.2,0.3,0.2c0.1,0,0.3-0.1,0.3-0.2C17.9,6.3,17.8,6.1,17.6,6.1
					z M17.6,6.6c-0.1,0-0.2-0.1-0.2-0.2c0-0.1,0.1-0.2,0.2-0.2c0.1,0,0.2,0.1,0.2,0.2C17.8,6.5,17.7,6.6,17.6,6.6z"/>
				<path class="st1" d="M18.5,6.6c0,0.1-0.1,0.1-0.1,0.2c0-0.1-0.2-0.3-0.2-0.5c0-0.1,0.1-0.3,0.2-0.4c0.1,0.1,0.1,0.1,0.2,0.2
					c-0.1,0-0.2,0.1-0.2,0.2C18.3,6.5,18.4,6.6,18.5,6.6z"/>
				<path class="st1" d="M18.3,6.8c0,0-0.1,0.1-0.1,0.1c0-0.1-0.2-0.4-0.2-0.6C18,6.2,18,6,18.2,5.8c0,0,0.1,0,0.1,0.1
					c-0.1,0.1-0.2,0.3-0.2,0.4C18.1,6.5,18.3,6.7,18.3,6.8z"/>
				<path class="st1" d="M18.2,5.8c-0.1,0-0.2-0.1-0.3-0.1c0,0.1-0.1,0.2-0.3,0.2c-0.1,0-0.2-0.1-0.3-0.2c-0.1,0-0.2,0.1-0.3,0.1
					c0.1,0.1,0.2,0.3,0.2,0.5c0,0.2-0.2,0.5-0.2,0.6C17.2,7,17.4,7,17.6,7c0.2,0,0.4,0,0.5-0.1c0-0.1-0.2-0.4-0.2-0.6
					C17.9,6.1,18,5.9,18.2,5.8z M17.6,6.6c-0.1,0-0.3-0.1-0.3-0.2c0-0.1,0.1-0.2,0.3-0.2c0.1,0,0.3,0.1,0.3,0.2
					C17.9,6.5,17.8,6.6,17.6,6.6z"/>
				<path class="st1" d="M17.1,6.3c0,0.2-0.2,0.4-0.2,0.5c-0.1-0.1-0.1-0.1-0.1-0.2c0.1,0,0.2-0.1,0.2-0.2c0-0.1-0.1-0.2-0.2-0.2
					c0-0.1,0.1-0.2,0.2-0.2C17,6,17.1,6.2,17.1,6.3z"/>
				<path class="st1" d="M17.3,6.3c0,0.2-0.2,0.5-0.2,0.6c0,0-0.1,0-0.1-0.1c0-0.1,0.2-0.3,0.2-0.5c0-0.1-0.1-0.3-0.2-0.4
					c0,0,0.1,0,0.1-0.1C17.2,6,17.3,6.2,17.3,6.3z"/>
				<path class="st1" d="M17.8,5.7C17.8,5.7,17.8,5.7,17.8,5.7c0,0.1-0.1,0.2-0.2,0.2c-0.1,0-0.2-0.1-0.2-0.2c0,0,0,0,0,0
					c0,0,0,0,0,0c0-0.1,0.1-0.2,0.2-0.2C17.7,5.5,17.8,5.6,17.8,5.7C17.8,5.7,17.8,5.7,17.8,5.7z"/>
				<path class="st1" d="M17.8,6.4c0,0.1-0.1,0.2-0.2,0.2c-0.1,0-0.2-0.1-0.2-0.2c0-0.1,0.1-0.2,0.2-0.2C17.7,6.2,17.8,6.3,17.8,6.4
					z"/>
				<g>
					<path class="st1" d="M16.9,6.4c0,0.1-0.1,0.2-0.2,0.2c0,0,0,0,0,0c0,0,0,0,0,0c-0.1,0-0.2-0.1-0.2-0.2c0-0.1,0.1-0.2,0.2-0.2
						c0,0,0,0,0,0c0,0,0,0,0,0C16.8,6.2,16.9,6.3,16.9,6.4z"/>
					<path class="st1" d="M18.8,6.4c0,0.1-0.1,0.2-0.2,0.2c0,0,0,0,0,0c0,0,0,0,0,0c-0.1,0-0.2-0.1-0.2-0.2c0-0.1,0.1-0.2,0.2-0.2
						c0,0,0,0,0,0c0,0,0,0,0,0C18.7,6.2,18.8,6.3,18.8,6.4z"/>
				</g>
			</g>
		</g>
		<path class="st8" d="M18.8,13.3l0-3.8l0,0l0,0c0,0-0.2,0-0.4-0.1c-0.1,0-0.1-0.1-0.2-0.2c0,0,0-0.1,0-0.1h0v0H17v0h0
			c0,0,0,0.2-0.2,0.3c-0.2,0.1-0.4,0.1-0.4,0.1l0,0l0,3.3c0,0,0,0.2,0,0.2c0,0,0,0.1-0.1,0.1h-0.4l0,0c0,0,0,0,0,0
			c-0.2,0-1.5,0-2.7,0.1c0,0,0,0,0,0l0,0l-0.5,0.1l0,0c-0.4,0.1-0.8,0.1-1,0.2c-0.2,0.1-0.3,0.2-0.3,0.3c0,0.2,0.2,0.3,0.6,0.5
			c0.2,0.1,0.3,0.1,0.4,0.2c0.1,0,0.1,0.1,0.2,0.1c0,0,0,0,0,0l0,0l0.5,0.1c0,0,0,0,0,0c0.1,0,0.1,0,0.2,0c0.5,0.1,1.2,0.3,2.6,0.4
			c0,0,0,0,0,0l0.4,0c0.1,0,0.1,0,0.2,0c0.4,0,0.7,0,1-0.1c0.3-0.1,0.5-0.2,0.7-0.4c0.1-0.1,0.2-0.3,0.3-0.5
			c0.1-0.1,0.1-0.3,0.2-0.4C18.8,13.5,18.8,13.3,18.8,13.3z M12,14.3c-0.4-0.2-0.6-0.3-0.6-0.5c0-0.1,0.1-0.2,0.3-0.2
			c0.2-0.1,0.5-0.1,0.9-0.2c0,0,0,0,0,0c0,0,0,0,0,0c0,0.1-0.1,0.3-0.1,0.5c0,0.1,0,0.3,0,0.4c0,0,0,0,0,0c0,0,0,0.1,0,0.1
			C12.5,14.5,12.3,14.4,12,14.3z M12.7,14.6c0-0.1-0.1-0.3-0.1-0.6c0-0.3,0.1-0.6,0.1-0.6l0.4-0.1c0,0.1-0.1,0.4-0.1,0.7
			c0,0.1,0,0.3,0,0.5c0,0.1,0,0.2,0,0.2c0,0,0,0,0,0L12.7,14.6z M13.3,14.7c-0.1,0-0.1,0-0.2,0c0-0.1-0.1-0.5-0.1-0.7
			c0-0.2,0-0.5,0.1-0.7c1.3-0.1,2.6-0.1,2.7-0.1c0,0.2-0.1,0.6-0.1,1c0,0.4,0.1,0.8,0.1,1C14.5,15,13.8,14.8,13.3,14.7z M15.9,15.2
			c0-0.1-0.1-0.6-0.1-1c0-0.4,0.1-0.9,0.1-1h0.3c0,0.1-0.1,0.6-0.1,1c0,0.2,0,0.5,0,0.7c0,0.1,0,0.2,0,0.3c0,0,0,0.1,0,0.1H15.9z
			 M18.7,13.7c-0.1,0.2-0.2,0.6-0.5,0.9c-0.4,0.4-1.1,0.6-1.9,0.6l0,0c0-0.1-0.1-0.7-0.1-1c0-0.4,0.1-0.9,0.1-1c0,0,0.1-0.1,0.1-0.2
			c0,0,0-0.2,0-0.2l0,0l0-3.3c0.1,0,0.2,0,0.4-0.1C17,9.3,17,9.2,17,9.2c0,0,0-0.1,0-0.1h1.1c0,0,0,0.1,0,0.1c0,0.1,0.1,0.1,0.2,0.2
			c0.2,0.1,0.3,0.1,0.4,0.1l0,3.8C18.8,13.3,18.8,13.5,18.7,13.7z"/>
		<g>
			<path class="st1" d="M18.7,13.7c-0.1,0.2-0.2,0.6-0.5,0.9c-0.4,0.4-1.1,0.6-1.9,0.6l0,0c0-0.1-0.1-0.7-0.1-1c0-0.4,0.1-0.9,0.1-1
				c0,0,0.1-0.1,0.1-0.2c0,0,0-0.2,0-0.2l0,0l0-3.3c0.1,0,0.2,0,0.4-0.1C17,9.3,17,9.2,17,9.2c0,0,0-0.1,0-0.1h1.1c0,0,0,0.1,0,0.1
				c0,0.1,0.1,0.1,0.2,0.2c0.2,0.1,0.3,0.1,0.4,0.1l0,3.8C18.8,13.3,18.8,13.5,18.7,13.7z"/>
			<path class="st1" d="M15.9,15.1c-1.4-0.1-2-0.3-2.6-0.4c-0.1,0-0.1,0-0.2,0c0-0.1-0.1-0.5-0.1-0.7c0-0.2,0-0.5,0.1-0.7
				c1.3-0.1,2.6-0.1,2.7-0.1c0,0.2-0.1,0.6-0.1,1C15.8,14.5,15.9,15,15.9,15.1z"/>
			<path class="st1" d="M16.3,15.1C16.3,15.1,16.3,15.2,16.3,15.1l-0.3,0.1c0-0.1-0.1-0.6-0.1-1c0-0.4,0.1-0.9,0.1-1h0.3
				c0,0.1-0.1,0.6-0.1,1c0,0.2,0,0.5,0,0.7C16.2,15,16.2,15.1,16.3,15.1z"/>
			<path class="st1" d="M13.1,14.6C13.1,14.7,13.1,14.7,13.1,14.6l-0.4-0.1c0-0.1-0.1-0.3-0.1-0.6c0-0.3,0.1-0.6,0.1-0.6l0.4-0.1
				c0,0.1-0.1,0.4-0.1,0.7c0,0.1,0,0.3,0,0.5C13.1,14.5,13.1,14.6,13.1,14.6z"/>
			<path class="st1" d="M12.6,13.5c0,0.1-0.1,0.3-0.1,0.5c0,0.1,0,0.3,0,0.4c0,0,0,0,0,0c0,0,0,0.1,0,0.1c-0.1,0-0.3-0.1-0.6-0.2
				c-0.4-0.2-0.6-0.3-0.6-0.5c0-0.1,0.1-0.2,0.3-0.2C11.9,13.5,12.2,13.4,12.6,13.5C12.6,13.4,12.6,13.4,12.6,13.5
				C12.6,13.4,12.6,13.4,12.6,13.5z"/>
		</g>
		<g>
			<g>
				<path class="st8" d="M16.9,9.4c-0.1,0-0.3,0.1-0.3,0.2c0,0.1,0.1,0.2,0.3,0.2c0.1,0,0.3-0.1,0.3-0.2C17.2,9.5,17.1,9.4,16.9,9.4
					z M16.9,9.8c-0.1,0-0.2-0.1-0.2-0.2c0-0.1,0.1-0.2,0.2-0.2c0.1,0,0.2,0.1,0.2,0.2C17.2,9.7,17.1,9.8,16.9,9.8z"/>
				<path class="st8" d="M18.3,9.4c-0.1,0-0.3,0.1-0.3,0.2c0,0.1,0.1,0.2,0.3,0.2c0.1,0,0.3-0.1,0.3-0.2C18.5,9.5,18.4,9.4,18.3,9.4
					z M18.3,9.8c-0.1,0-0.2-0.1-0.2-0.2c0-0.1,0.1-0.2,0.2-0.2c0.1,0,0.2,0.1,0.2,0.2C18.5,9.7,18.4,9.8,18.3,9.8z"/>
			</g>
			<path class="st8" d="M18.2,9.1L18.2,9.1l-0.3,0.3c-0.1-0.1-0.2-0.1-0.3-0.1s-0.2,0-0.3,0.1L17,9.1l0,0l0.3,0.3
				c0,0-0.1,0.1-0.1,0.2c0,0.2,0.2,0.3,0.3,0.3c0.2,0,0.3-0.1,0.3-0.3c0-0.1,0-0.1-0.1-0.2L18.2,9.1z M17.9,9.6
				c0,0.1-0.1,0.3-0.3,0.3c-0.2,0-0.3-0.1-0.3-0.3c0-0.1,0.1-0.3,0.3-0.3C17.8,9.3,17.9,9.4,17.9,9.6z"/>
		</g>
		<rect x="16.5" y="9.8" class="st8" width="2.3" height="0"/>
		<path class="st8" d="M17.6,10.1L17.6,10.1c-0.5,0-1.1-0.1-1.2-0.1l0,0C16.5,10,17.1,10.1,17.6,10.1L17.6,10.1
			c0.4,0,1.1-0.1,1.2-0.1l0,0C18.8,10.1,18,10.1,17.6,10.1z"/>
		<path class="st8" d="M17.6,10.5L17.6,10.5c-0.5,0-1.1-0.1-1.2-0.1l0,0C16.5,10.4,17.1,10.5,17.6,10.5L17.6,10.5
			c0.4,0,1.1-0.1,1.2-0.1l0,0C18.8,10.4,18,10.5,17.6,10.5z"/>
		<path class="st8" d="M17.6,10.8C17.6,10.8,17.6,10.8,17.6,10.8c-0.5,0-1.2-0.1-1.2-0.1l0,0C16.4,10.7,17.1,10.8,17.6,10.8
			C17.6,10.8,17.6,10.8,17.6,10.8c0.4,0,1.2-0.1,1.2-0.1l0,0C18.8,10.7,18.1,10.8,17.6,10.8z"/>
		<path class="st8" d="M17.6,11.2C17.6,11.2,17.6,11.2,17.6,11.2c-0.5,0-1.2-0.1-1.2-0.1l0,0C16.4,11.1,17.1,11.1,17.6,11.2
			C17.6,11.1,17.6,11.1,17.6,11.2c0.4,0,1.2-0.1,1.2-0.1l0,0C18.8,11.1,18.1,11.2,17.6,11.2z"/>
		<path class="st8" d="M17.6,11.5C17.6,11.5,17.6,11.5,17.6,11.5c-0.5,0-1.2-0.1-1.2-0.1l0,0C16.4,11.4,17.1,11.5,17.6,11.5
			C17.6,11.5,17.6,11.5,17.6,11.5c0.4,0,1.2-0.1,1.2-0.1l0,0C18.8,11.4,18.1,11.5,17.6,11.5z"/>
		<g>
			<g>
				<path class="st9" d="M17.4,10.2c-0.1,0-0.1,0-0.1,0.1c0,0.1,0.1,0.1,0.1,0.1c0.1,0,0.1,0,0.1-0.1C17.5,10.3,17.5,10.2,17.4,10.2
					z M17.4,10.4C17.4,10.4,17.4,10.4,17.4,10.4C17.3,10.4,17.3,10.3,17.4,10.4c-0.1-0.1-0.1-0.1,0-0.1c0,0,0,0,0,0s0,0,0,0
					C17.5,10.2,17.5,10.3,17.4,10.4C17.5,10.3,17.5,10.4,17.4,10.4C17.4,10.4,17.4,10.4,17.4,10.4z"/>
				<path class="st9" d="M17,10.2c-0.1,0-0.1,0-0.1,0.1c0,0.1,0.1,0.1,0.1,0.1c0.1,0,0.1,0,0.1-0.1C17.1,10.2,17.1,10.2,17,10.2z
					 M17,10.3C17,10.3,17,10.3,17,10.3C16.9,10.3,16.9,10.3,17,10.3c-0.1-0.1-0.1-0.1,0-0.1c0,0,0,0,0,0s0,0,0,0
					C17,10.2,17.1,10.2,17,10.3C17.1,10.3,17,10.3,17,10.3C17,10.3,17,10.3,17,10.3z"/>
				<path class="st9" d="M16.6,10.1c-0.1,0-0.1,0-0.1,0.1c0,0.1,0.1,0.1,0.1,0.1c0.1,0,0.1,0,0.1-0.1C16.7,10.2,16.6,10.1,16.6,10.1
					z M16.6,10.3C16.6,10.3,16.6,10.3,16.6,10.3C16.5,10.3,16.5,10.3,16.6,10.3c-0.1-0.1-0.1-0.1,0-0.1c0,0,0,0,0,0c0,0,0,0,0,0
					C16.6,10.2,16.7,10.2,16.6,10.3C16.7,10.3,16.6,10.3,16.6,10.3C16.6,10.3,16.6,10.3,16.6,10.3z"/>
			</g>
			<g>
				<path class="st9" d="M17.7,10.3c0,0.1,0.1,0.1,0.1,0.1c0.1,0,0.1,0,0.1-0.1c0-0.1-0.1-0.1-0.1-0.1
					C17.7,10.2,17.7,10.3,17.7,10.3z M17.8,10.4C17.8,10.4,17.7,10.3,17.8,10.4c-0.1-0.1,0-0.1,0-0.1c0,0,0,0,0,0s0,0,0,0
					C17.9,10.2,17.9,10.3,17.8,10.4C17.9,10.3,17.9,10.4,17.8,10.4C17.8,10.4,17.8,10.4,17.8,10.4C17.8,10.4,17.8,10.4,17.8,10.4z"
					/>
				<path class="st9" d="M18.1,10.3c0,0.1,0.1,0.1,0.1,0.1c0.1,0,0.1,0,0.1-0.1c0-0.1-0.1-0.1-0.1-0.1
					C18.2,10.2,18.1,10.2,18.1,10.3z M18.2,10.3C18.2,10.3,18.1,10.3,18.2,10.3c-0.1-0.1,0-0.1,0-0.1c0,0,0,0,0,0s0,0,0,0
					C18.3,10.2,18.3,10.2,18.2,10.3C18.3,10.3,18.3,10.3,18.2,10.3C18.2,10.3,18.2,10.3,18.2,10.3C18.2,10.3,18.2,10.3,18.2,10.3z"
					/>
				<path class="st9" d="M18.5,10.2c0,0.1,0.1,0.1,0.1,0.1c0.1,0,0.1,0,0.1-0.1c0-0.1-0.1-0.1-0.1-0.1
					C18.6,10.1,18.5,10.2,18.5,10.2z M18.6,10.3C18.6,10.3,18.6,10.3,18.6,10.3c-0.1-0.1,0-0.1,0-0.1c0,0,0,0,0,0c0,0,0,0,0,0
					C18.7,10.2,18.7,10.2,18.6,10.3C18.7,10.3,18.7,10.3,18.6,10.3C18.7,10.3,18.7,10.3,18.6,10.3C18.7,10.3,18.6,10.3,18.6,10.3z"
					/>
			</g>
		</g>
		<g>
			<g>
				<path class="st9" d="M17.4,11.2c-0.1,0-0.1,0-0.1,0.1c0,0.1,0.1,0.1,0.1,0.1c0.1,0,0.1,0,0.1-0.1C17.5,11.3,17.5,11.2,17.4,11.2
					z M17.4,11.4C17.4,11.4,17.4,11.4,17.4,11.4C17.3,11.4,17.3,11.4,17.4,11.4c-0.1-0.1-0.1-0.1,0-0.1c0,0,0,0,0,0c0,0,0,0,0,0
					C17.5,11.3,17.5,11.3,17.4,11.4C17.5,11.4,17.5,11.4,17.4,11.4C17.4,11.4,17.4,11.4,17.4,11.4z"/>
				<path class="st9" d="M17,11.2c-0.1,0-0.1,0-0.1,0.1c0,0.1,0.1,0.1,0.1,0.1c0.1,0,0.1,0,0.1-0.1C17.1,11.3,17.1,11.2,17,11.2z
					 M17,11.4C17,11.4,17,11.4,17,11.4C16.9,11.4,16.9,11.3,17,11.4c-0.1-0.1-0.1-0.1,0-0.1c0,0,0,0,0,0s0,0,0,0
					C17,11.2,17.1,11.3,17,11.4C17.1,11.3,17,11.4,17,11.4C17,11.4,17,11.4,17,11.4z"/>
				<path class="st9" d="M16.6,11.2c-0.1,0-0.1,0-0.1,0.1c0,0.1,0.1,0.1,0.1,0.1c0.1,0,0.1,0,0.1-0.1C16.7,11.2,16.6,11.2,16.6,11.2
					z M16.6,11.3C16.6,11.3,16.6,11.3,16.6,11.3C16.5,11.3,16.5,11.3,16.6,11.3c-0.1-0.1-0.1-0.1,0-0.1c0,0,0,0,0,0s0,0,0,0
					C16.6,11.2,16.7,11.2,16.6,11.3C16.7,11.3,16.6,11.3,16.6,11.3C16.6,11.3,16.6,11.3,16.6,11.3z"/>
			</g>
			<g>
				<path class="st9" d="M17.7,11.3c0,0.1,0.1,0.1,0.1,0.1c0.1,0,0.1,0,0.1-0.1c0-0.1-0.1-0.1-0.1-0.1
					C17.7,11.2,17.7,11.3,17.7,11.3z M17.8,11.4C17.7,11.4,17.7,11.4,17.8,11.4c-0.1-0.1,0-0.1,0-0.1c0,0,0,0,0,0c0,0,0,0,0,0
					C17.9,11.3,17.9,11.3,17.8,11.4C17.9,11.4,17.9,11.4,17.8,11.4C17.8,11.4,17.8,11.4,17.8,11.4C17.8,11.4,17.8,11.4,17.8,11.4z"
					/>
				<path class="st9" d="M18.1,11.3c0,0.1,0.1,0.1,0.1,0.1c0.1,0,0.1,0,0.1-0.1c0-0.1-0.1-0.1-0.1-0.1
					C18.1,11.2,18.1,11.3,18.1,11.3z M18.2,11.4C18.2,11.4,18.1,11.3,18.2,11.4c-0.1-0.1,0-0.1,0-0.1c0,0,0,0,0,0s0,0,0,0
					C18.3,11.2,18.3,11.3,18.2,11.4C18.3,11.3,18.3,11.4,18.2,11.4C18.2,11.4,18.2,11.4,18.2,11.4C18.2,11.4,18.2,11.4,18.2,11.4z"
					/>
				<path class="st9" d="M18.5,11.3c0,0.1,0.1,0.1,0.1,0.1c0.1,0,0.1,0,0.1-0.1c0-0.1-0.1-0.1-0.1-0.1
					C18.6,11.2,18.5,11.2,18.5,11.3z M18.6,11.3C18.6,11.3,18.5,11.3,18.6,11.3c-0.1-0.1,0-0.1,0-0.1c0,0,0,0,0,0s0,0,0,0
					C18.7,11.2,18.7,11.2,18.6,11.3C18.7,11.3,18.7,11.3,18.6,11.3C18.6,11.3,18.6,11.3,18.6,11.3C18.6,11.3,18.6,11.3,18.6,11.3z"
					/>
			</g>
		</g>
		<path class="st10" d="M12.6,13.5l-0.6,0.4l0.5,0.5c0,0,0,0,0,0l0,0L12,13.9l-0.3,0.2l0,0l0.3-0.2l-0.3-0.2l0,0l0.3,0.2L12.6,13.5
			C12.6,13.4,12.6,13.4,12.6,13.5z"/>
		<g>
			<rect x="13.2" y="14.1" transform="matrix(0.8855 -0.4646 0.4646 0.8855 -4.8632 8.3939)" class="st8" width="2.9" height="0"/>
			<polygon class="st8" points="13.1,14.7 13.1,14.6 15.9,13.2 15.9,13.2 			"/>
			<polygon class="st8" points="13.1,14.5 13.1,14.5 15.6,13.2 15.6,13.2 			"/>
			<polygon class="st8" points="13.1,14.4 13.1,14.3 15.2,13.2 15.3,13.2 			"/>
			<polygon class="st8" points="13.1,14.2 13.1,14.2 14.9,13.2 14.9,13.2 			"/>
			<polygon class="st8" points="13.1,14 13,14 14.5,13.2 14.6,13.2 			"/>
			<polygon class="st8" points="13.1,13.8 13.1,13.8 14,13.3 14.1,13.3 			"/>
			<polygon class="st8" points="13.1,13.6 13.1,13.6 13.6,13.3 13.7,13.3 			"/>
			<polygon class="st8" points="13.1,13.4 13.1,13.4 13.3,13.3 13.3,13.3 			"/>
			<polygon class="st8" points="13.6,14.8 13.6,14.8 15.8,13.6 15.8,13.6 			"/>
			<polygon class="st8" points="13.8,14.9 13.8,14.8 15.8,13.8 15.8,13.8 			"/>
			<rect x="14" y="14.4" transform="matrix(0.8795 -0.4759 0.4759 0.8795 -5.0699 8.8605)" class="st8" width="2" height="0"/>
			<polygon class="st8" points="14.3,15 14.3,14.9 15.8,14.2 15.8,14.2 			"/>
			<polygon class="st8" points="14.6,15 14.6,15 15.8,14.3 15.8,14.4 			"/>
			<polygon class="st8" points="14.9,15.1 14.9,15 15.8,14.5 15.8,14.6 			"/>
			<polygon class="st8" points="15.1,15.1 15.1,15.1 15.8,14.7 15.8,14.7 			"/>
			<polygon class="st8" points="15.5,15.1 15.4,15.1 15.9,14.9 15.9,14.9 			"/>
			<rect x="15.7" y="15.1" transform="matrix(0.8843 -0.467 0.467 0.8843 -5.2262 9.1286)" class="st8" width="0.2" height="0"/>
		</g>
		<rect x="17" y="14.6" transform="matrix(0.7835 -0.6214 0.6214 0.7835 -5.1791 14.287)" class="st8" width="1.8" height="0"/>
		<rect x="17.6" y="14.7" transform="matrix(0.7828 -0.6222 0.6222 0.7828 -5.2367 14.4147)" class="st8" width="0.8" height="0"/>
		<rect x="16.7" y="14.4" transform="matrix(0.7765 -0.6301 0.6301 0.7765 -5.1315 14.4531)" class="st8" width="2.3" height="0"/>
		<rect x="16.3" y="14.3" transform="matrix(0.7823 -0.623 0.623 0.7823 -5.0868 14.1328)" class="st8" width="2.8" height="0"/>
		<rect x="16" y="14.2" transform="matrix(0.7796 -0.6263 0.6263 0.7796 -5.045 14.1464)" class="st8" width="3.1" height="0"/>
		<rect x="15.9" y="14.1" transform="matrix(0.7778 -0.6285 0.6285 0.7778 -4.9541 14.1422)" class="st8" width="3.2" height="0"/>
		<rect x="15.9" y="13.9" transform="matrix(0.7789 -0.6271 0.6271 0.7789 -4.8315 14.047)" class="st8" width="3.3" height="0"/>
		<rect x="15.9" y="13.7" transform="matrix(0.7778 -0.6285 0.6285 0.7778 -4.712 14.0389)" class="st8" width="3.3" height="0"/>
		<rect x="15.8" y="13.5" transform="matrix(0.7766 -0.63 0.63 0.7766 -4.5845 14.0319)" class="st8" width="3.3" height="0"/>
		<rect x="15.8" y="13.3" transform="matrix(0.7766 -0.63 0.63 0.7766 -4.4591 13.981)" class="st8" width="3.3" height="0"/>
		<rect x="15.8" y="13.1" transform="matrix(0.7761 -0.6306 0.6306 0.7761 -4.3271 13.9511)" class="st8" width="3.3" height="0"/>
		<rect x="15.8" y="12.9" transform="matrix(0.7759 -0.6308 0.6308 0.7759 -4.1984 13.9149)" class="st8" width="3.3" height="0"/>
		<rect x="15.9" y="12.6" transform="matrix(0.7767 -0.6299 0.6299 0.7767 -4.0616 13.8459)" class="st8" width="3.3" height="0"/>
		<rect x="15.9" y="12.4" transform="matrix(0.7761 -0.6306 0.6306 0.7761 -3.9244 13.8216)" class="st8" width="3.2" height="0"/>
		<rect x="16" y="12.3" transform="matrix(0.7863 -0.6179 0.6179 0.7863 -3.8982 13.3945)" class="st8" width="2.9" height="0"/>
		<polygon class="st8" points="16.4,12.9 16.4,12.9 18.2,11.5 18.3,11.5 		"/>
		<rect x="16.2" y="12.1" transform="matrix(0.7957 -0.6056 0.6056 0.7957 -3.8016 12.8917)" class="st8" width="2" height="0"/>
		<polygon class="st8" points="16.4,12.5 16.4,12.5 17.7,11.5 17.8,11.5 		"/>
		<rect x="16.3" y="11.9" transform="matrix(0.8166 -0.5772 0.5772 0.8166 -3.7426 11.9747)" class="st8" width="1.3" height="0"/>
		<rect x="16.3" y="11.8" transform="matrix(0.8326 -0.5539 0.5539 0.8326 -3.7002 11.3169)" class="st8" width="1.1" height="0"/>
		<rect x="16.4" y="11.7" transform="matrix(0.8327 -0.5537 0.5537 0.8327 -3.6712 11.2352)" class="st8" width="0.8" height="0"/>
		<rect x="16.4" y="11.6" transform="matrix(0.8325 -0.554 0.554 0.8325 -3.6429 11.1761)" class="st8" width="0.6" height="0"/>
		<rect x="16.4" y="11.5" transform="matrix(0.8325 -0.554 0.554 0.8325 -3.6103 11.1038)" class="st8" width="0.3" height="0"/>
		<polygon class="st8" points="16.6,15.2 16.2,15 16.2,15 16.6,15.2 		"/>
		<rect x="16.5" y="14.6" transform="matrix(0.6191 -0.7853 0.7853 0.6191 -5.4538 18.6742)" class="st8" width="0" height="0.8"/>
		<polygon class="st8" points="17,15.2 16.2,14.5 16.2,14.5 17.1,15.2 		"/>
		<rect x="16.7" y="14" transform="matrix(0.6023 -0.7982 0.7982 0.6023 -5.0868 19.212)" class="st8" width="0" height="1.4"/>
		<rect x="16.8" y="13.8" transform="matrix(0.616 -0.7878 0.7878 0.616 -5.023 18.8556)" class="st8" width="0" height="1.6"/>
		<rect x="16.9" y="13.5" transform="matrix(0.6256 -0.7801 0.7801 0.6256 -4.9378 18.6022)" class="st8" width="0" height="1.8"/>
		<rect x="17" y="13.3" transform="matrix(0.6282 -0.778 0.778 0.6282 -4.8171 18.5429)" class="st8" width="0" height="2"/>
		<rect x="17.1" y="13.1" transform="matrix(0.6193 -0.7852 0.7852 0.6193 -4.6147 18.8202)" class="st8" width="0" height="2.2"/>
		<rect x="17.2" y="12.9" transform="matrix(0.6169 -0.7871 0.7871 0.6169 -4.453 18.8958)" class="st8" width="0" height="2.3"/>
		<rect x="17.2" y="12.7" transform="matrix(0.6194 -0.7851 0.7851 0.6194 -4.3372 18.8268)" class="st8" width="0" height="2.4"/>
		<rect x="17.3" y="12.5" transform="matrix(0.6181 -0.7861 0.7861 0.6181 -4.1912 18.8807)" class="st8" width="0" height="2.5"/>
		<rect x="17.4" y="12.3" transform="matrix(0.6207 -0.784 0.784 0.6207 -4.0703 18.8023)" class="st8" width="0" height="2.5"/>
		<rect x="17.4" y="12.1" transform="matrix(0.6218 -0.7831 0.7831 0.6218 -3.9294 18.7497)" class="st8" width="0" height="2.6"/>
		<rect x="17.5" y="11.9" transform="matrix(0.619 -0.7854 0.7854 0.619 -3.7594 18.7998)" class="st8" width="0" height="2.7"/>
		<rect x="17.5" y="11.7" transform="matrix(0.6208 -0.7839 0.7839 0.6208 -3.6222 18.6985)" class="st8" width="0" height="2.8"/>
		<rect x="17.5" y="11.5" transform="matrix(0.6251 -0.7806 0.7806 0.6251 -3.5079 18.5459)" class="st8" width="0" height="2.9"/>
		<rect x="17.6" y="11.2" transform="matrix(0.6253 -0.7804 0.7804 0.6253 -3.3435 18.4795)" class="st8" width="0" height="3"/>
		<rect x="17.6" y="11" transform="matrix(0.624 -0.7814 0.7814 0.624 -3.1782 18.4603)" class="st8" width="0" height="3"/>
		<rect x="17.6" y="10.9" transform="matrix(0.6263 -0.7796 0.7796 0.6263 -3.0408 18.3448)" class="st8" width="0" height="3"/>
		<rect x="17.8" y="11" transform="matrix(0.6301 -0.7765 0.7765 0.6301 -2.9497 18.332)" class="st8" width="0" height="2.6"/>
		<rect x="17.9" y="11" transform="matrix(0.6185 -0.7858 0.7858 0.6185 -2.7371 18.6921)" class="st8" width="0" height="2.3"/>
		<rect x="18" y="11.1" transform="matrix(0.6118 -0.791 0.791 0.6118 -2.5569 18.9259)" class="st8" width="0" height="1.9"/>
		<rect x="18.1" y="11.2" transform="matrix(0.5967 -0.8024 0.8024 0.5967 -2.295 19.3616)" class="st8" width="0" height="1.6"/>
		<rect x="18.2" y="11.2" transform="matrix(0.577 -0.8167 0.8167 0.577 -1.9702 19.9103)" class="st8" width="0" height="1.3"/>
		<rect x="18.3" y="11.3" transform="matrix(0.5513 -0.8343 0.8343 0.5513 -1.57 20.5826)" class="st8" width="0" height="1"/>
		<rect x="18.4" y="11.3" transform="matrix(0.5535 -0.8329 0.8329 0.5535 -1.4863 20.584)" class="st8" width="0" height="0.8"/>
		<rect x="18.5" y="11.3" transform="matrix(0.5574 -0.8302 0.8302 0.5574 -1.4206 20.5359)" class="st8" width="0" height="0.5"/>
		<rect x="18.6" y="11.4" transform="matrix(0.5197 -0.8543 0.8543 0.5197 -0.8877 21.4572)" class="st8" width="0" height="0.3"/>
		<g>
			<g>
				<g>
					<rect x="21.2" y="11.1" class="st1" width="3" height="1.6"/>
					<path class="st9" d="M21.1,11.1v1.7h3.1v-1.7H21.1z M24.1,12.8h-3v-1.6h3V12.8z"/>
					<path class="st9" d="M21.2,11.2v1.5h2.9v-1.5H21.2z M24.1,12.7h-2.8v-1.5h2.8V12.7z"/>
					<g>
						<path class="st9" d="M23.9,11.5L23.9,11.5l-0.1-0.1l0.1-0.1l0,0l-0.1,0.1l-0.1,0l0,0l0,0l0,0l0,0l0,0l0,0l-0.1,0l-0.1,0l0,0
							l0,0l0,0l0,0l0,0l0,0l-0.1,0l-0.1,0l0,0l0,0l0,0l0,0l0,0l0,0l-0.1,0l-0.1,0l0,0l0,0l0,0l0,0l0,0l0,0l-0.1,0l-0.1,0l0,0l0,0
							l0,0l0,0l0,0l0,0l-0.1,0l-0.1,0l0,0l0,0l0,0l0,0l0,0l0,0l-0.1,0l-0.1,0l0,0l0,0l0,0l0,0l0,0l0,0l-0.1,0l-0.1,0l0,0l0,0l0,0
							l0,0l0,0l0,0l-0.1,0l-0.1,0l0,0l0,0l0,0l0,0l0,0l0,0l-0.1,0l-0.1,0l0,0l0,0l0,0l0,0l0,0l0,0l-0.1,0l-0.1,0l0,0l0,0l0,0l0,0
							l0,0l0,0l-0.1,0l-0.1,0l0,0l0,0l0,0l0,0l0,0l0,0l-0.1,0l-0.1,0l0,0l0,0l0,0l0,0l0,0l0,0l-0.1,0l-0.1,0l0,0l0,0l0,0l0,0l0,0
							l0,0l-0.1,0l-0.1,0l0,0l0,0l0,0l0,0l0,0l0,0l-0.1,0l-0.1-0.1l0,0l0.1,0.1l-0.1,0.1l0,0l0.1-0.1l0.1,0l0,0l0,0l0,0l0,0l0,0l0,0
							l0.1,0l0.1,0l0,0l0,0l0,0l0,0l0,0l0,0l0.1,0l0.1,0l0,0l0,0l0,0l0,0l0,0l0,0l0.1,0l0.1,0l0,0l0,0l0,0l0,0l0,0l0,0l0.1,0l0.1,0
							l0,0l0,0l0,0l0,0l0,0l0,0l0.1,0l0.1,0l0,0l0,0l0,0l0,0l0,0l0,0l0.1,0l0.1,0l0,0l0,0l0,0l0,0l0,0l0,0l0.1,0l0.1,0l0,0l0,0l0,0
							l0,0l0,0l0,0l0.1,0l0.1,0l0,0l0,0l0,0l0,0l0,0l0,0l0.1,0l0.1,0l0,0l0,0l0,0l0,0l0,0l0,0l0.1,0l0.1,0l0,0l0,0l0,0l0,0l0,0l0,0
							l0.1,0l0.1,0l0,0l0,0l0,0l0,0l0,0l0,0l0.1,0l0.1,0l0,0l0,0l0,0l0,0l0,0l0,0l0.1,0l0.1,0l0,0l0,0l0,0l0,0l0,0l0,0l0.1,0l0.1,0
							l0,0l0,0l0,0l0,0l0,0l0,0l0.1,0L23.9,11.5z M21.6,11.4L21.6,11.4L21.6,11.4L21.6,11.4L21.6,11.4z M21.7,11.4L21.7,11.4
							L21.7,11.4L21.7,11.4L21.7,11.4z M21.9,11.4L21.9,11.4L21.9,11.4L21.9,11.4L21.9,11.4z M22,11.4L22,11.4L22,11.4L22,11.4
							L22,11.4z M22.2,11.4L22.2,11.4L22.2,11.4L22.2,11.4L22.2,11.4z M22.3,11.4L22.3,11.4L22.3,11.4L22.3,11.4L22.3,11.4z
							 M22.5,11.4L22.5,11.4L22.5,11.4L22.5,11.4L22.5,11.4z M22.7,11.4L22.7,11.4L22.7,11.4L22.7,11.4L22.7,11.4z M22.8,11.4
							L22.8,11.4L22.8,11.4L22.8,11.4L22.8,11.4z M23,11.4L23,11.4L23,11.4L23,11.4L23,11.4z M23.1,11.4L23.1,11.4L23.1,11.4
							L23.1,11.4L23.1,11.4z M23.3,11.4L23.3,11.4L23.3,11.4L23.3,11.4L23.3,11.4z M23.4,11.4L23.4,11.4L23.4,11.4L23.4,11.4
							L23.4,11.4z M23.6,11.4L23.6,11.4L23.6,11.4L23.6,11.4L23.6,11.4z M23.7,11.4L23.7,11.4L23.7,11.4L23.7,11.4L23.7,11.4z"/>
						<path class="st9" d="M23.9,12.7L23.9,12.7l-0.1-0.1l0.1-0.1l0,0l-0.1,0.1l-0.1,0l0,0l0,0l0,0l0,0l0,0l0,0l-0.1,0l-0.1,0l0,0
							l0,0l0,0l0,0l0,0l0,0l-0.1,0l-0.1,0l0,0l0,0l0,0l0,0l0,0l0,0l-0.1,0l-0.1,0l0,0l0,0l0,0l0,0l0,0l0,0l-0.1,0l-0.1,0l0,0l0,0
							l0,0l0,0l0,0l0,0l-0.1,0l-0.1,0l0,0l0,0l0,0l0,0l0,0l0,0l-0.1,0l-0.1,0l0,0l0,0l0,0l0,0l0,0l0,0l-0.1,0l-0.1,0l0,0l0,0l0,0
							l0,0l0,0l0,0l-0.1,0l-0.1,0l0,0l0,0l0,0l0,0l0,0l0,0l-0.1,0l-0.1,0l0,0l0,0l0,0l0,0l0,0l0,0l-0.1,0l-0.1,0l0,0l0,0l0,0l0,0
							l0,0l0,0l-0.1,0l-0.1,0l0,0l0,0l0,0l0,0l0,0l0,0l-0.1,0l-0.1,0l0,0l0,0l0,0l0,0l0,0l0,0l-0.1,0l-0.1,0l0,0l0,0l0,0l0,0l0,0
							l0,0l-0.1,0l-0.1,0l0,0l0,0l0,0l0,0l0,0l0,0l-0.1,0l-0.1-0.1l0,0l0.1,0.1l-0.1,0.1l0,0l0.1-0.1l0.1,0l0,0l0,0l0,0l0,0l0,0l0,0
							l0.1,0l0.1,0l0,0l0,0l0,0l0,0l0,0l0,0l0.1,0l0.1,0l0,0l0,0l0,0l0,0l0,0l0,0l0.1,0l0.1,0l0,0l0,0l0,0l0,0l0,0l0,0l0.1,0l0.1,0
							l0,0l0,0l0,0l0,0l0,0l0,0l0.1,0l0.1,0l0,0l0,0l0,0l0,0l0,0l0,0l0.1,0l0.1,0l0,0l0,0l0,0l0,0l0,0l0,0l0.1,0l0.1,0l0,0l0,0l0,0
							l0,0l0,0l0,0l0.1,0l0.1,0l0,0l0,0l0,0l0,0l0,0l0,0l0.1,0l0.1,0l0,0l0,0l0,0l0,0l0,0l0,0l0.1,0l0.1,0l0,0l0,0l0,0l0,0l0,0l0,0
							l0.1,0l0.1,0l0,0l0,0l0,0l0,0l0,0l0,0l0.1,0l0.1,0l0,0l0,0l0,0l0,0l0,0l0,0l0.1,0l0.1,0l0,0l0,0l0,0l0,0l0,0l0,0l0.1,0l0.1,0
							l0,0l0,0l0,0l0,0l0,0l0,0l0.1,0L23.9,12.7z M21.6,12.6L21.6,12.6L21.6,12.6L21.6,12.6L21.6,12.6z M21.7,12.6L21.7,12.6
							L21.7,12.6L21.7,12.6L21.7,12.6z M21.9,12.6L21.9,12.6L21.9,12.6L21.9,12.6L21.9,12.6z M22,12.6L22,12.6L22,12.6L22,12.6
							L22,12.6z M22.2,12.6L22.2,12.6L22.2,12.6L22.2,12.6L22.2,12.6z M22.3,12.6L22.3,12.6L22.3,12.6L22.3,12.6L22.3,12.6z
							 M22.5,12.6L22.5,12.6L22.5,12.6L22.5,12.6L22.5,12.6z M22.7,12.6L22.7,12.6L22.7,12.6L22.7,12.6L22.7,12.6z M22.8,12.6
							L22.8,12.6L22.8,12.6L22.8,12.6L22.8,12.6z M23,12.6L23,12.6L23,12.6L23,12.6L23,12.6z M23.1,12.6L23.1,12.6L23.1,12.6
							L23.1,12.6L23.1,12.6z M23.3,12.6L23.3,12.6L23.3,12.6L23.3,12.6L23.3,12.6z M23.4,12.6L23.4,12.6L23.4,12.6L23.4,12.6
							L23.4,12.6z M23.6,12.6L23.6,12.6L23.6,12.6L23.6,12.6L23.6,12.6z M23.7,12.6L23.7,12.6L23.7,12.6L23.7,12.6L23.7,12.6z"/>
					</g>
					<g>
						<path class="st9" d="M23.2,12v-0.2H23c0,0,0,0,0-0.1l0.1-0.1L23,11.6l-0.1,0.1c0,0-0.1,0-0.1,0v-0.1h-0.2v0.1c0,0-0.1,0-0.1,0
							l-0.1-0.1l-0.1,0.1l0.1,0.1c0,0,0,0,0,0.1h-0.1V12h0.1c0,0,0,0,0,0.1l-0.1,0.1l0.1,0.1l0.1-0.1c0,0,0.1,0,0.1,0v0.1h0.2v-0.1
							c0,0,0.1,0,0.1,0l0.1,0.1l0.1-0.1L23,12.1c0,0,0,0,0-0.1H23.2z M23,12C23,12,23,12.1,23,12L23,12l0,0.2L23,12.2l-0.1-0.1l0,0
							c0,0-0.1,0-0.1,0l0,0v0.1h-0.1v-0.1l0,0c-0.1,0-0.1,0-0.1,0l0,0l-0.1,0.1l-0.1-0.1l0.1-0.1l0,0c0,0,0-0.1-0.1-0.1l0,0h-0.1
							v-0.1h0.1l0,0c0,0,0-0.1,0.1-0.1l0,0l-0.1-0.1l0.1-0.1l0.1,0.1l0,0c0,0,0.1,0,0.1,0l0,0v-0.1h0.1v0.1l0,0c0.1,0,0.1,0,0.1,0
							l0,0l0.1-0.1l0.1,0.1l-0.1,0.1l0,0c0,0,0,0.1,0.1,0.1l0,0h0.1V12L23,12L23,12z"/>
						<path class="st9" d="M22.7,11.8c-0.1,0-0.2,0.1-0.2,0.1c0,0.1,0.1,0.1,0.2,0.1c0.1,0,0.2-0.1,0.2-0.1
							C22.8,11.9,22.8,11.8,22.7,11.8z M22.7,12c-0.1,0-0.1,0-0.1-0.1c0-0.1,0.1-0.1,0.1-0.1c0.1,0,0.1,0,0.1,0.1
							C22.8,12,22.7,12,22.7,12z"/>
					</g>
				</g>
				<g>
					<rect x="11.1" y="11.1" class="st1" width="3" height="1.6"/>
					<path class="st9" d="M11,11.1v1.7h3.1v-1.7H11z M11.1,11.1h3v1.6h-3V11.1z"/>
					<path class="st9" d="M11.1,11.2v1.5H14v-1.5H11.1z M11.1,11.2H14v1.5h-2.8V11.2z"/>
					<g>
						<path class="st9" d="M11.4,11.4L11.4,11.4L11.4,11.4L11.4,11.4L11.4,11.4l0.1,0.1l0,0l0,0l0.1,0l0.1,0l0,0l0,0l0,0l0,0l0,0
							l0,0l0.1,0l0.1,0l0,0l0,0l0,0l0,0l0,0l0,0l0.1,0l0.1,0l0,0l0,0l0,0l0,0l0,0l0,0l0.1,0l0.1,0l0,0l0,0l0,0l0,0l0,0l0,0l0.1,0
							l0.1,0l0,0l0,0l0,0l0,0l0,0l0,0l0.1,0l0.1,0l0,0l0,0l0,0l0,0l0,0l0,0l0.1,0l0.1,0l0,0l0,0l0,0l0,0l0,0l0,0l0.1,0l0.1,0l0,0
							l0,0l0,0l0,0l0,0l0,0l0.1,0l0.1,0l0,0l0,0l0,0l0,0l0,0l0,0l0.1,0l0.1,0l0,0l0,0l0,0l0,0l0,0l0,0l0.1,0l0.1,0l0,0l0,0l0,0l0,0
							l0,0l0,0l0.1,0l0.1,0l0,0l0,0l0,0l0,0l0,0l0,0l0.1,0l0.1,0l0,0l0,0l0,0l0,0l0,0l0,0l0.1,0l0.1,0l0,0l0,0l0,0l0,0l0,0l0,0
							l0.1,0l0.1,0.1l0,0l-0.1-0.1l0.1-0.1l0,0l-0.1,0.1l-0.1,0l0,0l0,0l0,0l0,0l0,0l0,0l-0.1,0l-0.1,0l0,0l0,0l0,0l0,0l0,0l0,0
							l-0.1,0l-0.1,0l0,0l0,0l0,0l0,0l0,0l0,0l-0.1,0l-0.1,0l0,0l0,0l0,0l0,0l0,0l0,0l-0.1,0l-0.1,0l0,0l0,0l0,0l0,0l0,0l0,0l-0.1,0
							l-0.1,0l0,0l0,0l0,0l0,0l0,0l0,0l-0.1,0l-0.1,0l0,0l0,0l0,0l0,0l0,0l0,0l-0.1,0l-0.1,0l0,0l0,0l0,0l0,0l0,0l0,0l-0.1,0l-0.1,0
							l0,0l0,0l0,0l0,0l0,0l0,0l-0.1,0l-0.1,0l0,0l0,0l0,0l0,0l0,0l0,0l-0.1,0l-0.1,0l0,0l0,0l0,0l0,0l0,0l0,0l-0.1,0l-0.1,0l0,0
							l0,0l0,0l0,0l0,0l0,0l-0.1,0l-0.1,0l0,0l0,0l0,0l0,0l0,0l0,0l-0.1,0l-0.1,0l0,0l0,0l0,0l0,0l0,0l0,0l-0.1,0l-0.1,0l0,0l0,0
							l0,0l0,0l0,0L11.4,11.4L11.4,11.4l-0.1-0.1l0,0L11.4,11.4l-0.1,0.1l0,0L11.4,11.4z M13.6,11.4L13.6,11.4h0.1H13.6L13.6,11.4z
							 M13.4,11.4L13.4,11.4h0.1H13.4L13.4,11.4z M13.3,11.4L13.3,11.4h0.1H13.3L13.3,11.4z M13.1,11.4L13.1,11.4h0.1H13.1
							L13.1,11.4z M13,11.4L13,11.4h0.1H13L13,11.4z M12.8,11.4L12.8,11.4h0.1H12.8L12.8,11.4z M12.7,11.4L12.7,11.4h0.1H12.7
							L12.7,11.4z M12.5,11.4L12.5,11.4h0.1H12.5L12.5,11.4z M12.3,11.4L12.3,11.4h0.1H12.3L12.3,11.4z M12.2,11.4L12.2,11.4h0.1
							H12.2L12.2,11.4z M12,11.4L12,11.4h0.1H12L12,11.4z M11.9,11.4L11.9,11.4H12H11.9L11.9,11.4z M11.7,11.4L11.7,11.4h0.1H11.7
							L11.7,11.4z M11.6,11.4L11.6,11.4h0.1H11.6L11.6,11.4z M11.4,11.4L11.4,11.4h0.1H11.4L11.4,11.4z"/>
						<path class="st9" d="M11.4,12.6L11.4,12.6L11.4,12.6L11.4,12.6L11.4,12.6l0.1,0.1l0,0l0,0l0.1,0l0.1,0l0,0l0,0l0,0l0,0l0,0
							l0,0l0.1,0l0.1,0l0,0l0,0l0,0l0,0l0,0l0,0l0.1,0l0.1,0l0,0l0,0l0,0l0,0l0,0l0,0l0.1,0l0.1,0l0,0l0,0l0,0l0,0l0,0l0,0l0.1,0
							l0.1,0l0,0l0,0l0,0l0,0l0,0l0,0l0.1,0l0.1,0l0,0l0,0l0,0l0,0l0,0l0,0l0.1,0l0.1,0l0,0l0,0l0,0l0,0l0,0l0,0l0.1,0l0.1,0l0,0
							l0,0l0,0l0,0l0,0l0,0l0.1,0l0.1,0l0,0l0,0l0,0l0,0l0,0l0,0l0.1,0l0.1,0l0,0l0,0l0,0l0,0l0,0l0,0l0.1,0l0.1,0l0,0l0,0l0,0l0,0
							l0,0l0,0l0.1,0l0.1,0l0,0l0,0l0,0l0,0l0,0l0,0l0.1,0l0.1,0l0,0l0,0l0,0l0,0l0,0l0,0l0.1,0l0.1,0l0,0l0,0l0,0l0,0l0,0l0,0
							l0.1,0l0.1,0.1l0,0l-0.1-0.1l0.1-0.1l0,0l-0.1,0.1l-0.1,0l0,0l0,0l0,0l0,0l0,0l0,0l-0.1,0l-0.1,0l0,0l0,0l0,0l0,0l0,0l0,0
							l-0.1,0l-0.1,0l0,0l0,0l0,0l0,0l0,0l0,0l-0.1,0l-0.1,0l0,0l0,0l0,0l0,0l0,0l0,0l-0.1,0l-0.1,0l0,0l0,0l0,0l0,0l0,0l0,0l-0.1,0
							l-0.1,0l0,0l0,0l0,0l0,0l0,0l0,0l-0.1,0l-0.1,0l0,0l0,0l0,0l0,0l0,0l0,0l-0.1,0l-0.1,0l0,0l0,0l0,0l0,0l0,0l0,0l-0.1,0l-0.1,0
							l0,0l0,0l0,0l0,0l0,0l0,0l-0.1,0l-0.1,0l0,0l0,0l0,0l0,0l0,0l0,0l-0.1,0l-0.1,0l0,0l0,0l0,0l0,0l0,0l0,0l-0.1,0l-0.1,0l0,0
							l0,0l0,0l0,0l0,0l0,0l-0.1,0l-0.1,0l0,0l0,0l0,0l0,0l0,0l0,0l-0.1,0l-0.1,0l0,0l0,0l0,0l0,0l0,0l0,0l-0.1,0l-0.1,0l0,0l0,0
							l0,0l0,0l0,0L11.4,12.6L11.4,12.6l-0.1-0.1l0,0L11.4,12.6l-0.1,0.1l0,0L11.4,12.6z M13.6,12.5L13.6,12.5h0.1H13.6L13.6,12.5z
							 M13.4,12.5L13.4,12.5h0.1H13.4L13.4,12.5z M13.3,12.5L13.3,12.5h0.1H13.3L13.3,12.5z M13.1,12.5L13.1,12.5h0.1H13.1
							L13.1,12.5z M13,12.5L13,12.5h0.1H13L13,12.5z M12.8,12.5L12.8,12.5h0.1H12.8L12.8,12.5z M12.7,12.5L12.7,12.5h0.1H12.7
							L12.7,12.5z M12.5,12.5L12.5,12.5h0.1H12.5L12.5,12.5z M12.3,12.5L12.3,12.5h0.1H12.3L12.3,12.5z M12.2,12.5L12.2,12.5h0.1
							H12.2L12.2,12.5z M12,12.5L12,12.5h0.1H12L12,12.5z M11.9,12.5L11.9,12.5H12H11.9L11.9,12.5z M11.7,12.5L11.7,12.5h0.1H11.7
							L11.7,12.5z M11.6,12.5L11.6,12.5h0.1H11.6L11.6,12.5z M11.4,12.5L11.4,12.5h0.1H11.4L11.4,12.5z"/>
					</g>
					<g>
						<path class="st9" d="M12.2,12C12.2,12,12.2,12.1,12.2,12l-0.1,0.1l0.1,0.1l0.1-0.1c0,0,0.1,0,0.1,0v0.1h0.2v-0.1
							c0,0,0.1,0,0.1,0l0.1,0.1l0.1-0.1l-0.1-0.1c0,0,0,0,0-0.1h0.1v-0.2h-0.1c0,0,0,0,0-0.1l0.1-0.1l-0.1-0.1l-0.1,0.1
							c0,0-0.1,0-0.1,0v-0.1h-0.2v0.1c0,0-0.1,0-0.1,0l-0.1-0.1l-0.1,0.1l0.1,0.1c0,0,0,0,0,0.1H12V12H12.2z M12.2,12h-0.1v-0.1h0.1
							l0,0c0,0,0-0.1,0.1-0.1l0,0l-0.1-0.1l0.1-0.1l0.1,0.1l0,0c0,0,0.1,0,0.1,0l0,0v-0.1h0.1v0.1l0,0c0.1,0,0.1,0,0.1,0l0,0
							l0.1-0.1l0.1,0.1l-0.1,0.1l0,0c0,0,0,0.1,0.1,0.1l0,0H13V12h-0.1l0,0c0,0,0,0.1-0.1,0.1l0,0l0.1,0.1l-0.1,0.1l-0.1-0.1l0,0
							c0,0-0.1,0-0.1,0l0,0v0.1h-0.1v-0.1l0,0c-0.1,0-0.1,0-0.1,0l0,0l-0.1,0.1l-0.1-0.1l0.1-0.1L12.2,12C12.2,12.1,12.2,12,12.2,12
							L12.2,12z"/>
						<path class="st9" d="M12.4,11.9c0,0.1,0.1,0.1,0.2,0.1c0.1,0,0.2-0.1,0.2-0.1c0-0.1-0.1-0.1-0.2-0.1
							C12.5,11.8,12.4,11.9,12.4,11.9z M12.4,11.9c0-0.1,0.1-0.1,0.1-0.1c0.1,0,0.1,0,0.1,0.1c0,0.1-0.1,0.1-0.1,0.1
							C12.5,12,12.4,12,12.4,11.9z"/>
					</g>
				</g>
			</g>
			<g>
				<g>
					<path class="st9" d="M20.7,11.3c-0.1-0.1-0.3-0.1-0.5-0.1c-0.3,0-0.4,0-0.5,0.1c-0.1,0.1-0.2,0.3-0.2,0.6
						c0,0.3,0.1,0.4,0.2,0.5c0.1,0.1,0.3,0.1,0.5,0.1c0.2,0,0.4,0,0.5-0.1c0.1-0.1,0.2-0.3,0.2-0.5C20.9,11.6,20.8,11.4,20.7,11.3z
						 M20.1,12.5c-0.2,0-0.4,0-0.5-0.1c-0.1-0.1-0.2-0.3-0.2-0.5c0-0.3,0.1-0.4,0.2-0.5c0.1-0.1,0.3-0.1,0.5-0.1
						c0.2,0,0.4,0,0.5,0.1c0.1,0.1,0.2,0.3,0.2,0.5C20.8,12.3,20.6,12.5,20.1,12.5z"/>
					<path class="st1" d="M20.6,11.3c-0.1-0.1-0.3-0.1-0.5-0.1c-0.2,0-0.4,0-0.5,0.1c-0.1,0.1-0.2,0.3-0.2,0.5
						c0,0.2,0.1,0.4,0.2,0.5c0.1,0.1,0.3,0.1,0.5,0.1c0.5,0,0.7-0.2,0.7-0.6C20.8,11.6,20.8,11.4,20.6,11.3z M20.5,12.2
						c-0.1,0.1-0.2,0.1-0.3,0.1c-0.1,0-0.3,0-0.3-0.1c-0.1-0.1-0.1-0.2-0.1-0.4c0-0.2,0-0.3,0.1-0.4c0.1-0.1,0.2-0.1,0.3-0.1
						c0.1,0,0.3,0,0.3,0.1c0.1,0.1,0.1,0.2,0.1,0.4C20.6,12,20.6,12.1,20.5,12.2z"/>
					<path class="st9" d="M20.5,11.4c-0.1-0.1-0.2-0.1-0.3-0.1c-0.1,0-0.3,0-0.3,0.1c-0.1,0.1-0.1,0.2-0.1,0.4c0,0.2,0,0.3,0.1,0.4
						c0.1,0.1,0.2,0.1,0.3,0.1c0.1,0,0.3,0,0.3-0.1c0.1-0.1,0.1-0.2,0.1-0.4C20.6,11.7,20.6,11.5,20.5,11.4z M20.1,12.3
						c-0.2,0-0.5-0.1-0.5-0.5c0-0.3,0.2-0.5,0.5-0.5c0.3,0,0.5,0.2,0.5,0.5C20.6,12.1,20.4,12.3,20.1,12.3z"/>
				</g>
				<path class="st9" d="M20.4,11.5v0.7h1v-0.7H20.4z M21.4,12.1h-1v-0.6h1V12.1z"/>
				<rect x="20.4" y="11.5" class="st1" width="1" height="0.6"/>
				<g>
					<path class="st9" d="M18.9,11.6c-0.1-0.1-0.1-0.1-0.2-0.1c-0.1,0-0.2,0-0.2,0.1c-0.1,0.1-0.1,0.2-0.1,0.3c0,0.1,0,0.2,0.1,0.3
						c0.1,0.1,0.1,0.1,0.2,0.1c0.1,0,0.2,0,0.2-0.1c0.1-0.1,0.1-0.2,0.1-0.3C19,11.7,18.9,11.6,18.9,11.6z M18.7,12.2
						c-0.1,0-0.3-0.2-0.3-0.4c0-0.2,0.1-0.4,0.3-0.4c0.1,0,0.3,0.2,0.3,0.4C18.9,12,18.8,12.2,18.7,12.2z"/>
					<path class="st9" d="M18.7,11.3c-0.3,0-0.5,0.2-0.5,0.5c0,0.3,0.2,0.5,0.5,0.5c0.3,0,0.5-0.2,0.5-0.5
						C19.1,11.5,18.9,11.3,18.7,11.3z M18.7,12.3c-0.2,0-0.4-0.2-0.4-0.5c0-0.3,0.2-0.5,0.4-0.5c0.2,0,0.4,0.2,0.4,0.5
						C19.1,12.1,18.9,12.3,18.7,12.3z"/>
					<path class="st1" d="M18.7,11.3c-0.2,0-0.4,0.2-0.4,0.5c0,0.3,0.2,0.5,0.4,0.5c0.2,0,0.4-0.2,0.4-0.5
						C19.1,11.5,18.9,11.3,18.7,11.3z M18.9,12.1c-0.1,0.1-0.1,0.1-0.2,0.1c-0.1,0-0.2,0-0.2-0.1c-0.1-0.1-0.1-0.2-0.1-0.3
						c0-0.1,0-0.2,0.1-0.3c0.1-0.1,0.1-0.1,0.2-0.1c0.1,0,0.2,0,0.2,0.1c0.1,0.1,0.1,0.2,0.1,0.3C19,11.9,18.9,12,18.9,12.1z"/>
				</g>
				<g>
					<path class="st9" d="M18.8,11.6V12h1v-0.4H18.8z M19.7,12h-0.9v-0.4h0.9V12z"/>
					<rect x="18.8" y="11.7" class="st1" width="0.9" height="0.4"/>
				</g>
				<g>
					<path class="st9" d="M18,11.6L18,11.6l-1.5,0.1V12H18v0.1h0.6v-0.6H18z M18,12h-1.5v-0.4H18V12z M18.5,12.1H18v-0.5h0.5V12.1z"
						/>
					<rect x="18" y="11.6" class="st1" width="0.5" height="0.5"/>
					<rect x="16.4" y="11.7" class="st1" width="1.5" height="0.4"/>
				</g>
				<g>
					<path class="st9" d="M16.9,11.4c-0.1-0.1-0.2-0.1-0.3-0.1c-0.1,0-0.2,0-0.3,0.1c-0.1,0.1-0.1,0.3-0.1,0.5c0,0.2,0,0.4,0.1,0.5
						c0.1,0.1,0.2,0.1,0.3,0.1c0.1,0,0.2,0,0.3-0.1c0.1-0.1,0.1-0.3,0.1-0.5C17.1,11.6,17,11.5,16.9,11.4z M16.7,12.4
						c-0.1,0-0.2,0-0.3-0.1c-0.1-0.1-0.1-0.2-0.1-0.5c0-0.2,0-0.4,0.1-0.5c0.1-0.1,0.1-0.1,0.3-0.1c0.1,0,0.2,0,0.3,0.1
						c0.1,0.1,0.1,0.2,0.1,0.5C17,12.2,16.9,12.4,16.7,12.4z"/>
					<path class="st1" d="M16.9,11.4c-0.1-0.1-0.1-0.1-0.3-0.1c-0.1,0-0.2,0-0.3,0.1c-0.1,0.1-0.1,0.2-0.1,0.5c0,0.2,0,0.4,0.1,0.5
						c0.1,0.1,0.1,0.1,0.3,0.1c0.3,0,0.4-0.2,0.4-0.6C17,11.6,17,11.5,16.9,11.4z M16.8,12.2c0,0.1-0.1,0.1-0.2,0.1
						c-0.1,0-0.1,0-0.2-0.1c0-0.1-0.1-0.2-0.1-0.3c0-0.2,0-0.3,0.1-0.3c0-0.1,0.1-0.1,0.2-0.1c0.1,0,0.1,0,0.2,0.1
						c0,0.1,0.1,0.2,0.1,0.3C16.9,12,16.9,12.1,16.8,12.2z"/>
					<path class="st9" d="M16.8,11.5c0-0.1-0.1-0.1-0.2-0.1c-0.1,0-0.1,0-0.2,0.1c0,0.1-0.1,0.2-0.1,0.3c0,0.1,0,0.3,0.1,0.3
						c0,0.1,0.1,0.1,0.2,0.1c0.1,0,0.1,0,0.2-0.1c0-0.1,0.1-0.2,0.1-0.3C16.9,11.7,16.9,11.6,16.8,11.5z M16.7,12.3
						c-0.1,0-0.2-0.1-0.2-0.4c0-0.3,0.1-0.4,0.2-0.4c0.1,0,0.2,0.2,0.2,0.4C16.9,12.1,16.8,12.3,16.7,12.3z"/>
				</g>
				<g>
					<path class="st9" d="M16.2,11.6c0-0.1-0.1-0.1-0.2-0.1c-0.1,0-0.1,0-0.2,0.1c0,0.1-0.1,0.2-0.1,0.2c0,0.1,0,0.2,0.1,0.2
						c0,0.1,0.1,0.1,0.2,0.1c0.1,0,0.1,0,0.2-0.1c0-0.1,0.1-0.2,0.1-0.2C16.3,11.7,16.2,11.7,16.2,11.6z M16,12.1
						c-0.1,0-0.2-0.1-0.2-0.3c0-0.2,0.1-0.3,0.2-0.3c0.1,0,0.2,0.1,0.2,0.3C16.2,12,16.1,12.1,16,12.1z"/>
					<path class="st9" d="M16,11.3c-0.2,0-0.4,0.2-0.4,0.5c0,0.3,0.2,0.5,0.4,0.5c0.2,0,0.4-0.2,0.4-0.5
						C16.4,11.6,16.2,11.3,16,11.3z M16,12.3c-0.2,0-0.4-0.2-0.4-0.5c0-0.3,0.2-0.5,0.4-0.5c0.2,0,0.4,0.2,0.4,0.5
						C16.4,12.1,16.2,12.3,16,12.3z"/>
					<path class="st1" d="M16,11.4c-0.2,0-0.4,0.2-0.4,0.5c0,0.3,0.2,0.5,0.4,0.5c0.2,0,0.4-0.2,0.4-0.5
						C16.4,11.6,16.2,11.4,16,11.4z M16.2,12.1c0,0.1-0.1,0.1-0.2,0.1c-0.1,0-0.1,0-0.2-0.1c0-0.1-0.1-0.2-0.1-0.2
						c0-0.1,0-0.2,0.1-0.2c0-0.1,0.1-0.1,0.2-0.1c0.1,0,0.1,0,0.2,0.1c0,0.1,0.1,0.2,0.1,0.2C16.3,11.9,16.2,12,16.2,12.1z"/>
				</g>
				<g>
					<path class="st9" d="M15.7,11.3c-0.1-0.1-0.3-0.1-0.5-0.1c-0.3,0-0.4,0-0.5,0.1c-0.1,0.1-0.2,0.3-0.2,0.6
						c0,0.3,0.1,0.4,0.2,0.5c0.1,0.1,0.3,0.1,0.5,0.1c0.2,0,0.4,0,0.5-0.1c0.1-0.1,0.2-0.3,0.2-0.5C15.9,11.6,15.8,11.4,15.7,11.3z
						 M15.1,12.5c-0.2,0-0.4,0-0.5-0.1c-0.1-0.1-0.2-0.3-0.2-0.5c0-0.3,0.1-0.4,0.2-0.5c0.1-0.1,0.3-0.1,0.5-0.1
						c0.2,0,0.4,0,0.5,0.1c0.1,0.1,0.2,0.3,0.2,0.5C15.8,12.3,15.6,12.5,15.1,12.5z"/>
					<path class="st1" d="M15.6,11.3c-0.1-0.1-0.3-0.1-0.5-0.1c-0.2,0-0.4,0-0.5,0.1c-0.1,0.1-0.2,0.3-0.2,0.5
						c0,0.2,0.1,0.4,0.2,0.5c0.1,0.1,0.3,0.1,0.5,0.1c0.5,0,0.7-0.2,0.7-0.6C15.8,11.6,15.8,11.4,15.6,11.3z M15.5,12.2
						c-0.1,0.1-0.2,0.1-0.3,0.1c-0.1,0-0.3,0-0.3-0.1c-0.1-0.1-0.1-0.2-0.1-0.4c0-0.2,0-0.3,0.1-0.4c0.1-0.1,0.2-0.1,0.3-0.1
						c0.1,0,0.3,0,0.3,0.1c0.1,0.1,0.1,0.2,0.1,0.4C15.6,12,15.6,12.1,15.5,12.2z"/>
					<path class="st9" d="M15.5,11.4c-0.1-0.1-0.2-0.1-0.3-0.1c-0.1,0-0.3,0-0.3,0.1c-0.1,0.1-0.1,0.2-0.1,0.4c0,0.2,0,0.3,0.1,0.4
						c0.1,0.1,0.2,0.1,0.3,0.1c0.1,0,0.3,0,0.3-0.1c0.1-0.1,0.1-0.2,0.1-0.4C15.6,11.7,15.6,11.5,15.5,11.4z M15.1,12.3
						c-0.2,0-0.5-0.1-0.5-0.5c0-0.3,0.2-0.5,0.5-0.5c0.3,0,0.5,0.2,0.5,0.5C15.6,12.1,15.4,12.3,15.1,12.3z"/>
				</g>
				<g>
					<path class="st9" d="M15.4,11.6v0.6H16v-0.6H15.4z M15.9,12.1h-0.5v-0.5h0.5V12.1z"/>
					<rect x="15.4" y="11.6" class="st1" width="0.5" height="0.5"/>
				</g>
				<path class="st9" d="M13.8,11.5v0.7h1v-0.7H13.8z M13.8,11.5h1v0.6h-1V11.5z"/>
				<rect x="13.8" y="11.5" class="st1" width="1" height="0.6"/>
			</g>
		</g>
	</g>
	<path class="st11" d="M53.5,19h-28V0.5c0.7-0.1,1.4-0.1,2.1-0.1C39.7,0.4,49.9,8.2,53.5,19z"/>
	<path class="st12" d="M53.5,36.2c-3.6,10.8-13.8,18.6-25.9,18.6c-0.7,0-1.4,0-2.1-0.1V36.2H53.5z"/>
</g>
<g>
	<path class="st13" d="M-264.1,76.2c-1.4,0-2.9,0.1-4.3,0.3c-9.8,1.6-18,8.4-21.3,17.8c-1,2.9-1.5,6-1.5,9.1c0,3.1,0.5,6.1,1.5,9
		c3.3,9.4,11.5,16.2,21.3,17.8c1,0.2,1.9,0.3,2.9,0.3c0.5,0,0.9,0,1.4,0s0.9,0,1.4,0c11-0.6,20.6-7.7,24.2-18.1c1-2.9,1.5-5.9,1.5-9
		c0-3.1-0.5-6.2-1.5-9.1C-242.3,83.5-252.6,76.2-264.1,76.2z M-264.1,117.3c-7.7,0-13.9-6.2-13.9-13.9s6.2-13.9,13.9-13.9
		s13.9,6.2,13.9,13.9S-256.4,117.3-264.1,117.3z"/>
	<path class="st1" d="M-264.1,89.4c-7.7,0-13.9,6.2-13.9,13.9s6.2,13.9,13.9,13.9s13.9-6.2,13.9-13.9S-256.4,89.4-264.1,89.4z
		 M-256.5,106.8l-4.1-1.4l-2.6,3.4l0.1-4.3l-4-1.4l4-1.3l0.1-4.3l2.5,3.5l4.1-1.2l-2.5,3.4L-256.5,106.8z M-261.4,95
		c-4.6,0-8.3,3.7-8.3,8.3c0,4.6,3.7,8.3,8.3,8.3c1.9,0,3.7-0.7,5.1-1.8c-1.9,2.3-4.7,3.7-7.9,3.7c-5.7,0-10.3-4.6-10.3-10.3
		c0-5.7,4.6-10.3,10.3-10.3c3.4,0,6.4,1.6,8.3,4.1C-257.4,95.8-259.3,95-261.4,95z"/>
	<polygon class="st13" points="-262.8,101.2 -265.2,97.7 -265.3,101.9 -269.4,103.2 -265.4,104.6 -265.5,108.8 -262.9,105.5 
		-258.8,106.8 -261.3,103.3 -258.7,99.9 	"/>
	<path class="st13" d="M-263,92.9c-5.7,0-10.3,4.6-10.3,10.3c0,5.7,4.6,10.3,10.3,10.3c3.2,0,6-1.4,7.9-3.7
		c-1.4,1.1-3.2,1.8-5.1,1.8c-4.6,0-8.3-3.7-8.3-8.3c0-4.6,3.7-8.3,8.3-8.3c2.1,0,4,0.8,5.5,2C-256.7,94.6-259.6,92.9-263,92.9z"/>
</g>
<g>
	<path class="st5" d="M-321.5,76.2c-1.4,0-2.9,0.1-4.3,0.3c-9.8,1.6-18,8.4-21.3,17.7h51.2C-299.7,83.5-310,76.2-321.5,76.2z"/>
	<path class="st1" d="M-347.1,94.3c-1,2.9-1.5,6-1.5,9.1c0,3.1,0.5,6.1,1.5,9c0,0,0,0,0,0h51.2c0,0,0,0,0,0c1-2.9,1.5-5.9,1.5-9
		c0-3.1-0.5-6.2-1.5-9.1c0,0,0,0,0,0L-347.1,94.3C-347.1,94.3-347.1,94.3-347.1,94.3z M-307.7,101.9l1.5-4.5l1.5,4.5h4.8l-3.8,2.8
		l1.4,4.5l-3.8-2.8l-3.8,2.8l1.4-4.5l-3.8-2.8H-307.7z M-336.8,97.5l1.5,4.5h4.8l-3.8,2.8l1.4,4.5l-3.8-2.8l-3.8,2.8l1.4-4.5
		l-3.8-2.8h4.8L-336.8,97.5z"/>
	<path class="st2" d="M-325.8,130.2c1,0.2,1.9,0.3,2.9,0.3c0.5,0,0.9,0,1.4,0s0.9,0,1.4,0c11-0.6,20.5-7.6,24.2-18h-51.2
		C-343.8,121.8-335.6,128.6-325.8,130.2z"/>
	<polygon class="st4" points="-339.2,104.8 -340.6,109.3 -336.8,106.5 -333,109.3 -334.4,104.8 -330.6,102 -335.3,102 -336.8,97.5 
		-338.3,102 -343,102 	"/>
	<polygon class="st4" points="-310,109.2 -306.2,106.5 -302.4,109.2 -303.8,104.8 -300,101.9 -304.7,101.9 -306.2,97.5 
		-307.7,101.9 -312.4,101.9 -308.6,104.8 	"/>
</g>
<g>
	<path class="st14" d="M-498.1,130.2c1,0.2,1.9,0.3,2.9,0.3c0.5,0,0.9,0,1.4,0s0.9,0,1.4,0c9.3-0.5,17.6-5.6,22.1-13.5l-47,0
		C-513.3,124-506.3,128.9-498.1,130.2z"/>
	<path class="st2" d="M-468.2,94.3c-0.6-1.6-1.3-3.1-2.1-4.5h-47c-0.8,1.4-1.5,3-2.1,4.5c-1,2.9-1.5,6-1.5,9.1c0,3.1,0.5,6.1,1.5,9
		c0.6,1.6,1.3,3.1,2.1,4.6l47,0c0.8-1.4,1.5-3,2.1-4.6c1-2.9,1.5-5.9,1.5-9C-466.7,100.2-467.2,97.2-468.2,94.3z"/>
	<path class="st13" d="M-493.8,76.2c-1.4,0-2.9,0.1-4.3,0.3c-8.2,1.3-15.2,6.2-19.2,13.2l47,0C-475.1,81.5-484,76.2-493.8,76.2z"/>
	<g>
		<path class="st1" d="M-496.8,110.2c3.2,0,4.8-1.8,5.8-3.3c-0.6,0.5-1.9,1.8-4.3,1.8c-3,0-5.4-2.4-5.4-5.4c0-3,2.4-5.4,5.4-5.4
			c2.5,0,3.6,1.1,4.4,1.9c-0.4-0.9-2.6-3.4-5.9-3.4c-3.8,0-6.9,3.1-6.9,6.9C-503.6,107.2-500.6,110.2-496.8,110.2z"/>
		<polygon class="st1" points="-489.6,104.5 -489.6,108.1 -487.4,105.2 -484,106.3 -486.1,103.4 -484,100.4 -487.5,101.5 
			-489.6,98.6 -489.6,102.2 -493,103.3 		"/>
	</g>
</g>
<g>
	<circle class="st15" cx="-551.3" cy="103.3" r="27.2"/>
	<path class="st16" d="M-536.8,99h-11l-3.4-10.6l-3.4,10.6h-11l8.9,6.5l-3.4,10.5l9-6.5l9,6.5l-3.4-10.5L-536.8,99z M-548.2,104.6
		l-3,2.2l-3-2.2l1.1-3.5h3.7L-548.2,104.6z M-551.3,95.3l1.2,3.6h-2.4L-551.3,95.3z M-559.1,101.1h3.7l-0.7,2.2L-559.1,101.1z
		 M-556.1,110.4l1.2-3.6l1.9,1.4L-556.1,110.4z M-546.4,110.4l-3.1-2.2l1.9-1.4L-546.4,110.4z M-547.1,101.1h3.7l-3,2.2
		L-547.1,101.1z"/>
</g>
<g>
	<path class="st17" d="M-666.1,76.2c-1.4,0-2.9,0.1-4.3,0.3c-2.7,0.4-5.3,1.3-7.7,2.4l6.6,2.7l-13.6,5.2l13.6,5.6l-13.6,5.4
		l13.6,5.4l-13.6,5.3l13.6,5.6l-13.6,5.4l13.6,5.4l-6.7,2.8c2.4,1.2,5,2,7.7,2.4c1,0.2,1.9,0.3,2.9,0.3c0.5,0,0.9,0,1.4,0
		c0.5,0,0.9,0,1.4,0c11-0.6,20.6-7.7,24.2-18.1c1-2.9,1.5-5.9,1.5-9c0-3.1-0.5-6.2-1.5-9.1C-644.4,83.5-654.6,76.2-666.1,76.2z"/>
	<path class="st1" d="M-685,119.6l13.6-5.4l-13.6-5.6l13.6-5.3l-13.6-5.4l13.6-5.4l-13.6-5.6l13.6-5.2l-6.6-2.7
		c-6.3,3.1-11.2,8.5-13.6,15.3c-1,2.9-1.5,6-1.5,9.1c0,3.1,0.5,6.1,1.5,9c2.4,6.8,7.3,12.3,13.6,15.3l6.7-2.8L-685,119.6z"/>
</g>
</svg>
