<?xml version="1.0" encoding="utf-8"?>
<!-- Generator: Adobe Illustrator 24.1.1, SVG Export Plug-In . SVG Version: 6.00 Build 0)  -->
<svg version="1.1" id="Layer_1" xmlns="http://www.w3.org/2000/svg" xmlns:xlink="http://www.w3.org/1999/xlink" x="0px" y="0px"
	 viewBox="0 0 55.3 55.3" style="enable-background:new 0 0 55.3 55.3;" xml:space="preserve">
<style type="text/css">
	.st0{fill:#D11F36;}
	.st1{fill:#FFFFFF;}
	.st2{fill:#010101;}
	.st3{fill:#0C733B;}
	.st4{fill:#0B6D38;}
	.st5{fill:#E41E26;}
	.st6{fill:#CD2028;}
	.st7{fill:#067B3F;}
	.st8{fill:#269D48;}
	.st9{fill:#BE282F;}
	.st10{fill:#036334;}
	.st11{fill:#ED1F33;}
</style>
<g>
	<path class="st0" d="M-238.5,18.6c-3.8-10.8-14.1-18.1-25.6-18.1c-1.4,0-2.9,0.1-4.3,0.3c-5.5,0.9-10.5,3.4-14.4,7.1l11.9,10.6
		H-238.5z"/>
	<path class="st1" d="M-260.7,27.6l-10.2,9.1h32.4c0,0,0,0,0,0c1-2.9,1.5-5.9,1.5-9c0-3.1-0.5-6.2-1.5-9.1c0,0,0,0,0,0h-32.4
		L-260.7,27.6z"/>
	<path class="st2" d="M-282.8,47.3c3.9,3.7,8.9,6.2,14.4,7.1c1,0.2,1.9,0.3,2.9,0.3c0.5,0,0.9,0,1.4,0s0.9,0,1.4,0
		c11-0.6,20.5-7.6,24.2-18h-32.4L-282.8,47.3z"/>
	<path class="st3" d="M-282.8,47.3l11.9-10.6l10.2-9.1l-10.2-9.1l-11.9-10.6c-3.1,2.9-5.4,6.5-6.9,10.6c-1,2.9-1.5,6-1.5,9.1
		c0,3.1,0.5,6.1,1.5,9C-288.2,40.8-285.8,44.4-282.8,47.3z"/>
</g>
<g>
	<circle class="st4" cx="-91.7" cy="103.3" r="27.2"/>
	<g>
		<path class="st1" d="M-74.3,94.9c-0.2,0-0.4,0-0.6,0c0.7,4.4,0.5,8.4,0.5,8.6c-0.3,1.5-2.2,1.9-2.7,1.8c-0.4-0.1-0.4-0.3-0.3-0.4
			c0.8-0.5,2.2-1.3,2.2-1.9c0.3-2.1-0.6-8.1-0.6-8.1c-0.1-0.1-0.2-0.2-0.2-0.7c0-0.8,0.3-1.3,0.4-1.2
			C-75.1,93.7-74.2,94.9-74.3,94.9z"/>
		<path class="st1" d="M-84.5,103c-0.4,1.5-1.7,2.2-2.4,2.3c-0.5,0-1.1-0.5-0.7-0.6c0.9-0.4,2.5-1.4,2.5-2c0.2-2.1-0.4-7-0.5-7.1
			c-0.1-0.1-0.2-0.5-0.2-1c0-0.8,0.4-1.5,0.5-1.4c0.5,0.7,0.9,2,0.8,2c-0.2,0-0.3,0-0.4,0C-84.2,99.5-84.3,102.5-84.5,103z"/>
		<path class="st1" d="M-82.4,102.2c0,0.2-0.2,1-0.7,1.3c-0.1,0.1-0.1-0.6-0.1-1c0.1-1.7-0.8-7-0.9-7c-0.1-0.1-0.2-0.8-0.2-1.3
			c0-0.6,0.4-1.1,0.5-1c0.5,0.7,1.1,2,1.1,2c-0.2,0-0.4,0-0.5,0C-82.5,99.5-82.3,101.7-82.4,102.2z"/>
		<path class="st1" d="M-75.4,102.9c-0.1,0.1-0.9-1.2-1-1.5c-0.1-0.1-0.1-0.3-0.2-0.5c0,0.7,0.1,1.1,0,1.2c0,0.2-0.3,0.9-0.8,1.1
			c-0.1,0.1-0.1-0.6-0.1-1c0.1-0.7,0-1.8-0.1-2.8c-0.3-0.5-0.7-1-1-1.4c0.2,2.7,0.1,4.4,0,4.7c-0.1,0.5-0.7,1-1.1,1
			c-0.7,0-1.1-0.9-1.5-0.9c-0.4,0-0.6,2.1-1.4,2.2c-0.3,0-1.5-1.1-1.5-2c0-0.9,0.5-1.5,0.6-1.3c0.1,1.2,0,2.2,0.6,2.2
			c0.4,0,1.4-2.5,1.8-2.5c0.5,0,0.9,1.2,1.3,1.2c0.3,0,0.6-0.5,0.6-0.6c0.1-1.4-0.1-3.8-0.3-5.4c-0.6-0.9-1.1-1.5-1.2-1.5
			c-0.1,0-0.4-0.2-0.6-0.7c-0.2-0.5-0.1-1.5,0-1.4c0.7,0.4,1.3,1.2,1.3,1.2c-0.1,0-0.1,0.1-0.2,0.1c0.1,0.2,0.3,0.4,0.4,0.6
			c-0.1-0.3-0.1-0.9-0.1-1.3c0-0.7,0.3-0.9,0.4-0.8c0.5,0.7,1.1,2.1,1,2.1c-0.2,0-0.3,0-0.4,0c0.1,0.6,0.1,1.1,0.2,1.6
			c0.4,0.5,0.7,1,1,1.4c-0.2-1.5-0.4-2.8-0.4-2.8c-0.1-0.1-0.2-0.6-0.2-1.1c0-0.8,0.4-1.2,0.5-1.1c0.5,0.7,1,2.3,0.9,2.3
			c-0.2,0-0.3,0-0.4,0c0.2,1.7,0.4,3,0.5,4c0.6,0.9,1,1.4,1.1,1.6C-75.5,101.3-75,102.5-75.4,102.9z"/>
		<path class="st1" d="M-77.7,104.8c-0.2,0.1-0.7,0.3-0.8,0.1c-0.1-0.2,0.4-0.5,0.4-0.6c0.1-0.5-0.3-0.1-0.3-0.5
			c0-0.2,0.3-0.3,0.4-0.3c0.1,0,0.4,0.1,0.5,0.3c0,0.1-0.1,0.1-0.1,0.2c0,0.1,0,0.2,0,0.2c0,0.1,0.5,0,0.5,0.1
			C-77.1,104.7-77.4,104.7-77.7,104.8z"/>
		<path class="st1" d="M-76.5,96.4c0-0.3,0-0.7-0.1-1c-0.1-0.4-0.4-0.5-0.4-0.8c0-0.5,0.4-0.3,0.4-0.3c0.2,0.2,0.3,0.3,0.4,0.7
			C-76.1,95.3-76.1,96-76.5,96.4z"/>
		<path class="st1" d="M-80,101.8c0-0.2,0.1-0.5,0-0.9c-0.1-0.4-0.3-0.5-0.4-0.8c0-0.5,0.4-0.3,0.4-0.3c0.2,0.2,0.3,0.4,0.3,0.7
			C-79.6,100.9-79.6,101.4-80,101.8z"/>
		<path class="st1" d="M-79.7,99c0,0-0.5,0.5-0.9,0.8c-0.4,0.3-0.8,0.5-1,0.6c-0.1-0.2-0.2-0.5-0.1-0.6c0.2-0.2,0.6-0.4,0.9-0.7
			c0.5-0.3,0.9-0.6,1-0.7C-79.7,98.4-79.7,98.8-79.7,99z"/>
		<path class="st1" d="M-80.2,97c0,0.1-0.3,0.1-0.5,0.1c0,0.6,0,1.1-0.1,1.4c0,0.1-0.7-0.5-1.2-0.9c-0.3-0.3-0.1-0.9,0.1-0.9
			c0.5-0.1,0.4,0.4,0.6,0.4c0.3,0-0.1-0.8,0.4-0.9C-80.6,96.1-80.2,96.2-80.2,97z"/>
		<path class="st1" d="M-85.3,102.4c-0.1,0.1-0.8-1.5-0.9-1.8c-0.2-0.5-0.6-1.2-1.1-1.9c0.2,2.2,0.2,3.4,0.2,3.7
			c0,0.2-0.3,1.1-0.8,1.4c-0.1,0.1-0.1-0.9-0.1-1.2c0.1-0.8-0.2-3.7-0.3-5.6c-0.7-1-1.2-1.8-1.2-1.8c-0.1,0-0.7-0.7-0.9-1.2
			c-0.2-0.5,0-1.2,0.1-1.1c0.9,0.4,1.6,1.5,1.5,1.5c-0.1,0.1-0.2,0.1-0.3,0.1c0.2,0.3,0.4,0.5,0.6,0.8c0-0.1,0-0.2,0-0.2
			c-0.1-0.1-0.3-0.8-0.3-1.4c0-0.6,0.3-0.9,0.4-0.8c0.5,0.7,1.3,2.2,1.2,2.2c-0.2,0-0.3,0-0.4,0c0.1,0.6,0.2,1.1,0.2,1.6
			c1.4,2.1,1.9,3.2,2.1,3.5C-85.3,100.7-85,102-85.3,102.4z"/>
		<path class="st1" d="M-86.7,95.3c0.1-0.2,0.1-0.6,0-1c-0.1-0.4-0.4-0.4-0.4-0.7c-0.1-0.5,0.4-0.4,0.4-0.3c0.2,0.2,0.3,0.3,0.4,0.7
			C-86.2,94.3-86.3,94.9-86.7,95.3z"/>
		<path class="st1" d="M-85.9,96.4c-0.1,0.3-0.2,0.5-0.6,0.5c-0.4,0-0.7-0.3-0.7-0.6c0-0.2,0-0.4,0.2-0.4c0,0,0.2,0,0.2,0.3
			c0,0.2,0.1,0.1,0.2,0.1c0,0,0-0.2,0-0.3c0-0.1,0.2-0.1,0.2,0c0,0.1,0,0.2,0,0.3c0.1,0,0.2,0,0.2-0.1c0-0.3,0.2-0.3,0.2-0.3
			C-85.9,95.9-85.8,96.2-85.9,96.4z"/>
		<path class="st1" d="M-92.5,98.4c-0.1,0.3-0.2,0.5-0.6,0.5c-0.4,0-0.7-0.3-0.7-0.6c0-0.2,0-0.4,0.2-0.4c0,0,0.2,0,0.2,0.3
			c0,0.2,0.1,0.1,0.2,0.1c0,0,0-0.2,0-0.3c0-0.1,0.2-0.1,0.2,0c0,0.1,0,0.2,0,0.3c0.1,0,0.2,0,0.2-0.1c0-0.3,0.2-0.3,0.2-0.3
			C-92.5,97.9-92.4,98.2-92.5,98.4z"/>
		<path class="st1" d="M-89.8,96.5c-0.1,0.2-0.3,0.5-0.6,0.5c-0.3,0,0.2-0.6-0.2-0.6c-0.1,0-0.2,0.2-0.3,0.3
			c-0.2,0.3-0.4,0.8-0.9,0.8c-0.7,0-1.1-0.6-1.5-0.6c-0.4,0-0.2,0.8-1,0.8c-1.6,0-0.9-2.3-1.3-2.3c-0.3,0-0.5,2-1.1,2
			c-1.4-0.1-1.3-3.3-0.8-3.3c0.2,0,0.2,1.3,0.5,2.1c0.3,0.7,0.6-0.1,0.6-0.1c0.3-1.7,1.1-2.3,1.3-2.3c0.4,0,0.3,0.9,0.4,2.2
			c0,0.2,0.2,0.7,0.7,0.7c0.4,0,0.7-0.6,0.7-0.8c0-1.9-0.3-1.4-0.3-2.2c0-0.6,0.5-1,0.5-0.9c0.6,0,0.5,2.6,0.5,2.9
			c0,0.6,0.5,0.9,0.7,0.9c0.3,0,0.5-0.5,0.5-0.6c0-0.7-0.3-1-0.5-1.5c0-0.1-0.2-0.3-0.2-0.7c0-0.4,0.5-0.7,0.7-0.7
			c0.4,0,0.9,1.1,0.8,1.2c-0.1,0.1-0.3,0.1-0.5,0.1c0.4,1.1,0.1,1.8,0.9,1.8c0.4,0,0.5-0.4,0.7-0.3C-89.4,96-89.7,96.4-89.8,96.5z"
			/>
		<path class="st1" d="M-88.7,104.2c-0.7,0.1-1.2,0.6-1.3,0.4c-0.1-0.2-0.1-0.3,0-0.7c-0.2,0-0.5,0-0.5-0.1c0-0.3,0.5-0.7,0.7-0.7
			c0.4,0,0,0.9,0.3,0.9c0.3,0,0.3-0.4,0.9-0.4C-88.4,103.7-88.4,104.1-88.7,104.2z"/>
		<path class="st1" d="M-99.7,102.2c0-0.2,0-0.4-0.1-0.7c-0.1-0.3-0.4-0.4-0.4-0.6c-0.1-0.4,0.3-0.3,0.4-0.3
			c0.2,0.1,0.3,0.2,0.4,0.5C-99.4,101.4-99.4,101.8-99.7,102.2z"/>
		<path class="st1" d="M-107.7,94.7c0-0.2,0-0.4-0.1-0.8c-0.1-0.3-0.4-0.4-0.4-0.6c0-0.4,0.4-0.3,0.4-0.3c0.2,0.1,0.3,0.3,0.4,0.6
			C-107.4,93.9-107.4,94.4-107.7,94.7z"/>
		<path class="st1" d="M-103.7,93.6c-0.1,0.3-0.2,0.5-0.6,0.5c-0.4,0-0.7-0.3-0.7-0.6c0-0.2,0-0.4,0.2-0.4c0,0,0.2,0,0.2,0.3
			c0,0.2,0.1,0.1,0.2,0.1c0,0,0-0.2,0-0.3c0-0.1,0.2-0.1,0.2,0c0,0.1,0,0.2,0,0.3c0.1,0,0.2,0,0.2-0.1c0-0.3,0.2-0.3,0.2-0.3
			C-103.7,93.1-103.6,93.4-103.7,93.6z"/>
		<path class="st1" d="M-94.1,93.3c0,0.2,0,0.4-0.1,0.5c0,0.1-0.1,0.5-0.5,0.6c0-0.2-0.1-0.4,0-0.7c0-0.2,0.2-0.6,0.2-0.6
			c0.1-0.2,0.3-0.4,0.3-0.3C-94.1,92.8-94,93-94.1,93.3z"/>
		<path class="st1" d="M-98.9,97.3c-0.3,0-0.5-0.2-0.6-0.5c0-0.5,0.3-0.8,0.5-0.8c0.1,0,0,0.4,0,0.7c0.1,0,0.2,0,0.2,0
			c0.1,0,0.1-0.1,0.2-0.1c0.1,0,0.2,0,0.2,0C-98.2,96.9-98.5,97.3-98.9,97.3z"/>
		<path class="st1" d="M-96.8,94.2c-0.3,0-0.3-0.2-0.3-0.5c0.1-0.8,0.7-1.1,0.7-0.9c0,0.4-0.3,0.4-0.4,0.9c0.1,0,0.1,0,0.1,0
			c0.1,0,0.3,0,0.3,0C-96.3,93.9-96.6,94.2-96.8,94.2z"/>
		<path class="st1" d="M-91.7,100.6c0,0-0.1-0.3,0-0.3c0.8,0,2.2-0.4,2.3-1.6c0-0.5-0.3-1.4-1.2-1.3c-0.7,0.1-1.1,0.7-1.1,1
			c0,0.1,0.1,1-0.1,1c-1.5,0.1-2.3,0.9-2.7,1.4c0,0,0,0-0.1,0.1c-0.2-1-0.2-1.9-0.3-2c-0.3-0.6-0.8-1.6-1-1.5
			c-0.2,0.1-0.4,0.5-0.3,0.8c0.2,1,1.1,2.4,0.7,3.8c-0.2,0.8-1.9,2.1-2.5,2c-0.2,0-0.4-0.3-0.5-0.6c0.3-0.3,3.2-1.8,1.8-4.3
			c0.1,0,0.2,0,0.3,0c0.1,0,0.1-0.8-0.8-1.4c-0.1-0.1-0.7,0.1-0.7,0.8c0,0.5,0.5,0.9,0.5,1c0.6,0.9,0.7,1.2-1.3,2.6
			c0-0.5,0-0.9,0-0.9c-0.3,0.5-0.4,0.9-0.6,1.3c0,0,0,0-0.1,0c-0.3,0.2-3.5,2.2-3.1,2.4c0.4,0.2,2-0.5,3-1.1c0.2,1,1.1,1.2,1.6,1.2
			c0.7,0,2-0.8,2.8-2.4c0.4,0.5,1.5,2,3.3,2c0.5,0,0.5-0.7,0.4-0.7c-0.2-0.2-0.5-0.3-0.8-0.4c-0.3-0.3-0.6-0.9,0.2-1.1
			c0.7-0.2,2.1,0,2.6-0.4c0.6-0.5,0.8-1.1,0.9-1.4C-88.7,100.7-90,100.7-91.7,100.6z M-91,98.6c0,0,0.1-0.1,0.2,0
			c0.1,0,0.2,0.1,0.3,0.2c0,0,0.1,0.1,0.1,0.3c-0.1,0-0.2,0-0.3,0c-0.1,0-0.2-0.2-0.2-0.2C-91,98.8-91,98.6-91,98.6z M-92.2,101.9
			c-0.1,0.3-0.7,0.1-0.8,0.5c-0.1,0.2-0.2,0.6,0.1,0.9c-0.7-0.3-1.3-0.7-1.5-1.4c0-0.2-0.1-0.4-0.1-0.6c0.4,0.3,1.6,0.3,2.2,0.3
			C-92.3,101.6-92.1,101.7-92.2,101.9z"/>
		<path class="st1" d="M-98.2,94.4c0.1,0.1-1.2,1.5-1.6,1.8c0,0-0.8,0-1.2,0c0.8-0.7,2-1.5,2.1-1.8c0.1-0.2-0.4-0.4-0.4-0.7
			c0-0.2,0.3-0.4,0.6-0.5c0.1-0.1,0.5,0,0.6,0.2c0,0.1,0,0.5-0.2,0.6c-0.1,0-0.2-0.5-0.5-0.3c-0.1,0.1,0.1,0.4,0.4,0.4
			C-98.4,94.1-98.3,94.3-98.2,94.4z"/>
		<path class="st1" d="M-102.6,97c-0.1,0.7-0.8,1-1.2,1c-0.6,0-0.6-0.5-1-0.5c-0.1,0-0.2,0.1-0.3,0.1c0.1,1.2,0.2,2.2,0.2,2.9
			c0,0.2-0.3,0.8-0.7,1.1c-0.1,0.1-0.1-0.8,0-1.1c0-0.5,0-1.4-0.1-2.3c-0.1,0.1-0.3,0.1-0.4,0.1c-1.5,0-0.4-2.6-0.9-2.6
			c-0.5-0.1-0.4,2.4-1,2.4c-1.3,0-1.2-3.2-0.7-3.2c0.2,0,0.2,1.4,0.4,1.9c0.3,0.5,0.5-0.1,0.5-0.3c0.2-1.4,0.4-2,1-2
			c0.3,0,0.4,0.7,0.4,1.8c0,0.2-0.1,0.9,0.4,0.9c0,0,0.1,0,0.1,0c-0.1-1-0.2-1.8-0.3-1.9c-0.1-0.2-0.4-1.1-0.3-1.6
			c0-0.6,0.5-0.7,0.8-0.2c0.2,1.2,0.3,2.3,0.5,3.4c0.1-0.1,0.2-0.2,0.2-0.3c0.1-0.7-0.3-0.9-0.3-1.5c-0.1-0.9,0.3-1,0.3-1
			c0.8,0.2,0.6,1.7,0.6,2c0,0.4,0.7,0.8,0.8,0.8c0.3,0,0.3-0.3,0.3-0.4c0-0.6-0.4-0.9-0.6-1.2c0-0.1-0.2-0.4-0.2-0.7
			c0-0.3,0.3-0.6,0.5-0.6c0.4,0,0.9,1,0.8,1.1c0,0-0.2,0-0.3,0C-102.7,96-102.6,96.6-102.6,97z"/>
		<path class="st1" d="M-108.5,105c-0.3,0-0.6-0.6-0.6-0.8c-0.1-0.9,0.4-1.9,0.6-1.9c0.2,0-0.1,1.2-0.1,1.8c0.1,0,0.2,0,0.3,0
			c0.1,0,0.2-0.3,0.2-0.3c0.1,0,0.2,0.3,0.2,0.3C-107.9,104.3-108.1,105-108.5,105z"/>
		<path class="st1" d="M-106.3,99.6c-0.3,0.2-1,0.4-1.3,0.6c-0.4,0.2-0.9,0.5-1.2,0.6c0.4-0.8,0.7-1.1,1-1.3c0.2-0.2,0.7-0.4,1-0.5
			C-106.2,98.9-105.8,99.3-106.3,99.6z"/>
		<path class="st1" d="M-98.7,98.3c0,0.3-0.3,1.1-0.6,0.2c-0.2-0.4-0.5-0.1-0.7,0.4c-0.1,0.4-0.7,0.6-0.7,0c0-0.8-0.5-0.4-0.6-0.4
			c0,0,0,0,0,0c-0.1-0.9-0.2-2-0.4-3.3c0.1,0,0.2,0,0.4,0c0.1,0-0.4-1.4-0.8-2c-0.1-0.1-0.6,0-0.6,0.8c0,0.5,0.2,1.4,0.3,1.5
			c0,0,0.3,1.8,0.4,3.6c-0.1,0-0.2,0.1-0.2,0c0,0-0.7-0.8-1.2-0.8c-0.5,0-1,0.8-1,1.4c0,0.6,0.2,0.9,0.7,0.9c0.9,0,0.9-0.7,0.9-0.3
			c0,1-1.4,2-2.2,1.9c-1.4-0.1-0.7-2.2-1.2-2.2c-0.3,0-1.1,3.1,1.3,3.2c1,0,2.6-1.1,2.7-3.3c0-0.1,0.1-0.2,0.2-0.3c0,0.5,0,1,0,1.4
			c0,1.3-1.8,2.7-3.1,2.7c-2.1,0.1-1.4-2.4-1.9-2.4c-0.4,0-1.1,3.6,2,3.4c1.4-0.1,3.3-1.2,3.7-2.7c0.1-0.3,0.2-1.2,0.1-2.7
			c0.2,0.1,0.3,0.6,0.6,0.6c0.3,0,0.7-0.6,1-0.6c0.2,0,0.3,0.3,0.5,0.3c0.6,0,0.8-0.8,0.8-1.8C-98.5,98.1-98.7,98.1-98.7,98.3z
			 M-103.4,99.9c-0.2,0-0.3-0.1-0.3-0.2c0-0.2,0.1-0.3,0.3-0.3c0.2,0,0.3,0.2,0.3,0.3C-103.1,99.8-103.2,99.9-103.4,99.9z"/>
		<path class="st1" d="M-79.6,114.6c-0.3,0-0.5,0.2-0.5,0.2c-0.1,0.1-1-0.1-2.7-0.1c0.1-0.1,0.4-0.6,0.1-0.6c-0.3,0-0.1-0.4-0.2-0.4
			c-0.3,0-0.5,0.3-0.5,0.5c0,0.2,0.1,0.4,0.2,0.5c-0.2,0-0.4,0-0.6,0c-5.4,0-15.4,0-16.4-0.2c-0.4-0.1-4.4-0.2-4.3-0.1
			c0.3,0.5,1.4,1.1,2.3,1.2c0.4,0,12.2,0.1,19,0.1c0,0.3-0.1,0.4-0.1,0.5c0,0.4,0.2,0.8,0.4,0.8c0.2,0,0.2-0.3,0.2-0.3
			c1,0.1,2.8,0,2.8,0c0.1,0.2,0.2,0.3,0.4,0.3c0.7,0,0.7-0.8,0.7-1.1C-78.7,115.8-78.8,114.8-79.6,114.6z M-80.7,116.4
			c-0.1,0-0.1-0.2-0.5-0.2c-0.3,0-0.4,0.2-0.5,0.2c-0.3,0-0.6,0-0.9,0c0,0-0.1,0-0.1-0.2c0-0.1,0.1-0.2,0.1-0.4c1,0,1.9,0,2.5,0
			c0,0.2,0,0.4,0.1,0.6C-79.9,116.4-80.2,116.5-80.7,116.4z"/>
	</g>
</g>
<g>
	<path class="st5" d="M-264.1,76.2c-1.4,0-2.9,0.1-4.3,0.3c-9.8,1.6-18,8.4-21.3,17.8c-1,2.9-1.5,6-1.5,9.1c0,3.1,0.5,6.1,1.5,9
		c3.3,9.4,11.5,16.2,21.3,17.8c1,0.2,1.9,0.3,2.9,0.3c0.5,0,0.9,0,1.4,0s0.9,0,1.4,0c11-0.6,20.6-7.7,24.2-18.1c1-2.9,1.5-5.9,1.5-9
		c0-3.1-0.5-6.2-1.5-9.1C-242.3,83.5-252.6,76.2-264.1,76.2z M-264.1,117.3c-7.7,0-13.9-6.2-13.9-13.9s6.2-13.9,13.9-13.9
		s13.9,6.2,13.9,13.9S-256.4,117.3-264.1,117.3z"/>
	<path class="st1" d="M-264.1,89.4c-7.7,0-13.9,6.2-13.9,13.9s6.2,13.9,13.9,13.9s13.9-6.2,13.9-13.9S-256.4,89.4-264.1,89.4z
		 M-256.5,106.8l-4.1-1.4l-2.6,3.4l0.1-4.3l-4-1.4l4-1.3l0.1-4.3l2.5,3.5l4.1-1.2l-2.5,3.4L-256.5,106.8z M-261.4,95
		c-4.6,0-8.3,3.7-8.3,8.3c0,4.6,3.7,8.3,8.3,8.3c1.9,0,3.7-0.7,5.1-1.8c-1.9,2.3-4.7,3.7-7.9,3.7c-5.7,0-10.3-4.6-10.3-10.3
		c0-5.7,4.6-10.3,10.3-10.3c3.4,0,6.4,1.6,8.3,4.1C-257.4,95.8-259.3,95-261.4,95z"/>
	<polygon class="st5" points="-262.8,101.2 -265.2,97.7 -265.3,101.9 -269.4,103.2 -265.4,104.6 -265.5,108.8 -262.9,105.5 
		-258.8,106.8 -261.3,103.3 -258.7,99.9 	"/>
	<path class="st5" d="M-263,92.9c-5.7,0-10.3,4.6-10.3,10.3c0,5.7,4.6,10.3,10.3,10.3c3.2,0,6-1.4,7.9-3.7c-1.4,1.1-3.2,1.8-5.1,1.8
		c-4.6,0-8.3-3.7-8.3-8.3c0-4.6,3.7-8.3,8.3-8.3c2.1,0,4,0.8,5.5,2C-256.7,94.6-259.6,92.9-263,92.9z"/>
</g>
<g>
	<path class="st6" d="M-321.5,76.2c-1.4,0-2.9,0.1-4.3,0.3c-9.8,1.6-18,8.4-21.3,17.7h51.2C-299.7,83.5-310,76.2-321.5,76.2z"/>
	<path class="st1" d="M-347.1,94.3c-1,2.9-1.5,6-1.5,9.1c0,3.1,0.5,6.1,1.5,9c0,0,0,0,0,0h51.2c0,0,0,0,0,0c1-2.9,1.5-5.9,1.5-9
		c0-3.1-0.5-6.2-1.5-9.1c0,0,0,0,0,0L-347.1,94.3C-347.1,94.3-347.1,94.3-347.1,94.3z M-307.7,101.9l1.5-4.5l1.5,4.5h4.8l-3.8,2.8
		l1.4,4.5l-3.8-2.8l-3.8,2.8l1.4-4.5l-3.8-2.8H-307.7z M-336.8,97.5l1.5,4.5h4.8l-3.8,2.8l1.4,4.5l-3.8-2.8l-3.8,2.8l1.4-4.5
		l-3.8-2.8h4.8L-336.8,97.5z"/>
	<path class="st2" d="M-325.8,130.2c1,0.2,1.9,0.3,2.9,0.3c0.5,0,0.9,0,1.4,0s0.9,0,1.4,0c11-0.6,20.5-7.6,24.2-18h-51.2
		C-343.8,121.8-335.6,128.6-325.8,130.2z"/>
	<polygon class="st7" points="-339.2,104.8 -340.6,109.3 -336.8,106.5 -333,109.3 -334.4,104.8 -330.6,102 -335.3,102 -336.8,97.5 
		-338.3,102 -343,102 	"/>
	<polygon class="st7" points="-310,109.2 -306.2,106.5 -302.4,109.2 -303.8,104.8 -300,101.9 -304.7,101.9 -306.2,97.5 
		-307.7,101.9 -312.4,101.9 -308.6,104.8 	"/>
</g>
<g>
	<path class="st8" d="M-498.1,130.2c1,0.2,1.9,0.3,2.9,0.3c0.5,0,0.9,0,1.4,0s0.9,0,1.4,0c9.3-0.5,17.6-5.6,22.1-13.5l-47,0
		C-513.3,124-506.3,128.9-498.1,130.2z"/>
	<path class="st2" d="M-468.2,94.3c-0.6-1.6-1.3-3.1-2.1-4.5h-47c-0.8,1.4-1.5,3-2.1,4.5c-1,2.9-1.5,6-1.5,9.1c0,3.1,0.5,6.1,1.5,9
		c0.6,1.6,1.3,3.1,2.1,4.6l47,0c0.8-1.4,1.5-3,2.1-4.6c1-2.9,1.5-5.9,1.5-9C-466.7,100.2-467.2,97.2-468.2,94.3z"/>
	<path class="st5" d="M-493.8,76.2c-1.4,0-2.9,0.1-4.3,0.3c-8.2,1.3-15.2,6.2-19.2,13.2l47,0C-475.1,81.5-484,76.2-493.8,76.2z"/>
	<g>
		<path class="st1" d="M-496.8,110.2c3.2,0,4.8-1.8,5.8-3.3c-0.6,0.5-1.9,1.8-4.3,1.8c-3,0-5.4-2.4-5.4-5.4c0-3,2.4-5.4,5.4-5.4
			c2.5,0,3.6,1.1,4.4,1.9c-0.4-0.9-2.6-3.4-5.9-3.4c-3.8,0-6.9,3.1-6.9,6.9C-503.6,107.2-500.6,110.2-496.8,110.2z"/>
		<polygon class="st1" points="-489.6,104.5 -489.6,108.1 -487.4,105.2 -484,106.3 -486.1,103.4 -484,100.4 -487.5,101.5 
			-489.6,98.6 -489.6,102.2 -493,103.3 		"/>
	</g>
</g>
<g>
	<circle class="st9" cx="-551.3" cy="103.3" r="27.2"/>
	<path class="st10" d="M-536.8,99h-11l-3.4-10.6l-3.4,10.6h-11l8.9,6.5l-3.4,10.5l9-6.5l9,6.5l-3.4-10.5L-536.8,99z M-548.2,104.6
		l-3,2.2l-3-2.2l1.1-3.5h3.7L-548.2,104.6z M-551.3,95.3l1.2,3.6h-2.4L-551.3,95.3z M-559.1,101.1h3.7l-0.7,2.2L-559.1,101.1z
		 M-556.1,110.4l1.2-3.6l1.9,1.4L-556.1,110.4z M-546.4,110.4l-3.1-2.2l1.9-1.4L-546.4,110.4z M-547.1,101.1h3.7l-3,2.2
		L-547.1,101.1z"/>
</g>
<g>
	<path class="st11" d="M27.6,0.5c-1.4,0-2.9,0.1-4.3,0.3c-2.7,0.4-5.3,1.3-7.7,2.4L22.3,6L8.7,11.2l13.6,5.6L8.7,22.2l13.6,5.4
		L8.7,32.9l13.6,5.6L8.7,43.9l13.6,5.4L15.6,52c2.4,1.2,5,2,7.7,2.4c1,0.2,1.9,0.3,2.9,0.3c0.5,0,0.9,0,1.4,0c0.5,0,0.9,0,1.4,0
		c11-0.6,20.6-7.7,24.2-18.1c1-2.9,1.5-5.9,1.5-9c0-3.1-0.5-6.2-1.5-9.1C49.4,7.8,39.1,0.5,27.6,0.5z"/>
	<path class="st1" d="M8.7,43.9l13.6-5.4L8.7,32.9l13.6-5.3L8.7,22.2l13.6-5.4L8.7,11.2L22.3,6l-6.6-2.7C9.4,6.3,4.4,11.8,2,18.6
		c-1,2.9-1.5,6-1.5,9.1c0,3.1,0.5,6.1,1.5,9C4.4,43.5,9.4,48.9,15.6,52l6.7-2.8L8.7,43.9z"/>
</g>
</svg>
