<?xml version="1.0" encoding="utf-8"?>
<!-- Generator: Adobe Illustrator 24.1.1, SVG Export Plug-In . SVG Version: 6.00 Build 0)  -->
<svg version="1.1" id="Layer_1" xmlns="http://www.w3.org/2000/svg" xmlns:xlink="http://www.w3.org/1999/xlink" x="0px" y="0px"
	 viewBox="0 0 55.3 55.3" style="enable-background:new 0 0 55.3 55.3;" xml:space="preserve">
<style type="text/css">
	.st0{fill:#D11F36;}
	.st1{fill:#FFFFFF;}
	.st2{fill:#010101;}
	.st3{fill:#0C733B;}
	.st4{fill:#E41E26;}
	.st5{fill:#CD2028;}
	.st6{fill:#067B3F;}
	.st7{fill:#269D48;}
</style>
<g>
	<path class="st0" d="M53.2,18.6C49.4,7.7,39.1,0.5,27.6,0.5c-1.4,0-2.9,0.1-4.3,0.3C17.8,1.7,12.8,4.2,8.9,7.9l11.9,10.6H53.2z"/>
	<path class="st1" d="M31,27.6l-10.2,9.1h32.4c0,0,0,0,0,0c1-2.9,1.5-5.9,1.5-9c0-3.1-0.5-6.2-1.5-9.1c0,0,0,0,0,0H20.8L31,27.6z"/>
	<path class="st2" d="M8.9,47.3c3.9,3.7,8.9,6.2,14.4,7.1c1,0.2,1.9,0.3,2.9,0.3c0.5,0,0.9,0,1.4,0s0.9,0,1.4,0
		c11-0.6,20.5-7.6,24.2-18H20.9L8.9,47.3z"/>
	<path class="st3" d="M8.9,47.3l11.9-10.6L31,27.6l-10.2-9.1L8.9,7.9C5.9,10.8,3.5,14.5,2,18.6c-1,2.9-1.5,6-1.5,9.1
		c0,3.1,0.5,6.1,1.5,9C3.5,40.8,5.9,44.4,8.9,47.3z"/>
</g>
<g>
	<path class="st4" d="M-264.1,76.2c-1.4,0-2.9,0.1-4.3,0.3c-9.8,1.6-18,8.4-21.3,17.8c-1,2.9-1.5,6-1.5,9.1c0,3.1,0.5,6.1,1.5,9
		c3.3,9.4,11.5,16.2,21.3,17.8c1,0.2,1.9,0.3,2.9,0.3c0.5,0,0.9,0,1.4,0s0.9,0,1.4,0c11-0.6,20.6-7.7,24.2-18.1c1-2.9,1.5-5.9,1.5-9
		c0-3.1-0.5-6.2-1.5-9.1C-242.3,83.5-252.6,76.2-264.1,76.2z M-264.1,117.3c-7.7,0-13.9-6.2-13.9-13.9s6.2-13.9,13.9-13.9
		s13.9,6.2,13.9,13.9S-256.4,117.3-264.1,117.3z"/>
	<path class="st1" d="M-264.1,89.4c-7.7,0-13.9,6.2-13.9,13.9s6.2,13.9,13.9,13.9s13.9-6.2,13.9-13.9S-256.4,89.4-264.1,89.4z
		 M-256.5,106.8l-4.1-1.4l-2.6,3.4l0.1-4.3l-4-1.4l4-1.3l0.1-4.3l2.5,3.5l4.1-1.2l-2.5,3.4L-256.5,106.8z M-261.4,95
		c-4.6,0-8.3,3.7-8.3,8.3c0,4.6,3.7,8.3,8.3,8.3c1.9,0,3.7-0.7,5.1-1.8c-1.9,2.3-4.7,3.7-7.9,3.7c-5.7,0-10.3-4.6-10.3-10.3
		c0-5.7,4.6-10.3,10.3-10.3c3.4,0,6.4,1.6,8.3,4.1C-257.4,95.8-259.3,95-261.4,95z"/>
	<polygon class="st4" points="-262.8,101.2 -265.2,97.7 -265.3,101.9 -269.4,103.2 -265.4,104.6 -265.5,108.8 -262.9,105.5 
		-258.8,106.8 -261.3,103.3 -258.7,99.9 	"/>
	<path class="st4" d="M-263,92.9c-5.7,0-10.3,4.6-10.3,10.3c0,5.7,4.6,10.3,10.3,10.3c3.2,0,6-1.4,7.9-3.7c-1.4,1.1-3.2,1.8-5.1,1.8
		c-4.6,0-8.3-3.7-8.3-8.3c0-4.6,3.7-8.3,8.3-8.3c2.1,0,4,0.8,5.5,2C-256.7,94.6-259.6,92.9-263,92.9z"/>
</g>
<g>
	<path class="st5" d="M-321.5,76.2c-1.4,0-2.9,0.1-4.3,0.3c-9.8,1.6-18,8.4-21.3,17.7h51.2C-299.7,83.5-310,76.2-321.5,76.2z"/>
	<path class="st1" d="M-347.1,94.3c-1,2.9-1.5,6-1.5,9.1c0,3.1,0.5,6.1,1.5,9c0,0,0,0,0,0h51.2c0,0,0,0,0,0c1-2.9,1.5-5.9,1.5-9
		c0-3.1-0.5-6.2-1.5-9.1c0,0,0,0,0,0L-347.1,94.3C-347.1,94.3-347.1,94.3-347.1,94.3z M-307.7,101.9l1.5-4.5l1.5,4.5h4.8l-3.8,2.8
		l1.4,4.5l-3.8-2.8l-3.8,2.8l1.4-4.5l-3.8-2.8H-307.7z M-336.8,97.5l1.5,4.5h4.8l-3.8,2.8l1.4,4.5l-3.8-2.8l-3.8,2.8l1.4-4.5
		l-3.8-2.8h4.8L-336.8,97.5z"/>
	<path class="st2" d="M-325.8,130.2c1,0.2,1.9,0.3,2.9,0.3c0.5,0,0.9,0,1.4,0s0.9,0,1.4,0c11-0.6,20.5-7.6,24.2-18h-51.2
		C-343.8,121.8-335.6,128.6-325.8,130.2z"/>
	<polygon class="st6" points="-339.2,104.8 -340.6,109.3 -336.8,106.5 -333,109.3 -334.4,104.8 -330.6,102 -335.3,102 -336.8,97.5 
		-338.3,102 -343,102 	"/>
	<polygon class="st6" points="-310,109.2 -306.2,106.5 -302.4,109.2 -303.8,104.8 -300,101.9 -304.7,101.9 -306.2,97.5 
		-307.7,101.9 -312.4,101.9 -308.6,104.8 	"/>
</g>
<g>
	<path class="st7" d="M-498.1,130.2c1,0.2,1.9,0.3,2.9,0.3c0.5,0,0.9,0,1.4,0s0.9,0,1.4,0c9.3-0.5,17.6-5.6,22.1-13.5l-47,0
		C-513.3,124-506.3,128.9-498.1,130.2z"/>
	<path class="st2" d="M-468.2,94.3c-0.6-1.6-1.3-3.1-2.1-4.5h-47c-0.8,1.4-1.5,3-2.1,4.5c-1,2.9-1.5,6-1.5,9.1c0,3.1,0.5,6.1,1.5,9
		c0.6,1.6,1.3,3.1,2.1,4.6l47,0c0.8-1.4,1.5-3,2.1-4.6c1-2.9,1.5-5.9,1.5-9C-466.7,100.2-467.2,97.2-468.2,94.3z"/>
	<path class="st4" d="M-493.8,76.2c-1.4,0-2.9,0.1-4.3,0.3c-8.2,1.3-15.2,6.2-19.2,13.2l47,0C-475.1,81.5-484,76.2-493.8,76.2z"/>
	<g>
		<path class="st1" d="M-496.8,110.2c3.2,0,4.8-1.8,5.8-3.3c-0.6,0.5-1.9,1.8-4.3,1.8c-3,0-5.4-2.4-5.4-5.4c0-3,2.4-5.4,5.4-5.4
			c2.5,0,3.6,1.1,4.4,1.9c-0.4-0.9-2.6-3.4-5.9-3.4c-3.8,0-6.9,3.1-6.9,6.9C-503.6,107.2-500.6,110.2-496.8,110.2z"/>
		<polygon class="st1" points="-489.6,104.5 -489.6,108.1 -487.4,105.2 -484,106.3 -486.1,103.4 -484,100.4 -487.5,101.5 
			-489.6,98.6 -489.6,102.2 -493,103.3 		"/>
	</g>
</g>
</svg>
