<?xml version="1.0" encoding="utf-8"?>
<!-- Generator: Adobe Illustrator 24.1.1, SVG Export Plug-In . SVG Version: 6.00 Build 0)  -->
<svg version="1.1" id="Layer_1" xmlns="http://www.w3.org/2000/svg" xmlns:xlink="http://www.w3.org/1999/xlink" x="0px" y="0px"
	 viewBox="0 0 55.3 55.3" style="enable-background:new 0 0 55.3 55.3;" xml:space="preserve">
<style type="text/css">
	.st0{fill:#E41E26;}
	.st1{fill:#FFFFFF;}
	.st2{fill:#CD2028;}
	.st3{fill:#010101;}
	.st4{fill:#067B3F;}
</style>
<g>
	<path class="st0" d="M-264.1,76.2c-1.4,0-2.9,0.1-4.3,0.3c-9.8,1.6-18,8.4-21.3,17.8c-1,2.9-1.5,6-1.5,9.1c0,3.1,0.5,6.1,1.5,9
		c3.3,9.4,11.5,16.2,21.3,17.8c1,0.2,1.9,0.3,2.9,0.3c0.5,0,0.9,0,1.4,0s0.9,0,1.4,0c11-0.6,20.6-7.7,24.2-18.1c1-2.9,1.5-5.9,1.5-9
		c0-3.1-0.5-6.2-1.5-9.1C-242.3,83.5-252.6,76.2-264.1,76.2z M-264.1,117.3c-7.7,0-13.9-6.2-13.9-13.9s6.2-13.9,13.9-13.9
		s13.9,6.2,13.9,13.9S-256.4,117.3-264.1,117.3z"/>
	<path class="st1" d="M-264.1,89.4c-7.7,0-13.9,6.2-13.9,13.9s6.2,13.9,13.9,13.9s13.9-6.2,13.9-13.9S-256.4,89.4-264.1,89.4z
		 M-256.5,106.8l-4.1-1.4l-2.6,3.4l0.1-4.3l-4-1.4l4-1.3l0.1-4.3l2.5,3.5l4.1-1.2l-2.5,3.4L-256.5,106.8z M-261.4,95
		c-4.6,0-8.3,3.7-8.3,8.3c0,4.6,3.7,8.3,8.3,8.3c1.9,0,3.7-0.7,5.1-1.8c-1.9,2.3-4.7,3.7-7.9,3.7c-5.7,0-10.3-4.6-10.3-10.3
		c0-5.7,4.6-10.3,10.3-10.3c3.4,0,6.4,1.6,8.3,4.1C-257.4,95.8-259.3,95-261.4,95z"/>
	<polygon class="st0" points="-262.8,101.2 -265.2,97.7 -265.3,101.9 -269.4,103.2 -265.4,104.6 -265.5,108.8 -262.9,105.5 
		-258.8,106.8 -261.3,103.3 -258.7,99.9 	"/>
	<path class="st0" d="M-263,92.9c-5.7,0-10.3,4.6-10.3,10.3c0,5.7,4.6,10.3,10.3,10.3c3.2,0,6-1.4,7.9-3.7c-1.4,1.1-3.2,1.8-5.1,1.8
		c-4.6,0-8.3-3.7-8.3-8.3c0-4.6,3.7-8.3,8.3-8.3c2.1,0,4,0.8,5.5,2C-256.7,94.6-259.6,92.9-263,92.9z"/>
</g>
<g>
	<path class="st2" d="M27.6,0.5c-1.4,0-2.9,0.1-4.3,0.3C13.5,2.4,5.4,9.2,2,18.6h51.2C49.4,7.8,39.1,0.5,27.6,0.5z"/>
	<path class="st1" d="M2,18.6c-1,2.9-1.5,6-1.5,9.1c0,3.1,0.5,6.1,1.5,9c0,0,0,0,0,0h51.2c0,0,0,0,0,0c1-2.9,1.5-5.9,1.5-9
		c0-3.1-0.5-6.2-1.5-9.1c0,0,0,0,0,0L2,18.6C2,18.6,2,18.6,2,18.6z M41.5,26.2l1.5-4.5l1.5,4.5h4.8l-3.8,2.8l1.4,4.5l-3.8-2.8
		l-3.8,2.8l1.4-4.5l-3.8-2.8H41.5z M12.3,21.8l1.5,4.5h4.8l-3.8,2.8l1.4,4.5l-3.8-2.8l-3.8,2.8l1.4-4.5l-3.8-2.8h4.8L12.3,21.8z"/>
	<path class="st3" d="M23.3,54.5c1,0.2,1.9,0.3,2.9,0.3c0.5,0,0.9,0,1.4,0c0.5,0,0.9,0,1.4,0c11-0.6,20.5-7.6,24.2-18H2
		C5.4,46.1,13.5,52.9,23.3,54.5z"/>
	<polygon class="st4" points="9.9,29.1 8.5,33.5 12.3,30.8 16.2,33.5 14.7,29.1 18.6,26.2 13.8,26.2 12.3,21.8 10.9,26.2 6.1,26.2 	
		"/>
	<polygon class="st4" points="39.1,33.5 42.9,30.8 46.8,33.5 45.3,29.1 49.2,26.2 44.4,26.2 42.9,21.7 41.5,26.2 36.7,26.2 
		40.5,29.1 	"/>
</g>
</svg>
