<?xml version="1.0" encoding="utf-8"?>
<!-- Generator: Adobe Illustrator 24.1.1, SVG Export Plug-In . SVG Version: 6.00 Build 0)  -->
<svg version="1.1" id="Layer_1" xmlns="http://www.w3.org/2000/svg" xmlns:xlink="http://www.w3.org/1999/xlink" x="0px" y="0px"
	 viewBox="0 0 55.3 55.3" style="enable-background:new 0 0 55.3 55.3;" xml:space="preserve">
<style type="text/css">
	.st0{fill:#E41E26;}
	.st1{fill:#FFFFFF;}
</style>
<g>
	<path class="st0" d="M27.6,0.5c-1.4,0-2.9,0.1-4.3,0.3C13.5,2.4,5.4,9.2,2,18.6c-1,2.9-1.5,6-1.5,9.1c0,3.1,0.5,6.1,1.5,9
		c3.3,9.4,11.5,16.2,21.3,17.8c1,0.2,1.9,0.3,2.9,0.3c0.5,0,0.9,0,1.4,0c0.5,0,0.9,0,1.4,0c11-0.6,20.6-7.7,24.2-18.1
		c1-2.9,1.5-5.9,1.5-9c0-3.1-0.5-6.2-1.5-9.1C49.4,7.8,39.1,0.5,27.6,0.5z M27.6,41.6c-7.7,0-13.9-6.2-13.9-13.9
		c0-7.7,6.2-13.9,13.9-13.9c7.7,0,13.9,6.2,13.9,13.9C41.6,35.3,35.3,41.6,27.6,41.6z"/>
	<path class="st1" d="M27.6,13.7c-7.7,0-13.9,6.2-13.9,13.9c0,7.7,6.2,13.9,13.9,13.9c7.7,0,13.9-6.2,13.9-13.9
		C41.6,20,35.3,13.7,27.6,13.7z M35.2,31.1l-4.1-1.4l-2.6,3.4l0.1-4.3l-4-1.4l4-1.3l0.1-4.3l2.5,3.5l4.1-1.2l-2.5,3.4L35.2,31.1z
		 M30.3,19.3c-4.6,0-8.3,3.7-8.3,8.3c0,4.6,3.7,8.3,8.3,8.3c1.9,0,3.7-0.7,5.1-1.8c-1.9,2.3-4.7,3.7-7.9,3.7
		c-5.7,0-10.3-4.6-10.3-10.3c0-5.7,4.6-10.3,10.3-10.3c3.4,0,6.4,1.6,8.3,4.1C34.3,20.1,32.4,19.3,30.3,19.3z"/>
	<polygon class="st0" points="28.9,25.5 26.5,21.9 26.3,26.2 22.3,27.5 26.3,28.9 26.2,33.1 28.8,29.8 32.9,31.1 30.4,27.6 33,24.2 
			"/>
	<path class="st0" d="M28.7,17.2c-5.7,0-10.3,4.6-10.3,10.3c0,5.7,4.6,10.3,10.3,10.3c3.2,0,6-1.4,7.9-3.7c-1.4,1.1-3.2,1.8-5.1,1.8
		c-4.6,0-8.3-3.7-8.3-8.3c0-4.6,3.7-8.3,8.3-8.3c2.1,0,4,0.8,5.5,2C35,18.9,32.1,17.2,28.7,17.2z"/>
</g>
</svg>
