<?xml version="1.0" encoding="utf-8"?>
<!-- Generator: Adobe Illustrator 24.1.1, SVG Export Plug-In . SVG Version: 6.00 Build 0)  -->
<svg version="1.1" id="Layer_1" xmlns="http://www.w3.org/2000/svg" xmlns:xlink="http://www.w3.org/1999/xlink" x="0px" y="0px"
	 viewBox="0 0 73.6 58.6" style="enable-background:new 0 0 73.6 58.6;" xml:space="preserve">
<style type="text/css">
	.st0{fill:#BDBEC0;}
</style>
<g>
	<g>
		<path class="st0" d="M45.5,57.6H28l1.6-1.5c0.5-0.4,0.7-1,0.7-1.7v-5.1h12.8v5.1c0,0.6,0.3,1.2,0.7,1.7L45.5,57.6z M29,57.2h15.5
			l-0.9-0.8c-0.5-0.5-0.8-1.2-0.8-1.9v-4.7H30.7v4.7c0,0.7-0.3,1.4-0.8,1.9L29,57.2z"/>
	</g>
	<g>
		<path class="st0" d="M69.5,49.8H4c-1.7,0-3.1-1.4-3.1-3.1v-3.8h71.8v3.8C72.7,48.4,71.3,49.8,69.5,49.8z M1.3,43.3v3.4
			c0,1.5,1.2,2.7,2.7,2.7h65.5c1.5,0,2.7-1.2,2.7-2.7v-3.4H1.3z M36.8,47.5c-0.8,0-1.4-0.6-1.4-1.4c0-0.8,0.6-1.4,1.4-1.4
			c0.8,0,1.4,0.6,1.4,1.4S37.6,47.5,36.8,47.5z M36.8,45.1c-0.6,0-1,0.5-1,1c0,0.6,0.5,1,1,1s1-0.5,1-1
			C37.8,45.5,37.3,45.1,36.8,45.1z"/>
	</g>
	<g>
		<path class="st0" d="M72.7,43.3H0.9V4.1C0.9,2.4,2.3,1,4,1h65.5c1.7,0,3.1,1.4,3.1,3.1L72.7,43.3L72.7,43.3z M1.3,42.9h71V4.1
			c0-1.5-1.2-2.7-2.7-2.7H4c-1.5,0-2.7,1.2-2.7,2.7V42.9z"/>
	</g>
	<g>
		<path class="st0" d="M36.8,44.9c0.7,0,1.2,0.6,1.2,1.2c0,0.7-0.6,1.2-1.2,1.2c-0.7,0-1.2-0.6-1.2-1.2
			C35.5,45.4,36.1,44.9,36.8,44.9z"/>
		<path class="st0" d="M36.8,47.5c-0.8,0-1.4-0.6-1.4-1.4c0-0.8,0.6-1.4,1.4-1.4c0.8,0,1.4,0.6,1.4,1.4S37.6,47.5,36.8,47.5z
			 M36.8,45.1c-0.6,0-1,0.5-1,1c0,0.6,0.5,1,1,1s1-0.5,1-1C37.8,45.5,37.3,45.1,36.8,45.1z"/>
	</g>
	<g>
		<path class="st0" d="M69.5,49.8H4c-1.7,0-3.1-1.4-3.1-3.1V4.1C0.9,2.4,2.3,1,4,1h65.5c1.7,0,3.1,1.4,3.1,3.1v42.6
			C72.7,48.4,71.3,49.8,69.5,49.8z M4,1.3C2.5,1.3,1.3,2.5,1.3,4v42.6c0,1.5,1.2,2.7,2.7,2.7h65.5c1.5,0,2.7-1.2,2.7-2.7V4.1
			c0-1.5-1.2-2.7-2.7-2.7L4,1.3L4,1.3z"/>
	</g>
	<g>
		<polyline class="st0" points="1.1,43.1 72.5,43.1 72.7,43.1 		"/>
		<rect x="1.1" y="42.9" class="st0" width="71.7" height="0.4"/>
	</g>
	<g>
		<g>
			<polyline class="st0" points="22.8,57.4 28.5,57.4 45,57.4 50.7,57.4 			"/>
			<rect x="22.8" y="57.2" class="st0" width="27.9" height="0.4"/>
		</g>
	</g>
	<g>
		<path class="st0" d="M38,46.1c0,0.7-0.6,1.2-1.2,1.2c-0.7,0-1.2-0.6-1.2-1.2c0-0.7,0.6-1.2,1.2-1.2C37.4,44.9,38,45.4,38,46.1z"/>
		<path class="st0" d="M36.8,47.5c-0.8,0-1.4-0.6-1.4-1.4c0-0.8,0.6-1.4,1.4-1.4c0.8,0,1.4,0.6,1.4,1.4S37.6,47.5,36.8,47.5z
			 M36.8,45.1c-0.6,0-1,0.5-1,1c0,0.6,0.5,1,1,1s1-0.5,1-1C37.8,45.5,37.3,45.1,36.8,45.1z"/>
	</g>
</g>
</svg>
