<?xml version="1.0" encoding="utf-8"?>
<!-- Generator: Adobe Illustrator 24.1.1, SVG Export Plug-In . SVG Version: 6.00 Build 0)  -->
<svg version="1.1" id="Layer_1" xmlns="http://www.w3.org/2000/svg" xmlns:xlink="http://www.w3.org/1999/xlink" x="0px" y="0px"
	 viewBox="0 0 78.6 29.4" style="enable-background:new 0 0 78.6 29.4;" xml:space="preserve">
<style type="text/css">
	.st0{fill:#BDBEC0;}
</style>
<g>
	<path class="st0" d="M30.2,15.6H9.6c-1.9,0-3.2,1.6-3.2,3.9v7.2c0,0.1-0.1,0.2-0.2,0.2H1.3c-0.1,0-0.2-0.1-0.2-0.2v-7.2
		C1.1,15.8,3.6,13,7,13h21.5c2.3,0,3.4-1.7,3.4-4s-1.1-4-3.4-4H1.3C1.2,5.1,1.1,5,1.1,5V2.7c0-0.1,0.1-0.2,0.2-0.2h28.9
		c4.6,0,6.9,2.9,6.9,6.6S34.8,15.6,30.2,15.6z"/>
	<path class="st0" d="M77.3,5.1H63.1c-2.3,0-3.4,1.7-3.4,4v11.3c0,3.7-2.3,6.6-6.9,6.6H36.1c-0.1,0-0.2-0.1-0.2-0.2v-2.3
		c0-0.1,0.1-0.2,0.2-0.2h15c2.3,0,3.4-1.7,3.4-4V9.1c0-3.7,2.3-6.6,6.9-6.6h16c0.1,0,0.2,0.1,0.2,0.2V5C77.5,5,77.4,5.1,77.3,5.1z"
		/>
</g>
</svg>
