<?xml version="1.0" encoding="utf-8"?>
<!-- Generator: Adobe Illustrator 24.1.1, SVG Export Plug-In . SVG Version: 6.00 Build 0)  -->
<svg version="1.1" id="Layer_1" xmlns="http://www.w3.org/2000/svg" xmlns:xlink="http://www.w3.org/1999/xlink" x="0px" y="0px"
	 viewBox="0 0 58.7 82.1" style="enable-background:new 0 0 58.7 82.1;" xml:space="preserve">
<style type="text/css">
	.st0{fill:#BDBEC0;}
	.st1{fill:#BDBEC0;stroke:#303030;stroke-width:0.557;stroke-miterlimit:10;}
</style>
<g>
	<g>
		<path class="st0" d="M52,81H6.6c-3,0-5.5-2.5-5.5-5.5v-69c0-3,2.5-5.5,5.5-5.5H52c3,0,5.5,2.5,5.5,5.5v69C57.5,78.6,55.1,81,52,81
			z M6.6,1.6c-2.7,0-5,2.2-5,5v69c0,2.7,2.2,5,5,5H52c2.7,0,5-2.2,5-5v-69c0-2.7-2.2-5-5-5H6.6z"/>
	</g>
	<path class="st1" d="M57.3,70.4"/>
	<path class="st1" d="M1.4,70.4"/>
	<g>
		<line class="st0" x1="24.2" y1="6.1" x2="34.5" y2="6.1"/>
		<rect x="24.2" y="5.8" class="st0" width="10.3" height="0.6"/>
	</g>
</g>
</svg>
