<?xml version="1.0" encoding="utf-8"?>
<!-- Generator: Adobe Illustrator 24.1.1, SVG Export Plug-In . SVG Version: 6.00 Build 0)  -->
<svg version="1.1" id="Layer_1" xmlns="http://www.w3.org/2000/svg" xmlns:xlink="http://www.w3.org/1999/xlink" x="0px" y="0px"
	 viewBox="0 0 62.1 62.3" style="enable-background:new 0 0 62.1 62.3;" xml:space="preserve">
<style type="text/css">
	.st0{fill:#BDBEC0;}
</style>
<g>
	<path class="st0" d="M9.6,9.4L9.6,9.4L9.6,9.4C3.8,15.2,0.5,23,0.5,31.1c0,6.7,2.2,13.2,6.2,18.5c0,0.1,0.1,0.1,0.2,0.1
		c0.1,0,0.1-0.1,0-0.2c-2.3-7.2,9.6-24.6,15.7-31.9c0,0,0-0.1,0-0.1c0,0,0-0.1-0.1-0.1C12.3,7.1,9.6,9.5,9.6,9.4"/>
	<path class="st0" d="M52.5,9.4L52.5,9.4L52.5,9.4c5.8,5.8,9.1,13.6,9.1,21.7c0,6.7-2.2,13.2-6.2,18.5c0,0.1-0.1,0.1-0.2,0.1
		c-0.1,0-0.1-0.1,0-0.2c2.3-7.2-9.6-24.6-15.7-32c0,0,0-0.1,0-0.1c0,0,0-0.1,0.1-0.1C49.8,7.1,52.5,9.5,52.5,9.4"/>
	<path class="st0" d="M31.1,0.6c6.2,0,11.2,1.7,15.9,4.5C47,5.1,47,5.2,47,5.2c0,0.1-0.1,0.1-0.1,0.1C41,4,32,9.1,31.1,9.6
		c0,0,0,0-0.1,0c0,0,0,0-0.1,0C28.7,8.3,20.4,4,15.2,5.3c-0.1,0-0.1,0-0.1-0.1c0-0.1,0-0.1,0.1-0.2C19.8,2.3,24.9,0.6,31.1,0.6"/>
	<path class="st0" d="M31.1,25.1C31.1,25.1,31.1,25.1,31.1,25.1c9.2,7,24.9,24.2,20.1,29l0,0l0,0h0c-5.6,4.9-12.7,7.6-20.1,7.6
		c-7.4,0-14.5-2.7-20.1-7.6l0,0l0,0c-4.8-4.9,10.9-22,20-29C31,25.1,31,25.1,31.1,25.1"/>
</g>
</svg>
